<svg width="612" height="401" viewBox="0 0 612 401" fill="none" xmlns="http://www.w3.org/2000/svg">
<g clip-path="url(#clip0_1089_128)">
<path d="M601.331 94.5404L591.761 140.88L585.601 134.88L575.121 142.35L567.111 132.41L549.151 145.47L533.801 119.8L516.681 129.83L509.891 120.46L488.151 132.71L481.611 118.71L496.851 44.9004L578.551 61.7704L601.331 94.5404Z" fill="#EBEBEB"/>
<path d="M578.55 61.7705L601.33 94.5405L572.99 88.6905L578.55 61.7705Z" fill="#DBDBDB"/>
<path d="M589.721 150.151L575.691 218.141L465.641 195.431L479.571 127.971L486.111 141.981L507.861 129.731L514.641 139.091L531.771 129.061L547.111 154.731L565.081 141.671L573.081 151.611L583.571 144.141L589.721 150.151Z" fill="#EBEBEB"/>
<path d="M432.21 142.18L320.06 149.12L311.15 5.15L394.43 0L425 25.64L432.21 142.18Z" fill="#EBEBEB"/>
<path d="M394.43 0L425 25.64L396.12 27.43L394.43 0Z" fill="#DBDBDB"/>
<path d="M363.341 96.8599L362.911 93.6099C361.781 86.8799 363.621 79.3499 369.471 71.4799C374.741 64.5199 377.601 59.4499 377.291 53.7999C376.931 47.3999 372.681 43.3599 364.771 43.6799C360.251 43.9299 355.321 45.7199 352.321 48.2799L348.871 40.5499C352.841 37.3099 359.881 34.8999 366.531 34.5299C380.951 33.7199 387.971 42.2599 388.511 51.7899C388.991 60.3199 384.571 66.7299 378.951 74.2199C373.801 81.0499 372.101 86.6799 372.831 93.0599L373.141 96.3099L363.341 96.8599ZM361.561 114.58C361.301 109.94 364.251 106.5 368.641 106.26C373.031 106.01 376.221 109.11 376.481 113.75C376.731 118.14 374.031 121.69 369.391 121.95C365.011 122.19 361.811 118.97 361.561 114.58Z" fill="#DBDBDB"/>
<path d="M82.8609 72.3798L71.5709 67.2598L70.0109 70.7198C69.5509 71.7398 68.5509 72.3798 67.4409 72.4298C66.8209 72.4598 66.2109 72.5198 65.6009 72.6098C64.5009 72.7798 63.4009 72.3298 62.7509 71.4298L60.5409 68.3498L50.4609 75.5698L52.6709 78.6498C53.3209 79.5498 53.3809 80.7398 52.8709 81.7298C52.5809 82.2798 52.3309 82.8398 52.1109 83.4198C51.7109 84.4598 50.7709 85.1998 49.6609 85.2998L45.8809 85.6698L47.1009 97.9998L50.8909 97.6198C52.0009 97.5098 53.0509 98.0598 53.6609 98.9998C53.8209 99.2598 53.9909 99.5098 54.1709 99.7598C54.3509 100.01 54.5309 100.25 54.7209 100.49C55.4109 101.36 55.6009 102.53 55.1409 103.54L53.5609 107.02L64.8509 112.14L66.4209 108.68C66.8809 107.66 67.8809 107.02 68.9909 106.97C69.6009 106.94 70.2209 106.88 70.8309 106.79C71.9309 106.62 73.0309 107.07 73.6809 107.97L75.8909 111.05L85.9709 103.83L83.7609 100.75C83.1109 99.8498 83.0509 98.6598 83.5609 97.6698C83.8409 97.1198 84.1009 96.5598 84.3209 95.9898C84.7209 94.9498 85.6609 94.2098 86.7709 94.0998L90.5509 93.7298L89.3209 81.3998L85.5309 81.7698C84.4209 81.8798 83.3809 81.3298 82.7709 80.3898C82.6109 80.1298 82.4309 79.8798 82.2509 79.6298C82.0709 79.3798 81.8909 79.1398 81.7009 78.8998C81.0009 78.0298 80.8209 76.8498 81.2809 75.8398L82.8609 72.3798ZM76.4609 83.7898C79.7209 88.3498 78.6809 94.6798 74.1209 97.9498C69.5609 101.21 63.2209 100.17 59.9509 95.6198C56.6909 91.0598 57.7309 84.7098 62.2909 81.4498C66.8509 78.1798 73.1909 79.2298 76.4609 83.7898Z" fill="#EBEBEB"/>
<path d="M592.761 235.98L585.241 240.32L586.571 242.62C586.961 243.3 586.921 244.13 586.501 244.78C586.261 245.14 586.051 245.52 585.851 245.9C585.501 246.59 584.791 247.04 584.021 247.04H581.361V255.72H584.021C584.801 255.72 585.501 256.17 585.851 256.86C586.051 257.25 586.261 257.62 586.501 257.98C586.931 258.63 586.961 259.47 586.571 260.14L585.241 262.44L592.761 266.78L594.091 264.47C594.481 263.79 595.221 263.42 596.011 263.46C596.221 263.47 596.441 263.48 596.651 263.48C596.861 263.48 597.081 263.47 597.291 263.46C598.071 263.42 598.811 263.79 599.201 264.46L600.541 266.78L608.061 262.44L606.731 260.13C606.341 259.45 606.381 258.62 606.811 257.97C607.051 257.61 607.261 257.24 607.461 256.85C607.811 256.16 608.511 255.71 609.291 255.71H611.951V247.03H609.291C608.511 247.03 607.811 246.58 607.461 245.89C607.261 245.5 607.051 245.13 606.811 244.77C606.381 244.12 606.341 243.28 606.731 242.61L608.061 240.3L600.541 235.96L599.211 238.27C598.821 238.95 598.081 239.32 597.301 239.28C597.091 239.27 596.871 239.26 596.661 239.26C596.451 239.26 596.231 239.27 596.021 239.28C595.241 239.32 594.491 238.95 594.101 238.27L592.761 235.98ZM596.651 244.28C600.581 244.28 603.761 247.46 603.761 251.39C603.761 255.32 600.581 258.51 596.651 258.51C592.721 258.51 589.541 255.32 589.541 251.39C589.531 247.46 592.721 244.28 596.651 244.28Z" fill="#EBEBEB"/>
<path d="M105.681 35.4297L98.7808 40.6997L100.401 42.8097C100.881 43.4297 100.951 44.2597 100.611 44.9697C100.421 45.3597 100.261 45.7597 100.111 46.1697C99.8508 46.8997 99.2108 47.4397 98.4408 47.5397L95.8008 47.8797L96.9208 56.4897L99.5608 56.1497C100.331 56.0497 101.091 56.3997 101.531 57.0497C101.781 57.4097 102.041 57.7497 102.321 58.0797C102.831 58.6697 102.971 59.4897 102.671 60.2197L101.651 62.6697L109.671 65.9997L110.691 63.5397C110.991 62.8197 111.681 62.3497 112.461 62.2897C112.671 62.2697 112.881 62.2497 113.101 62.2197C113.311 62.1897 113.521 62.1597 113.731 62.1197C114.501 61.9797 115.281 62.2497 115.751 62.8697L117.381 64.9997L124.281 59.7297L122.661 57.6097C122.191 56.9897 122.121 56.1597 122.461 55.4497C122.651 55.0597 122.811 54.6597 122.961 54.2597C123.221 53.5297 123.861 52.9897 124.631 52.8897L127.271 52.5497L126.151 43.9397L123.511 44.2797C122.741 44.3797 121.981 44.0297 121.541 43.3897C121.301 43.0297 121.031 42.6897 120.751 42.3597C120.241 41.7697 120.101 40.9497 120.401 40.2197L121.421 37.7597L113.401 34.4297L112.381 36.8897C112.081 37.6097 111.391 38.0697 110.621 38.1397C110.411 38.1597 110.191 38.1797 109.981 38.2097C109.771 38.2397 109.561 38.2697 109.351 38.3097C108.581 38.4497 107.791 38.1797 107.321 37.5597L105.681 35.4297ZM110.611 43.1597C114.501 42.6497 118.071 45.3997 118.581 49.2897C119.091 53.1797 116.341 56.7597 112.451 57.2597C108.561 57.7697 104.981 55.0197 104.481 51.1197C103.961 47.2297 106.711 43.6697 110.611 43.1597Z" fill="#EBEBEB"/>
<path d="M54.2004 261.05C54.5904 251.37 54.4404 241.68 53.8004 232.02C52.4904 212.09 49.2104 192.31 44.7004 172.87C42.1604 161.92 39.0404 151.16 35.7904 140.41C35.6904 140.09 35.1704 140.18 35.2604 140.52C45.3204 178.42 53.5804 217.52 53.0104 256.92C52.8504 267.94 51.5704 278.77 50.5304 289.73C50.5004 290.02 50.9804 290.14 51.0504 289.84C53.1304 280.45 53.8104 270.62 54.2004 261.05Z" fill="#EBEBEB"/>
<path d="M35.2595 140.51C35.2595 140.51 20.0095 179.21 23.4295 188.3C26.8395 197.4 33.8795 199.34 33.8795 199.34C33.8795 199.34 24.5495 212.66 31.0695 225.15C37.5895 237.64 52.0695 237.05 53.0295 251.21C53.0395 251.21 53.8395 191.99 35.2595 140.51Z" fill="#EBEBEB"/>
<path d="M51.3797 226.76C51.3997 226.7 51.3897 226.63 51.3597 226.56C49.2197 200.25 44.5497 174.02 36.5697 148.71C36.5497 148.64 36.4197 148.66 36.4397 148.74C39.4597 160.06 42.1497 171.44 44.4497 182.88C42.4697 180.84 39.8797 179.67 37.1697 178.82C37.1197 178.8 37.0897 178.88 37.1397 178.9C39.9597 180.12 42.6598 181.53 44.6498 183.92C45.0998 186.16 45.5297 188.41 45.9497 190.65C42.5398 186.84 37.8197 184.95 33.0897 183.16C33.0197 183.13 32.9897 183.24 33.0497 183.26C37.9697 185.26 42.8798 187.85 46.2198 192.09C47.3798 198.51 48.3997 204.96 49.2797 211.42C46.7897 208.82 43.7197 207.07 40.1897 206.21C40.0797 206.18 40.0197 206.34 40.1297 206.37C43.7498 207.41 46.8697 209.44 49.3497 212.28C49.3697 212.3 49.3897 212.31 49.4097 212.32C49.7197 214.59 49.9997 216.87 50.2697 219.15C48.3497 217.51 46.2298 216.27 43.8998 215.31C43.8398 215.28 43.7997 215.38 43.8697 215.41C46.2397 216.42 48.3697 217.87 50.2497 219.63C50.2797 219.65 50.2997 219.65 50.3298 219.66C50.5798 221.83 50.8398 224 51.0597 226.17C47.5597 221.96 43.2397 218.91 38.1297 216.94C38.0297 216.9 37.9797 217.05 38.0697 217.1C43.0397 219.26 47.4197 222.69 50.8097 226.91C50.8997 227.03 51.0197 227.04 51.1297 227.01C51.4597 230.34 51.7497 233.68 51.9997 237.02C51.9997 237.07 52.0798 237.07 52.0798 237.02C51.8997 233.59 51.6597 230.18 51.3797 226.76Z" fill="white"/>
<path d="M39.1295 174.97C36.4895 173.15 33.1295 172.38 29.9695 172.11C29.8895 172.1 29.8895 172.22 29.9595 172.23C33.2395 172.72 35.9995 173.91 39.0195 175.19C39.1495 175.25 39.2395 175.05 39.1295 174.97Z" fill="white"/>
<path d="M40.9804 215.95C38.8904 214.69 36.5004 213.98 34.1004 213.6C34.0204 213.59 34.0104 213.72 34.0904 213.73C36.5204 214.17 38.6804 215.04 40.8904 216.12C40.9904 216.16 41.0704 216 40.9804 215.95Z" fill="white"/>
<path d="M94.2808 188.93C87.9208 193.4 81.8208 198.56 76.6308 204.36C71.1008 210.54 67.0708 217.56 64.2508 225.35C58.4808 241.31 55.3208 258.59 55.0308 275.55C54.8708 285.06 55.7108 294.49 57.7508 303.78C57.8208 304.12 58.3308 304.02 58.2808 303.68C55.7908 287.33 55.8808 270.65 58.5608 254.34C61.1808 238.33 65.2908 220.91 75.4708 207.9C81.0108 200.82 87.9208 195.24 94.7508 189.48C95.1108 189.17 94.6508 188.67 94.2808 188.93Z" fill="#EBEBEB"/>
<path d="M57.2812 264.02C57.2812 264.02 62.5213 255.2 70.1413 247.58C77.7713 239.96 84.1913 234.54 85.1813 229.49C86.1713 224.45 77.5413 220.73 77.5413 220.73C77.5413 220.73 88.0913 222.62 90.9813 218.2C93.8713 213.77 95.2613 188.12 95.2613 188.12C95.2613 188.12 76.0613 201.83 67.1113 221.05C58.1813 240.25 57.2812 264.02 57.2812 264.02Z" fill="#EBEBEB"/>
<path d="M88.6303 194.69C80.5503 202.63 72.4203 211.08 67.6603 221.51C66.0303 225.08 64.6403 228.79 63.4203 232.57C63.4203 232.58 63.4203 232.58 63.4103 232.59C63.1603 233.35 62.9203 234.1 62.6803 234.87C62.6603 234.91 62.6403 234.95 62.6403 234.99C60.2903 242.78 58.6303 250.83 57.1903 258.69C57.1803 258.74 57.2603 258.77 57.2703 258.72C58.1003 254.72 59.0103 250.68 60.0303 246.65C60.0703 246.65 60.1003 246.64 60.1403 246.63C61.7703 245.94 63.4203 245.51 65.1803 245.35C65.2903 245.34 65.2903 245.14 65.1703 245.15C63.4703 245.23 61.8003 245.53 60.1903 246.06C61.1203 242.43 62.1303 238.8 63.2703 235.23C66.9803 234.32 70.8503 233.83 74.6603 233.74C74.7003 233.74 74.7103 233.68 74.6703 233.68C70.8303 233.5 67.2203 233.83 63.4703 234.63C63.6703 234.02 63.8703 233.41 64.0803 232.8C66.5803 232.23 69.1003 231.75 71.6603 231.52C71.7103 231.52 71.7003 231.44 71.6603 231.44C69.1503 231.51 66.6803 231.77 64.2403 232.34C65.2803 229.25 66.4103 226.2 67.6703 223.23C68.7103 220.77 69.9403 218.44 71.3003 216.19C73.3503 215.73 75.3403 215.28 77.4503 215.09C77.5103 215.08 77.5003 214.99 77.4403 214.99C75.5303 214.87 73.5403 215.01 71.6903 215.56C72.7003 213.93 73.7603 212.33 74.9003 210.78C79.2103 209.83 83.5703 208.94 87.9703 209.77C88.0503 209.78 88.0703 209.66 88.0003 209.64C83.8103 208.54 79.6503 209.17 75.4703 210C75.9303 209.39 76.3903 208.8 76.8603 208.2C79.5003 207.38 82.1303 206.99 84.9103 206.94C84.9703 206.94 84.9803 206.86 84.9203 206.85C82.3903 206.61 79.8603 206.85 77.4203 207.52C80.9803 203.1 84.9103 198.94 88.8003 194.83C88.9603 194.61 88.8203 194.5 88.6303 194.69Z" fill="white"/>
<path d="M88.4101 212.17C87.1501 212.04 85.86 211.89 84.59 212.04C84.44 212.06 84.45 212.31 84.6 212.31C85.86 212.35 87.13 212.25 88.39 212.32C88.5 212.33 88.5101 212.18 88.4101 212.17Z" fill="white"/>
<path d="M74.5902 237.06C72.5702 237.04 70.5602 237.58 68.6702 238.25C68.6202 238.27 68.6502 238.35 68.7002 238.33C70.6502 237.86 72.6302 237.68 74.6102 237.35C74.7702 237.33 74.7602 237.06 74.5902 237.06Z" fill="white"/>
<path d="M70.4516 228.46C69.6316 228.42 68.7416 228.56 67.9416 228.69C67.8616 228.7 67.8616 228.84 67.9516 228.84C68.7716 228.85 69.6616 228.88 70.4716 228.72C70.6116 228.7 70.6016 228.47 70.4516 228.46Z" fill="white"/>
<path d="M0.989772 216.16C7.16977 218.31 13.2998 221.07 18.8398 224.56C24.7398 228.29 29.6298 233.03 33.7098 238.68C42.0698 250.26 48.6198 263.52 52.7698 277.17C55.0998 284.83 56.5898 292.65 57.0998 300.64C57.1198 300.93 56.6898 300.97 56.6498 300.68C54.8798 286.88 50.9498 273.4 45.0198 260.81C39.1998 248.46 31.8398 235.32 20.5998 227.14C14.4798 222.69 7.59977 219.77 0.739772 216.69C0.379772 216.54 0.629772 216.03 0.989772 216.16Z" fill="#EBEBEB"/>
<path d="M48.29 268.37C48.29 268.37 42.01 262.44 34.08 258.04C26.15 253.63 19.69 250.73 17.73 246.88C15.76 243.03 21.89 238.03 21.89 238.03C21.89 238.03 13.79 242 10.43 239.09C7.06 236.16 0 215.72 0 215.72C0 215.72 18.71 222.38 30.39 235.86C42.07 249.35 48.29 268.37 48.29 268.37Z" fill="#EBEBEB"/>
<path d="M47.3098 264.15C37.9498 246.59 25.4698 230.7 8.35984 220.21C8.34984 220.21 8.33985 220.22 8.34985 220.22C12.8498 223.09 16.9998 226.4 20.8698 230.02C17.4098 229.92 13.8798 230.48 10.8098 232.14C10.7398 232.18 10.7898 232.27 10.8598 232.25C14.2798 231.09 17.5698 230.33 21.2098 230.5C21.2598 230.5 21.2898 230.48 21.3298 230.46C21.9398 231.04 22.5398 231.62 23.1298 232.21C21.3298 232.29 19.5098 232.54 17.7598 232.92C17.7098 232.93 17.7298 233 17.7698 232.99C19.6698 232.62 21.5198 232.5 23.4498 232.52C26.5898 235.67 29.5098 239.04 32.2698 242.54C31.0198 242.36 29.7098 242.46 28.5098 242.81C28.4198 242.84 28.4398 242.96 28.5398 242.95C29.8998 242.78 31.1998 242.8 32.5498 242.89C33.0598 243.54 33.5798 244.19 34.0798 244.85C30.2298 244.62 26.4598 244.99 22.7298 245.95C22.6698 245.96 22.6898 246.05 22.7498 246.04C26.6098 245.28 30.4898 245.04 34.4098 245.28C34.8898 245.91 35.3398 246.56 35.8098 247.2C33.5098 247.13 31.2898 247.42 29.0498 247.97C28.9598 247.99 28.9898 248.12 29.0798 248.11C31.3798 247.59 33.7198 247.45 36.0798 247.56C38.0898 250.33 40.0198 253.17 41.8698 256.04C40.8898 255.84 39.8598 255.95 38.8998 256.22C38.8498 256.23 38.8598 256.31 38.9198 256.3C40.0198 256.17 41.0498 256.31 42.1298 256.45C43.7998 259.04 45.4098 261.66 46.9498 264.3C47.0798 264.55 47.4398 264.39 47.3098 264.15Z" fill="white"/>
<path d="M32.7591 249.59C30.9291 249.43 29.0691 249.72 27.3191 250.25C27.2691 250.27 27.2791 250.34 27.3391 250.33C29.1391 250 30.9191 249.87 32.7391 249.78C32.8591 249.77 32.8891 249.6 32.7591 249.59Z" fill="white"/>
<path d="M16.4408 228.18C15.6108 228.09 14.7508 228.19 13.9308 228.33C13.8308 228.35 13.8608 228.49 13.9608 228.48C14.7808 228.39 15.6008 228.42 16.4208 228.4C16.5608 228.39 16.5808 228.2 16.4408 228.18Z" fill="white"/>
<path d="M72.4194 326.45H30.1895L36.2095 282.34L37.7495 271.03H64.8595L66.3995 282.34L72.4194 326.45Z" fill="#DBDBDB"/>
<path d="M66.399 282.34H36.209L37.749 271.03H64.859L66.399 282.34Z" fill="#C7C7C7"/>
<path d="M68.7291 267.11H33.8691V276.69H68.7291V267.11Z" fill="#DBDBDB"/>
<path d="M3.33984 326.45L79.3498 326.2L155.36 326.12L307.38 325.95L459.4 326.11L535.41 326.2L611.42 326.45L535.41 326.69L459.4 326.78L307.38 326.95L155.36 326.78L79.3498 326.69L3.33984 326.45Z" fill="#263238"/>
<path d="M309.381 400.98C467.743 400.98 596.121 386.912 596.121 369.56C596.121 352.207 467.743 338.14 309.381 338.14C151.018 338.14 22.6406 352.207 22.6406 369.56C22.6406 386.912 151.018 400.98 309.381 400.98Z" fill="#EBEBEB"/>
<path d="M242.628 364.35C240.298 365.14 173.488 365.37 170.928 363.77C169.958 363.17 169.358 353.44 168.958 341.66C168.868 339.12 168.798 336.49 168.738 333.82L163.318 298.18L207.978 297.89L212.198 333.53L212.028 341.37C212.028 341.37 237.648 352.72 240.258 354.78C242.868 356.86 244.958 363.56 242.628 364.35Z" fill="#EB9481"/>
<path d="M242.628 364.35C240.298 365.14 173.488 365.37 170.928 363.77C169.748 363.03 169.108 348.82 168.748 333.83L212.208 333.55L212.038 341.39C212.038 341.39 237.658 352.74 240.268 354.8C242.868 356.86 244.958 363.56 242.628 364.35Z" fill="white"/>
<path d="M242.629 364.35C240.299 365.14 173.489 365.37 170.929 363.77C169.959 363.17 169.359 353.44 168.959 341.66L212.039 341.38C212.039 341.38 237.659 352.73 240.269 354.79C242.869 356.86 244.959 363.56 242.629 364.35Z" fill="#A6A6A6"/>
<path d="M241.659 361.68C230.459 361.44 185.259 361.55 174.169 362.17C174.079 362.17 174.079 362.24 174.169 362.24C185.269 362.72 230.459 362.24 241.659 361.86C241.899 361.86 241.899 361.69 241.659 361.68Z" fill="#263238"/>
<path d="M235.97 352.411C233.31 352.311 230.72 353.581 229.28 355.171C227.89 356.691 226.71 358.841 226.8 361.161C226.8 361.231 226.93 361.231 226.94 361.161C227.56 356.771 231.54 352.911 235.98 352.551C236.06 352.551 236.06 352.421 235.97 352.411Z" fill="#263238"/>
<path d="M216.389 342.49C211.909 342.44 206.719 344.04 203.939 347.72C203.829 347.86 204.039 348.01 204.169 347.94C208.219 345.84 212.059 344.27 216.469 343.04C216.779 342.96 216.709 342.5 216.389 342.49Z" fill="#263238"/>
<path d="M219.86 343.83C215.38 343.78 210.19 345.38 207.41 349.06C207.3 349.2 207.51 349.35 207.64 349.28C211.68 347.18 215.53 345.61 219.94 344.38C220.25 344.29 220.18 343.83 219.86 343.83Z" fill="#263238"/>
<path d="M223.319 345.17C218.839 345.12 213.649 346.72 210.869 350.4C210.759 350.54 210.969 350.69 211.099 350.62C215.139 348.52 218.989 346.95 223.399 345.72C223.709 345.63 223.639 345.17 223.319 345.17Z" fill="#263238"/>
<path d="M226.789 346.5C222.309 346.45 217.119 348.05 214.339 351.73C214.229 351.87 214.439 352.02 214.569 351.95C218.609 349.85 222.459 348.28 226.869 347.05C227.179 346.97 227.109 346.51 226.789 346.5Z" fill="#263238"/>
<path d="M176.99 351.53C171.96 351.56 172 359.38 177.04 359.35C182.07 359.31 182.03 351.49 176.99 351.53Z" fill="#263238"/>
<path d="M221.19 330.51C218.91 328.64 216.06 330.49 214.67 332.44C212.42 335.61 210.87 340.05 210.64 343.92C210.63 344.02 210.71 344.05 210.78 344.05C210.88 344.37 211.26 344.64 211.59 344.41C214.77 342.19 218.45 340.21 220.86 337.08C222.26 335.26 223.34 332.29 221.19 330.51ZM215.73 340.06C214.19 341.19 212.61 342.24 211.11 343.42C211.9 341.18 212.59 338.92 213.61 336.77C214.1 335.74 214.61 334.69 215.24 333.74C216.21 332.26 220.6 328.49 221.06 333.37C221.31 336.06 217.56 338.71 215.73 340.06Z" fill="#263238"/>
<path d="M199.51 345.63C203.42 346.22 207.44 345.09 211.27 344.48C211.67 344.42 211.76 343.96 211.6 343.66C211.66 343.61 211.68 343.54 211.61 343.47C208.76 340.85 204.57 338.72 200.75 337.99C198.39 337.54 195.05 338.19 194.71 341.12C194.39 343.89 197.23 345.28 199.51 345.63ZM196.79 343.08C193.74 339.25 199.51 338.92 201.24 339.31C202.35 339.57 203.45 339.96 204.51 340.37C206.74 341.22 208.8 342.37 210.93 343.43C209.03 343.61 207.16 343.96 205.27 344.21C203.01 344.51 198.47 345.2 196.79 343.08Z" fill="#263238"/>
<path d="M97.6992 133.47C97.6992 133.47 149.569 221.71 150.959 227.9C153.089 237.42 164.409 331.43 164.409 331.43L218.379 330.46C218.379 330.46 209.079 247.57 200.269 220.26C193.919 200.59 148.149 135.35 148.149 135.35L97.6992 133.47Z" fill="#37474F"/>
<path d="M213.469 322.19C205.719 322.13 178.249 321.82 167.939 322.79C167.859 322.8 167.859 322.93 167.939 322.94C171.489 323.45 205.729 322.66 213.469 322.41C213.619 322.4 213.609 322.19 213.469 322.19Z" fill="#263238"/>
<path d="M106.549 141.57C109.949 146.9 113.539 152.12 117.009 157.41C120.489 162.7 123.949 167.99 127.369 173.32C134.199 183.96 140.859 194.71 147.389 205.53C150.449 210.6 153.369 215.73 155.479 221.26C157.559 226.74 158.979 232.45 160.029 238.2C161.089 243.99 161.779 249.84 162.439 255.69C163.139 261.92 163.829 268.14 164.529 274.37C165.949 287.11 167.369 299.85 168.799 312.59C168.969 314.15 169.149 315.72 169.299 317.28C169.319 317.51 168.909 317.55 168.879 317.32C167.289 304.66 165.969 291.97 164.529 279.29C163.809 272.98 163.089 266.67 162.379 260.36C161.709 254.49 161.079 248.62 160.169 242.78C159.279 237.05 158.109 231.34 156.369 225.79C154.549 219.99 151.959 214.55 148.909 209.28C142.659 198.49 136.039 187.89 129.419 177.31C122.739 166.64 116.009 156.01 109.019 145.53C108.159 144.24 107.289 142.95 106.389 141.68C106.309 141.56 106.489 141.46 106.549 141.57Z" fill="#263238"/>
<path d="M114.7 369.56C112.24 369.41 48.7001 343.67 46.9301 341.23C46.8701 341.15 46.8401 340.99 46.8301 340.76C46.8401 338.58 51.2401 330.93 54.9201 320.89C55.1501 320.25 56.7901 317.27 59.0701 313.25C65.3301 302.22 76.4001 283.33 76.4001 283.33L117.93 299.83L98.0501 329.59L94.9601 336.79C94.9601 336.79 114.45 356.93 116.1 359.82C117.73 362.7 117.15 369.7 114.7 369.56Z" fill="#EB9481"/>
<path d="M114.7 369.56C112.24 369.41 48.7001 343.67 46.9301 341.23C46.8701 341.15 46.8401 340.99 46.8301 340.76C46.8401 338.58 51.2401 330.93 54.9201 320.89C55.1501 320.25 56.7901 317.27 59.0701 313.25L98.0501 329.58L94.9601 336.78C94.9601 336.78 114.45 356.92 116.1 359.81C117.73 362.7 117.15 369.7 114.7 369.56Z" fill="white"/>
<path d="M114.7 369.55C112.24 369.41 48.7101 343.66 46.9401 341.22C46.2701 340.3 49.1101 331.62 54.9301 320.89L94.9601 336.79C94.9601 336.79 114.45 356.92 116.1 359.81C117.73 362.7 117.15 369.7 114.7 369.55Z" fill="#A6A6A6"/>
<path d="M114.801 366.72C104.511 362.3 62.5706 345.44 52.0606 341.86C51.9706 341.83 51.9506 341.89 52.0306 341.93C62.1406 346.53 104.211 363.05 114.731 366.9C114.961 366.97 115.021 366.81 114.801 366.72Z" fill="#263238"/>
<path d="M113.001 355.99C110.571 354.9 107.701 355.11 105.761 356.04C103.901 356.93 102.001 358.47 101.211 360.66C101.191 360.72 101.301 360.77 101.341 360.71C103.561 356.88 108.701 354.79 112.951 356.12C113.041 356.14 113.081 356.02 113.001 355.99Z" fill="#263238"/>
<path d="M98.5704 339.44C94.4304 337.71 89.0204 337.25 85.0704 339.62C84.9204 339.71 85.0504 339.93 85.2004 339.91C89.7404 339.48 93.8904 339.47 98.4404 339.98C98.7604 340.02 98.8704 339.57 98.5704 339.44Z" fill="#263238"/>
<path d="M101.281 341.98C97.1414 340.25 91.7314 339.79 87.7814 342.16C87.6314 342.25 87.7614 342.47 87.9114 342.45C92.4514 342.02 96.6014 342.01 101.151 342.52C101.471 342.56 101.581 342.11 101.281 341.98Z" fill="#263238"/>
<path d="M104 344.52C99.8601 342.8 94.4501 342.33 90.5001 344.7C90.3501 344.79 90.4801 345.01 90.6301 344.99C95.1701 344.56 99.3201 344.55 103.87 345.06C104.18 345.1 104.29 344.65 104 344.52Z" fill="#263238"/>
<path d="M106.711 347.06C102.571 345.33 97.1611 344.87 93.2111 347.24C93.0611 347.33 93.1911 347.55 93.3411 347.53C97.8811 347.1 102.031 347.09 106.581 347.6C106.891 347.64 107.001 347.19 106.711 347.06Z" fill="#263238"/>
<path d="M58.661 333.039C53.991 331.179 51.091 338.439 55.771 340.299C60.451 342.159 63.341 334.899 58.661 333.039Z" fill="#263238"/>
<path d="M107.521 330.139C106.111 327.549 102.781 328.189 100.751 329.489C97.4715 331.579 94.3815 335.119 92.7115 338.619C92.6715 338.709 92.7215 338.769 92.7915 338.789C92.7615 339.119 93.0115 339.519 93.4015 339.429C97.1815 338.569 101.341 338.109 104.741 336.119C106.731 334.939 108.851 332.589 107.521 330.139ZM98.8715 336.939C97.0215 337.409 95.1615 337.789 93.3215 338.319C94.8915 336.539 96.3815 334.709 98.1415 333.089C98.9815 332.319 99.8515 331.539 100.781 330.889C102.231 329.879 107.711 328.039 106.311 332.729C105.551 335.329 101.081 336.379 98.8715 336.939Z" fill="#263238"/>
<path d="M81.7498 336.019C85.1498 338.029 89.2998 338.489 93.0798 339.369C93.4698 339.459 93.7298 339.069 93.6998 338.739C93.7698 338.719 93.8198 338.659 93.7798 338.569C92.1198 335.069 89.0398 331.519 85.7598 329.419C83.7398 328.119 80.3998 327.469 78.9898 330.049C77.6498 332.489 79.7598 334.839 81.7498 336.019ZM80.1898 332.639C78.7998 327.939 84.2798 329.799 85.7298 330.819C86.6598 331.469 87.5298 332.249 88.3698 333.029C90.1198 334.649 91.5998 336.489 93.1698 338.269C91.3398 337.729 89.4798 337.349 87.6298 336.869C85.4198 336.299 80.9498 335.229 80.1898 332.639Z" fill="#263238"/>
<path d="M101.26 327.92L54.7695 309.15C54.7695 309.15 112.41 224.41 112.83 218.1C113.21 212.51 87.8895 163.89 86.8895 149.72C85.8095 134.43 93.1795 122.59 101.27 115.25L149.23 135.63C149.23 135.63 144.17 143.73 136.2 148.23C136.2 148.23 160.79 204.43 159.4 221.71C157.99 239.09 101.26 327.92 101.26 327.92Z" fill="#37474F"/>
<path d="M103.32 319.08C96.5996 316.19 98.5696 316.92 91.8096 314.11C88.4996 312.73 66.7796 303.7 63.4696 302.96C63.3996 302.94 63.3496 303.06 63.4096 303.1C66.2996 304.87 88.1796 313.52 91.5196 314.84C98.3296 317.52 96.3996 316.68 103.24 319.29C103.37 319.33 103.45 319.14 103.32 319.08Z" fill="#263238"/>
<path d="M144.089 147.21C139.089 148.28 134.189 150.05 129.479 151.95C129.299 152.02 129.379 152.3 129.579 152.24C134.479 150.81 139.469 149.47 144.279 147.78C144.659 147.64 144.469 147.13 144.089 147.21Z" fill="#263238"/>
<path d="M138.399 145.24C137.929 146.06 137.529 146.93 137.169 147.81C136.889 148.49 136.539 149.22 136.539 149.96C136.539 150.1 136.729 150.14 136.819 150.05C137.379 149.5 137.669 148.7 138.019 148.02C138.429 147.23 138.849 146.44 139.239 145.64C139.499 145.11 138.689 144.73 138.399 145.24Z" fill="#263238"/>
<path d="M138.979 140.73C139.269 139.99 139.569 139.26 139.879 138.52C140.199 137.76 140.569 137.02 140.839 136.24C140.879 136.12 141.079 136.2 141.029 136.32C140.739 137.06 140.549 137.85 140.309 138.61C140.069 139.37 139.829 140.13 139.569 140.89C139.099 142.3 138.529 143.7 137.919 145.06C138.699 145.05 139.509 145.02 140.219 144.66C140.989 144.27 141.459 143.45 141.839 142.71C142.259 141.88 142.649 141.04 143.089 140.22C143.569 139.31 144.099 138.42 144.419 137.44C144.459 137.32 144.649 137.4 144.609 137.52C143.889 139.54 143.179 141.57 142.049 143.43C141.609 144.16 141.249 144.93 140.439 145.21C139.569 145.52 138.609 145.46 137.699 145.39C137.589 145.42 137.439 145.35 137.479 145.21C137.919 143.72 138.399 142.19 138.979 140.73Z" fill="#263238"/>
<path d="M136.94 150.07C138.64 153.68 140.14 157.28 141.74 160.88C143.3 164.4 144.75 167.96 146.17 171.53C149.03 178.76 151.59 186.12 153.84 193.56C154.95 197.24 155.98 200.95 156.9 204.68C157.83 208.42 158.73 212.2 159.12 216.05C159.51 219.91 159.23 223.72 158.16 227.45C157.07 231.23 155.63 234.54 153.93 238.08C152.89 240.24 152.53 239.95 153.03 238.86C154.46 235.76 158.21 226.37 157.94 218.48C157.81 214.67 157.03 210.92 156.17 207.22C155.29 203.44 154.3 199.69 153.22 195.97C151.09 188.63 148.56 181.44 145.96 174.26C144.5 170.24 142.94 166.26 141.46 162.24C139.97 158.2 138.43 154.56 136.78 150.14C136.72 150.02 136.89 149.96 136.94 150.07Z" fill="#263238"/>
<path d="M101.65 138.13C102.48 137.82 103.64 138.33 104.49 138.47C105.58 138.65 106.68 138.76 107.78 138.8C108.87 138.84 109.96 138.79 111.05 138.69C112.13 138.58 113.24 138.45 114.18 137.86C115.77 136.87 117.09 135.13 118.17 133.62C119.35 131.97 120.58 130.07 121.28 128.16C121.32 128.04 121.49 128.12 121.46 128.24C121.11 129.35 120.85 130.48 120.4 131.57C119.98 132.59 119.44 133.57 118.87 134.52C117.8 136.28 116.57 138.17 114.73 139.22C112.8 140.32 110.32 140.25 108.17 140.13C106.93 140.06 105.69 139.89 104.47 139.64C103.59 139.45 102.11 139.31 101.55 138.54C101.43 138.4 101.49 138.19 101.65 138.13Z" fill="#263238"/>
<path d="M68.0388 300.29C75.6788 288.73 83.1788 277.07 90.5388 265.33C97.9188 253.56 105.169 241.7 112.319 229.78C114.029 226.93 115.999 224.08 117.099 220.92C118.299 217.49 117.619 214.16 116.529 210.81C114.539 204.65 112.069 198.66 109.389 192.77C106.709 186.86 103.819 181.05 100.979 175.22C98.1588 169.44 95.1688 163.63 93.0288 157.55C90.9888 151.74 90.2088 145.72 91.7788 139.7C93.3288 133.72 96.6888 128.36 100.199 123.35C101.129 122.03 102.069 120.72 102.999 119.4C103.069 119.3 103.219 119.42 103.149 119.52C99.2788 124.74 95.5088 130.27 93.2388 136.4C92.1188 139.43 91.3888 142.62 91.3188 145.85C91.2488 149.13 91.8588 152.39 92.8288 155.52C94.7088 161.6 97.6788 167.36 100.449 173.07C103.279 178.91 106.179 184.71 108.909 190.6C111.649 196.52 114.219 202.54 116.329 208.72C117.269 211.47 118.319 214.35 118.249 217.3C118.179 220.53 116.639 223.44 115.039 226.16C108.089 238.02 100.869 249.72 93.5688 261.36C86.2388 273.04 78.7588 284.64 71.1588 296.15C70.1988 297.6 69.2388 299.05 68.2788 300.5C68.1788 300.68 67.9188 300.47 68.0388 300.29Z" fill="#263238"/>
<path d="M151.89 81.7306C156.22 91.2306 178.08 104.321 188.32 105.731C195.69 106.741 218.06 107.091 225.73 105.921C234.72 104.551 227.85 80.2906 222.54 80.9106C207.94 82.6206 195.54 84.5205 191.65 84.5205C186.89 84.5205 161.14 76.2505 158.03 75.0905C150.44 72.2505 149.44 76.3506 151.89 81.7306Z" fill="#EB9481"/>
<path d="M152.03 84.2502C157.51 92.3602 175.73 105.62 175.73 105.62L178.26 100.02L186.63 81.5102C186.63 81.5102 169.9 76.2302 158.89 73.8802C157.4 73.5602 156.09 73.3702 154.95 73.3202C147.91 72.9302 147.3 77.2702 152.03 84.2502Z" fill="#FFC727"/>
<path d="M152.03 84.2502C157.51 92.3602 175.73 105.62 175.73 105.62L178.26 100.02C171.47 92.1302 160.98 80.1802 154.95 73.3102C147.91 72.9302 147.3 77.2702 152.03 84.2502Z" fill="#263238"/>
<path d="M172.441 101.87C173.831 98.47 180.011 84.74 181.551 81.86C181.661 81.66 181.811 81.68 181.721 81.9C177.801 92.19 174.101 98.65 172.571 101.92C172.541 102 172.401 101.96 172.441 101.87Z" fill="#263238"/>
<path d="M219.869 81.18C228.759 80.01 239.749 78.02 249.049 81.97C250.879 82.75 251.539 84.11 251.539 84.11C255.739 85.81 256.199 88.3 256.199 88.3C259.629 91.08 259.749 93.7 259.749 93.7C259.749 93.7 264.659 95.75 263.919 98.92C263.099 102.48 256.359 98.91 251.449 99.21C240.209 99.9 224.419 104.03 221.199 104.56L219.869 81.18Z" fill="#EB9481"/>
<path d="M239.158 91.6604C242.468 91.5204 245.718 91.3004 249.038 91.6104C252.678 91.9504 256.118 92.8904 259.638 93.7604C259.748 93.7904 259.798 93.6404 259.688 93.5904C253.548 91.0104 245.678 90.3304 239.148 91.5104C238.998 91.5404 238.998 91.6604 239.158 91.6604Z" fill="#263238"/>
<path d="M237.76 84.9299C240.99 84.9699 246.67 85.0899 256.17 88.3999C256.2 88.4099 256.23 88.3599 256.2 88.3499C250.32 85.3799 244.29 84.3199 237.77 84.7799C237.56 84.7899 237.54 84.9299 237.76 84.9299Z" fill="#263238"/>
<path d="M237.068 81.3095C242.558 81.5895 245.988 82.4695 251.508 84.1295C251.538 84.1395 251.568 84.0895 251.528 84.0695C245.448 81.5195 242.958 81.2895 237.048 81.1195C236.848 81.1095 236.858 81.2895 237.068 81.3095Z" fill="#263238"/>
<path d="M237.959 100.9C236.529 101.57 236.869 102.32 239.609 102.96C242.369 103.61 253.689 103.78 253.289 107.73C252.899 111.7 236.879 111.19 232.409 109.79C227.939 108.4 221.199 104.55 221.199 104.55C224.339 104.03 231.819 102.02 237.959 100.9Z" fill="#EB9481"/>
<path d="M163.782 96.8798C163.712 98.5898 163.542 100.33 163.302 102.05C163.322 101.99 163.352 101.93 163.372 101.87C163.702 100.97 164.032 100.05 164.432 99.1798C164.452 99.1298 164.532 99.1498 164.522 99.1998C164.342 100.14 164.012 101.09 163.652 101.98C163.482 102.41 163.302 102.83 163.122 103.25C163.002 104.02 162.862 104.78 162.702 105.53C162.402 106.96 161.052 113.04 160.752 114.07C160.692 114.29 160.432 114.24 160.442 114C160.512 112.88 161.652 106.54 161.882 105.11C162.322 102.36 162.932 99.5498 163.662 96.8598C163.692 96.7898 163.792 96.8198 163.782 96.8798Z" fill="#263238"/>
<path d="M153.361 142.34C150.691 143.72 147.251 145.85 131.751 142.79C130.781 142.59 129.811 142.36 128.831 142.06C114.301 137.69 96.8609 120.6 95.8809 119.4C95.8809 119.4 118.961 81.9695 148.491 70.1995C152.141 68.7495 158.181 71.5495 161.531 75.0395C162.721 76.2895 165.321 85.4695 164.321 92.9095C163.321 100.36 156.041 140.98 153.361 142.34Z" fill="#FFC727"/>
<path d="M151.301 92.5801C151.381 93.3801 151.321 94.1701 151.221 94.9501C151.101 95.7301 150.951 96.5001 150.651 97.2501C150.561 96.4501 150.631 95.6601 150.731 94.8801C150.841 94.1001 150.991 93.3301 151.301 92.5801Z" fill="white"/>
<path d="M141.233 118.07C141.313 118.87 141.253 119.66 141.153 120.44C141.033 121.22 140.883 121.99 140.583 122.74C140.493 121.94 140.563 121.15 140.663 120.37C140.783 119.59 140.933 118.82 141.233 118.07Z" fill="white"/>
<path d="M124.121 98.8096C124.201 99.6096 124.141 100.4 124.041 101.18C123.921 101.96 123.771 102.73 123.471 103.48C123.381 102.68 123.451 101.89 123.551 101.11C123.661 100.33 123.821 99.5596 124.121 98.8096Z" fill="white"/>
<path d="M157.893 116.78C157.973 117.58 157.913 118.37 157.813 119.15C157.693 119.93 157.543 120.7 157.243 121.45C157.153 120.65 157.223 119.86 157.323 119.08C157.443 118.3 157.593 117.53 157.893 116.78Z" fill="white"/>
<path d="M135.922 95.5C136.722 95.42 137.512 95.48 138.292 95.58C139.072 95.7 139.842 95.85 140.592 96.15C139.792 96.24 139.002 96.17 138.222 96.07C137.442 95.96 136.672 95.8 135.922 95.5Z" fill="white"/>
<path d="M116.502 113.92C117.302 113.84 118.092 113.9 118.872 114C119.652 114.12 120.422 114.27 121.172 114.57C120.372 114.66 119.582 114.59 118.802 114.49C118.022 114.37 117.252 114.22 116.502 113.92Z" fill="white"/>
<path d="M139.342 133.85C140.142 133.77 140.932 133.83 141.712 133.93C142.492 134.05 143.262 134.2 144.012 134.5C143.212 134.59 142.422 134.52 141.642 134.42C140.862 134.3 140.092 134.15 139.342 133.85Z" fill="white"/>
<path d="M110.512 126.61C111.312 126.53 112.102 126.59 112.882 126.69C113.662 126.81 114.432 126.96 115.182 127.26C114.382 127.35 113.592 127.28 112.812 127.18C112.032 127.06 111.262 126.91 110.512 126.61Z" fill="white"/>
<path d="M151.152 74.6699C151.952 74.5899 152.742 74.6499 153.522 74.7499C154.302 74.8699 155.072 75.0199 155.822 75.3199C155.022 75.4099 154.232 75.3399 153.452 75.2399C152.672 75.1199 151.902 74.9699 151.152 74.6699Z" fill="white"/>
<path d="M145.502 81.0498C144.992 81.6798 144.392 82.1898 143.772 82.6698C143.142 83.1398 142.492 83.5698 141.742 83.8898C142.252 83.2598 142.852 82.7498 143.472 82.2698C144.112 81.7998 144.762 81.3598 145.502 81.0498Z" fill="white"/>
<path d="M114.711 99.1699C114.201 99.7999 113.601 100.31 112.981 100.79C112.351 101.26 111.701 101.69 110.951 102.01C111.461 101.38 112.061 100.87 112.681 100.39C113.311 99.9299 113.971 99.4899 114.711 99.1699Z" fill="white"/>
<path d="M153.162 107.36C152.652 107.99 152.052 108.5 151.432 108.98C150.802 109.45 150.152 109.88 149.402 110.2C149.912 109.57 150.512 109.06 151.132 108.58C151.762 108.12 152.412 107.68 153.162 107.36Z" fill="white"/>
<path d="M128.262 123.04C127.752 123.67 127.152 124.18 126.532 124.66C125.902 125.13 125.252 125.56 124.502 125.88C125.012 125.25 125.612 124.74 126.232 124.26C126.862 123.79 127.512 123.36 128.262 123.04Z" fill="white"/>
<path d="M162.701 85.9297C162.191 86.5597 161.591 87.0697 160.971 87.5497C160.341 88.0197 159.691 88.4497 158.941 88.7697C159.451 88.1397 160.051 87.6297 160.671 87.1497C161.301 86.6897 161.951 86.2497 162.701 85.9297Z" fill="white"/>
<path d="M162.172 104.11C161.542 103.6 161.032 103 160.552 102.38C160.082 101.75 159.652 101.1 159.332 100.35C159.962 100.86 160.472 101.46 160.952 102.08C161.422 102.71 161.862 103.37 162.172 104.11Z" fill="white"/>
<path d="M106.682 116.62C106.052 116.11 105.542 115.51 105.062 114.89C104.592 114.26 104.162 113.61 103.842 112.86C104.472 113.37 104.982 113.97 105.462 114.59C105.932 115.23 106.362 115.88 106.682 116.62Z" fill="white"/>
<path d="M155.432 131.52C154.802 131.01 154.292 130.41 153.812 129.79C153.342 129.16 152.912 128.51 152.592 127.76C153.222 128.27 153.732 128.87 154.212 129.49C154.682 130.12 155.112 130.78 155.432 131.52Z" fill="white"/>
<path d="M131.002 89.0696C130.372 88.5596 129.862 87.9596 129.382 87.3396C128.912 86.7096 128.482 86.0596 128.162 85.3096C128.792 85.8196 129.302 86.4196 129.782 87.0396C130.242 87.6696 130.682 88.3296 131.002 89.0696Z" fill="white"/>
<path d="M131.432 140C130.802 139.49 130.292 138.89 129.812 138.27C129.342 137.64 128.912 136.99 128.592 136.24C129.222 136.75 129.732 137.35 130.212 137.97C130.682 138.6 131.112 139.25 131.432 140Z" fill="white"/>
<path d="M135.582 109.949C134.952 109.439 134.442 108.839 133.962 108.219C133.492 107.589 133.062 106.939 132.742 106.189C133.372 106.699 133.882 107.299 134.362 107.919C134.832 108.559 135.272 109.209 135.582 109.949Z" fill="white"/>
<path d="M156.11 85.0098C152.35 84.3098 148.8 76.5198 148.35 71.2798C148.32 70.9198 150.11 68.0698 152.12 64.4998C153.33 62.3298 154.63 59.8798 155.65 57.5698C155.86 57.0898 157.09 58.6798 157.09 58.6798L159.77 60.7298L168.62 67.5198C168.62 67.5198 165.04 71.7498 163.28 75.7998C163.14 76.1398 163.03 76.4698 162.96 76.7998C162.95 76.8498 162.94 76.8998 162.91 76.9698C162.43 78.8998 159.74 85.6898 156.11 85.0098Z" fill="#EB9481"/>
<path d="M162.98 76.7994C162.97 76.8494 162.96 76.8994 162.93 76.9694C162.45 76.8294 161.94 76.6394 161.4 76.3894C151.71 71.8494 155.98 58.8594 155.98 58.8594L159.77 60.7394L168.62 67.5294C168.62 67.5294 165.04 71.7594 163.28 75.8094C163.15 76.1394 163.05 76.4694 162.98 76.7994Z" fill="#263238"/>
<path d="M178.801 39.8496C178.801 39.8496 183.231 42.6596 183.261 47.6596C183.291 52.6596 181.301 57.5496 180.841 57.7196C180.371 57.8996 178.801 39.8496 178.801 39.8496Z" fill="#263238"/>
<path d="M156.821 42.4396C154.161 47.6996 154.291 64.2396 157.621 68.4996C162.441 74.6796 171.721 76.8096 177.331 70.6996C182.761 64.7796 182.211 43.2196 178.361 39.1996C172.701 33.2896 160.761 34.6796 156.821 42.4396Z" fill="#EB9481"/>
<path d="M170.939 55.6997C170.929 55.6597 170.849 55.7597 170.859 55.7997C170.919 56.9297 170.799 58.2297 169.789 58.6297C169.759 58.6397 169.759 58.6997 169.799 58.6897C171.039 58.4797 171.179 56.7597 170.939 55.6997Z" fill="#263238"/>
<path d="M169.909 54.5401C168.089 54.4401 168.039 58.0901 169.719 58.1701C171.369 58.2601 171.429 54.6201 169.909 54.5401Z" fill="#263238"/>
<path d="M177.11 55.6594C177.12 55.6194 177.2 55.7094 177.2 55.7594C177.15 56.8894 177.27 58.1894 178.29 58.5794C178.32 58.5894 178.32 58.6494 178.28 58.6394C177.03 58.4394 176.88 56.7194 177.11 55.6594Z" fill="#263238"/>
<path d="M178.14 54.4897C179.96 54.3797 180.04 58.0197 178.36 58.1197C176.7 58.2297 176.62 54.5897 178.14 54.4897Z" fill="#263238"/>
<path d="M168.77 51.7702C169.27 51.6502 169.71 51.4602 170.19 51.3002C170.73 51.1102 171.18 51.0202 171.54 50.5402C171.73 50.2802 171.66 49.8202 171.43 49.6102C170.89 49.1202 170.17 49.1802 169.51 49.3802C168.79 49.6002 168.29 49.9502 167.87 50.5702C167.47 51.1702 168.11 51.9302 168.77 51.7702Z" fill="#263238"/>
<path d="M179.399 53.3898C178.899 53.2998 178.449 53.1298 177.959 52.9898C177.409 52.8298 176.949 52.7598 176.569 52.2998C176.359 52.0498 176.409 51.5898 176.629 51.3598C177.139 50.8398 177.859 50.8698 178.539 51.0298C179.269 51.2098 179.779 51.5298 180.239 52.1298C180.669 52.7098 180.059 53.4998 179.399 53.3898Z" fill="#263238"/>
<path d="M168.37 66.3802C168.64 66.6502 168.9 67.0202 169.31 67.0602C169.7 67.1002 170.16 66.9302 170.53 66.8002C170.57 66.7902 170.6 66.8302 170.58 66.8602C170.28 67.2902 169.66 67.5502 169.14 67.4502C168.63 67.3502 168.39 66.9102 168.27 66.4402C168.25 66.3702 168.34 66.3402 168.37 66.3802Z" fill="#263238"/>
<path d="M174.921 61.5607C174.921 61.5607 174.971 63.2507 174.881 64.0307C174.871 64.1007 172.661 63.6707 170.281 64.1907C169.921 64.2707 169.961 63.9807 170.371 63.7907C171.201 63.4107 172.241 63.0507 174.281 63.2707C174.361 63.0607 174.161 60.6707 174.281 60.6807C174.711 60.6907 175.531 61.0707 176.021 61.2807C176.021 57.7607 175.461 54.2707 175.511 50.7707C175.511 50.6407 175.701 50.6307 175.721 50.7407C176.571 54.3607 176.651 58.4107 176.751 62.0407C176.771 62.5007 175.221 61.7307 174.921 61.5607Z" fill="#263238"/>
<path d="M172.67 63.4302C172.67 63.4302 171.88 65.4102 170.57 65.9402C169.06 66.5502 168.54 65.1802 170.08 63.9702C170.9 63.3402 172.67 63.4302 172.67 63.4302Z" fill="#263238"/>
<path d="M171.1 65.6305C170.93 65.7605 170.76 65.8705 170.57 65.9405C169.18 66.5005 168.63 65.3905 169.75 64.2705C170.51 64.3305 171.34 64.6105 171.1 65.6305Z" fill="#FF99BA"/>
<path d="M156.059 56.6002C157.889 57.1602 159.989 51.6602 160.589 49.5502C161.109 47.6902 161.719 41.7802 161.809 41.3702C161.899 40.9702 169.779 46.6002 174.389 45.2502C178.999 43.9002 182.079 39.7702 182.139 37.8402C182.199 35.9102 176.479 31.0102 171.529 30.7602C166.579 30.5102 159.879 36.8002 159.879 36.8002C159.879 36.8002 162.159 34.0802 162.079 33.8602C161.999 33.6402 158.799 34.9202 158.209 37.1902C158.209 37.1902 158.839 34.3302 158.599 34.2802C158.359 34.2302 155.869 36.6802 156.429 38.5302C156.429 38.5302 153.549 41.0202 153.289 43.7502C153.019 46.4802 153.909 55.9402 156.059 56.6002Z" fill="#263238"/>
<path d="M177.66 44.2905C176.26 44.9305 174.85 45.6405 173.31 45.8505C171.64 46.0705 169.9 45.6505 168.34 45.0505C166.75 44.4405 165.3 43.5505 163.98 42.4705C162.83 41.5205 161.8 40.3805 160.57 39.5305C160.26 39.3205 159.91 39.7605 160.09 40.0505C161.96 42.8505 165.27 45.2005 168.45 46.2105C171.8 47.2705 174.96 46.5305 177.67 44.3305C177.69 44.3105 177.68 44.2805 177.66 44.2905Z" fill="#263238"/>
<path d="M157.97 56.1103C157.97 56.1103 155.13 50.3503 152.57 51.2803C150.01 52.2103 151.59 60.1803 154.2 61.6303C156.81 63.0903 158.21 60.7003 158.21 60.7003L157.97 56.1103Z" fill="#EB9481"/>
<path d="M153.08 53.5499C153.04 53.5399 153.02 53.5999 153.05 53.6199C154.87 54.7099 155.62 56.6699 156.05 58.6399C155.58 57.8299 154.86 57.3199 153.79 57.8599C153.73 57.8899 153.77 57.9799 153.83 57.9699C154.65 57.9199 155.21 58.1499 155.65 58.8699C155.96 59.3799 156.13 59.9899 156.33 60.5499C156.39 60.7399 156.72 60.6899 156.69 60.4799C156.69 60.4599 156.68 60.4499 156.68 60.4299C157.1 57.9699 155.7 54.2099 153.08 53.5499Z" fill="#263238"/>
<path d="M139.221 81.8201C137.261 93.1501 149.501 131.32 157.371 138.45C169.081 149.05 190.731 156.02 198.581 158.29C202.001 159.28 211.461 135.22 208.001 133.63C200.591 130.24 177.571 123.06 175.401 121.21C173.231 119.37 160.001 100.33 154.121 89.3601C146.241 74.6401 140.211 76.0901 139.221 81.8201Z" fill="#EB9481"/>
<path d="M202.172 131.521C202.172 131.521 212.382 134.121 218.982 136.141C222.662 137.261 228.802 139.761 231.132 141.821C234.612 144.911 247.192 160.031 243.592 163.161C240.332 165.991 231.172 151.62 231.172 151.62C231.172 151.62 241.692 165.301 237.142 167.991C232.592 170.681 224.402 153.071 224.402 153.071C224.402 153.071 234.902 167.37 229.762 169.4C225.882 170.93 217.562 155.4 217.562 155.4C217.562 155.4 226.502 167.751 222.582 169.501C218.252 171.431 209.672 157.581 209.672 157.581C198.952 160.351 192.722 157.281 188.542 154.571C187.532 153.931 202.172 131.521 202.172 131.521Z" fill="#EB9481"/>
<path d="M227.834 146.66C229.124 148.22 230.444 149.8 231.604 151.47C232.754 153.14 233.844 154.86 234.834 156.63C237.264 160.98 238.104 164.08 238.034 163.89C236.314 159.49 232.284 153.44 231.134 151.77C229.984 150.1 228.924 148.37 227.774 146.7C227.744 146.66 227.804 146.62 227.834 146.66Z" fill="#263238"/>
<path d="M221.723 150.7C223.943 152.46 228.593 159.01 230.393 163.39C230.473 163.57 230.373 163.56 230.263 163.39C228.853 161.22 223.183 152.82 221.673 150.73C221.643 150.71 221.693 150.68 221.723 150.7Z" fill="#263238"/>
<path d="M215.853 153.23C218.423 155.77 220.573 159.24 222.273 163.25C222.353 163.43 222.203 163.4 222.103 163.23C220.033 159.86 218.433 157.2 215.753 153.31C215.703 153.26 215.793 153.17 215.853 153.23Z" fill="#263238"/>
<path d="M150.35 82.6604C141.22 69.7504 135.76 74.5304 137.59 88.5504C139.3 101.66 143.9 117.28 143.9 117.28L166.94 106.12C166.94 106.11 156.19 90.9204 150.35 82.6604Z" fill="#FFC727"/>
<path d="M155.929 87.7305C156.259 88.4705 156.429 89.2305 156.579 90.0105C156.709 90.7805 156.799 91.5705 156.739 92.3705C156.409 91.6305 156.229 90.8705 156.089 90.0905C155.959 89.3205 155.869 88.5405 155.929 87.7305Z" fill="white"/>
<path d="M142.299 95.5897C143.039 95.2597 143.809 95.0897 144.579 94.9397C145.349 94.8097 146.139 94.7197 146.939 94.7797C146.199 95.1097 145.439 95.2897 144.659 95.4297C143.879 95.5497 143.099 95.6397 142.299 95.5897Z" fill="white"/>
<path d="M142.89 75.5C142.6 76.25 142.18 76.92 141.74 77.57C141.28 78.21 140.79 78.82 140.18 79.35C140.47 78.6 140.89 77.93 141.33 77.28C141.79 76.65 142.28 76.03 142.89 75.5Z" fill="white"/>
<path d="M162.329 101.62C162.039 102.37 161.619 103.04 161.179 103.69C160.719 104.33 160.229 104.94 159.619 105.47C159.909 104.72 160.329 104.05 160.769 103.4C161.229 102.76 161.719 102.15 162.329 101.62Z" fill="white"/>
<path d="M146.389 109.45C145.639 109.16 144.969 108.74 144.319 108.3C143.679 107.84 143.069 107.35 142.539 106.74C143.289 107.03 143.959 107.45 144.609 107.89C145.249 108.35 145.859 108.84 146.389 109.45Z" fill="white"/>
<path d="M153.41 86.5407C154.64 88.2307 155.91 89.8807 157.17 91.5407C156.85 90.7007 156.57 89.8607 156.32 88.9907C156.31 88.9507 156.37 88.9307 156.38 88.9707C156.64 89.6307 156.92 90.2907 157.17 90.9507C157.29 91.2707 157.41 91.5907 157.53 91.9107C157.56 91.9807 157.58 92.0507 157.61 92.1207C158.6 93.4107 159.58 94.7107 160.52 96.0307C161.65 97.6007 162.74 99.2107 163.84 100.811C164.97 102.461 166.05 104.401 167.24 106.011C167.34 106.151 165.2 107.011 165 107.131C164.8 107.241 164.66 107.051 164.87 106.981C165.07 106.921 166.77 105.881 166.79 105.851C165.69 104.241 164.42 102.751 163.27 101.171C162.13 99.6007 160.98 98.0407 159.87 96.4407C157.62 93.2007 155.55 89.8407 153.32 86.5907C153.32 86.5407 153.38 86.5007 153.41 86.5407Z" fill="#263238"/>
<path d="M138.161 97.8205C138.511 98.5005 138.891 99.1805 139.201 99.8805C139.331 100.171 139.451 100.461 139.581 100.751C139.051 98.2505 138.541 95.7605 138.031 93.2605C138.021 93.2305 138.071 93.2205 138.081 93.2505C139.141 97.3005 140.201 101.341 141.181 105.411C142.121 109.291 143.241 113.211 143.781 117.171C144.101 117.061 145.891 116.321 145.941 116.441C145.991 116.561 143.601 117.691 143.561 117.591C142.261 113.731 141.451 109.331 140.561 105.361C140.311 104.241 140.081 103.121 139.841 101.991C139.581 101.311 139.271 100.661 138.961 100.011C138.631 99.3105 138.371 98.5905 138.091 97.8705C138.071 97.8105 138.141 97.7805 138.161 97.8205Z" fill="#263238"/>
<path d="M144.27 113.42C147.47 111.61 160.84 104.69 163.84 103.39C164.05 103.3 164.16 103.41 163.95 103.53C154.49 109.17 147.58 111.93 144.35 113.55C144.26 113.58 144.18 113.47 144.27 113.42Z" fill="#263238"/>
<path d="M510.701 376.32H206.021L250.071 126.47H554.751L510.701 376.32Z" fill="#FFC727"/>
<path d="M354.352 100.59H254.642L250.072 126.47H356.782L354.352 100.59Z" fill="#FFC727"/>
<g opacity="0.1">
<path opacity="0.1" d="M510.701 376.32H206.021L250.071 126.47H554.751L510.701 376.32Z" fill="black"/>
<path opacity="0.1" d="M354.352 100.59H254.642L250.072 126.47H356.782L354.352 100.59Z" fill="black"/>
</g>
<path d="M243.881 111.15C243.491 109.7 243.401 108.25 243.381 106.8C243.391 105.35 243.481 103.9 243.881 102.45C244.281 103.9 244.371 105.35 244.381 106.8C244.361 108.25 244.271 109.7 243.881 111.15Z" fill="#263238"/>
<path d="M235.022 113.71C233.952 112.65 233.152 111.44 232.412 110.19C231.702 108.93 231.052 107.63 230.672 106.17C231.742 107.23 232.542 108.44 233.282 109.69C233.982 110.96 234.632 112.26 235.022 113.71Z" fill="#263238"/>
<path d="M228.62 120.36C227.17 119.98 225.87 119.33 224.6 118.62C223.35 117.88 222.14 117.08 221.08 116.01C222.53 116.39 223.83 117.04 225.1 117.75C226.35 118.49 227.56 119.29 228.62 120.36Z" fill="#263238"/>
<path d="M226.411 129.311C224.961 129.701 223.511 129.791 222.061 129.811C220.611 129.801 219.161 129.711 217.711 129.311C219.161 128.911 220.611 128.821 222.061 128.811C223.511 128.831 224.961 128.921 226.411 129.311Z" fill="#263238"/>
<path d="M228.972 138.17C227.912 139.24 226.702 140.04 225.452 140.78C224.192 141.49 222.892 142.14 221.432 142.52C222.492 141.45 223.702 140.65 224.952 139.91C226.222 139.21 227.522 138.56 228.972 138.17Z" fill="#263238"/>
<path d="M235.621 144.57C235.241 146.02 234.591 147.32 233.881 148.59C233.141 149.84 232.341 151.05 231.271 152.11C231.651 150.66 232.301 149.36 233.011 148.09C233.761 146.84 234.561 145.63 235.621 144.57Z" fill="#263238"/>
<path d="M244.58 146.78C244.97 148.23 245.06 149.68 245.08 151.13C245.07 152.58 244.98 154.03 244.58 155.48C244.18 154.03 244.09 152.58 244.08 151.13C244.1 149.68 244.18 148.23 244.58 146.78Z" fill="#263238"/>
<path d="M253.441 144.21C254.511 145.27 255.311 146.48 256.051 147.73C256.761 148.99 257.411 150.29 257.791 151.75C256.721 150.69 255.921 149.48 255.181 148.23C254.471 146.97 253.821 145.67 253.441 144.21Z" fill="#263238"/>
<path d="M259.83 137.57C261.28 137.95 262.58 138.6 263.85 139.31C265.1 140.05 266.31 140.85 267.37 141.92C265.92 141.54 264.62 140.89 263.35 140.18C262.1 139.43 260.89 138.63 259.83 137.57Z" fill="#263238"/>
<path d="M262.041 128.61C263.491 128.22 264.941 128.13 266.391 128.11C267.841 128.12 269.291 128.21 270.741 128.61C269.291 129.01 267.841 129.1 266.391 129.11C264.941 129.09 263.491 129.01 262.041 128.61Z" fill="#263238"/>
<path d="M259.48 119.75C260.54 118.68 261.75 117.88 263 117.14C264.26 116.43 265.56 115.78 267.02 115.4C265.96 116.47 264.75 117.27 263.5 118.01C262.23 118.72 260.93 119.37 259.48 119.75Z" fill="#263238"/>
<path d="M252.83 113.36C253.21 111.91 253.86 110.61 254.57 109.34C255.31 108.09 256.11 106.88 257.18 105.82C256.8 107.27 256.15 108.57 255.44 109.84C254.7 111.09 253.9 112.3 252.83 113.36Z" fill="#263238"/>
<path d="M510.251 376.32H204.911L161.561 135.54H466.901L510.251 376.32Z" fill="#FFC727"/>
<path d="M267.37 282.73C274.378 282.73 280.06 277.048 280.06 270.04C280.06 263.031 274.378 257.35 267.37 257.35C260.361 257.35 254.68 263.031 254.68 270.04C254.68 277.048 260.361 282.73 267.37 282.73Z" fill="#263238"/>
<path d="M367.69 282.73C374.698 282.73 380.38 277.048 380.38 270.04C380.38 263.031 374.698 257.35 367.69 257.35C360.682 257.35 355 263.031 355 270.04C355 277.048 360.682 282.73 367.69 282.73Z" fill="#263238"/>
<path d="M335.76 284.75L335.06 283.42C335 283.3 328.44 271.18 315.25 271.18C303.22 271.18 300.29 282.59 300.17 283.08L299.81 284.53L296.9 283.83L297.25 282.37C297.28 282.23 300.82 268.18 315.25 268.18C330.29 268.18 337.42 281.46 337.72 282.03L338.42 283.36L335.76 284.75Z" fill="#263238"/>
<path d="M489.99 268.58C490.64 268.44 491.29 268.29 491.94 268.12" stroke="#263238" stroke-miterlimit="10"/>
<path d="M495.771 266.99C511.071 261.82 523.881 249.79 525.081 235.73C527.741 204.73 489.981 187.61 493.881 151.78C497.601 117.61 533.441 115.17 547.811 119.89C563.681 125.11 558.241 140.36 543.871 138.39C518.961 134.98 503.301 107.9 515.131 77.1797C523.971 54.2297 546.001 45.5697 554.951 42.9297" stroke="#263238" stroke-miterlimit="10" stroke-dasharray="4 4"/>
<path d="M556.9 42.41C558.14 42.09 558.84 41.96 558.84 41.96" stroke="#263238" stroke-miterlimit="10"/>
<path d="M574.699 36.4303C572.149 28.5303 555.069 31.3703 558.399 41.6903C561.739 52.0203 577.249 44.3303 574.699 36.4303Z" fill="#263238"/>
<path d="M549.11 33.2403C549.24 29.7703 554.06 27.1103 560.88 28.3403C567.7 29.5703 574.12 34.1603 574.12 34.1603C574.12 34.1603 567.38 38.2803 560.49 39.0103C553.6 39.7403 548.98 36.7303 549.11 33.2403Z" fill="#EBEBEB"/>
<path d="M574.11 34.1597C570.57 34.1797 567.04 34.0697 563.5 33.9597C559.97 33.8097 556.43 33.6697 552.91 33.3797C556.45 33.3497 559.98 33.4697 563.52 33.5797C567.05 33.7397 570.59 33.8797 574.11 34.1597Z" fill="#263238"/>
<path d="M555.961 30.1699C556.981 30.6299 557.931 31.2099 558.881 31.7799C559.811 32.3899 560.751 32.9899 561.611 33.7099C560.591 33.2499 559.641 32.6699 558.691 32.0999C557.761 31.4899 556.821 30.8899 555.961 30.1699Z" fill="#263238"/>
<path d="M565.23 33.8398C564.33 34.5998 563.36 35.2398 562.39 35.8898C561.4 36.4998 560.41 37.1198 559.35 37.6198C560.25 36.8598 561.22 36.2198 562.19 35.5698C563.18 34.9598 564.17 34.3398 565.23 33.8398Z" fill="#263238"/>
<path d="M566.26 31.8799C566.79 32.1099 567.23 32.4499 567.67 32.7799C568.09 33.1399 568.51 33.4999 568.85 33.9699C568.32 33.7399 567.88 33.3999 567.44 33.0699C567.02 32.7099 566.59 32.3499 566.26 31.8799Z" fill="#263238"/>
<path d="M555.611 53.82C557.741 56.56 563.211 55.9 568.021 50.92C572.831 45.94 575.351 38.46 575.351 38.46C575.351 38.46 567.471 39.06 561.461 42.5C555.451 45.92 553.471 51.07 555.611 53.82Z" fill="#EBEBEB"/>
<path d="M575.352 38.4502C572.462 40.5002 569.672 42.6602 566.862 44.8202C564.082 47.0102 561.302 49.1902 558.602 51.4802C561.492 49.4302 564.282 47.2702 567.092 45.1102C569.872 42.9202 572.652 40.7402 575.352 38.4502Z" fill="#263238"/>
<path d="M562.961 52.3001C563.521 51.3301 563.951 50.3001 564.391 49.2801C564.791 48.2401 565.201 47.2101 565.471 46.1201C564.911 47.0901 564.481 48.1201 564.041 49.1401C563.641 50.1801 563.231 51.2101 562.961 52.3001Z" fill="#263238"/>
<path d="M568.332 43.9098C567.162 43.8198 565.992 43.8698 564.832 43.9098C563.672 43.9898 562.502 44.0598 561.352 44.2798C562.522 44.3698 563.692 44.3198 564.852 44.2798C566.022 44.1998 567.182 44.1298 568.332 43.9098Z" fill="#263238"/>
<path d="M570.312 44.8904C570.613 44.4004 570.762 43.8704 570.932 43.3404C571.062 42.8004 571.193 42.2604 571.193 41.6904C570.893 42.1804 570.743 42.7104 570.573 43.2404C570.443 43.7804 570.312 44.3204 570.312 44.8904Z" fill="#263238"/>
<path d="M574.699 36.43C573.129 36.94 571.439 36.07 570.929 34.5C570.419 32.93 571.289 31.24 572.859 30.73C574.429 30.22 576.119 31.09 576.629 32.66C577.139 34.23 576.269 35.92 574.699 36.43Z" fill="#455A64"/>
<path d="M576.541 42.1302C574.971 42.6402 573.281 41.7702 572.771 40.2002C572.261 38.6302 573.131 36.9402 574.701 36.4302C576.271 35.9202 577.961 36.7902 578.471 38.3602C578.981 39.9402 578.111 41.6202 576.541 42.1302Z" fill="#455A64"/>
<path d="M248.69 39.5901C247.26 53.2801 234.99 63.2201 221.31 61.7901C215.78 61.2101 210.86 58.8601 207.05 55.3601L194.58 57.1901L200.82 46.4101C199.31 42.7301 198.67 38.6301 199.11 34.4101C200.54 20.7201 212.81 10.7801 226.49 12.2101C240.18 13.6301 250.13 25.9001 248.69 39.5901Z" fill="white"/>
<path d="M248.69 39.5901C248.17 44.1401 246.51 48.6001 243.66 52.2201C243.01 53.1701 242.16 53.9601 241.4 54.8201C240.53 55.5701 239.73 56.4001 238.77 57.0501C236.95 58.4501 234.9 59.5501 232.76 60.4001C230.63 61.3001 228.34 61.7301 226.05 62.0001C224.9 62.0601 223.74 62.1701 222.59 62.0701C221.43 62.0401 220.28 61.9201 219.14 61.7101C214.58 60.8801 210.26 58.7501 206.81 55.6201L207.1 55.7101L194.64 57.6201L193.74 57.7601L194.2 56.9601L200.4 46.1601L200.37 46.5901C197.35 39.4801 198.03 31.0001 201.91 24.3801C203.84 21.0601 206.54 18.2001 209.72 16.0701C212.9 13.9301 216.58 12.5901 220.36 12.0801C224.14 11.5801 228.02 11.9201 231.63 13.1201C235.23 14.3301 238.54 16.3701 241.24 19.0101C246.74 24.2301 249.5 32.0801 248.69 39.5901ZM248.69 39.5901C249.45 32.0801 246.63 24.2801 241.12 19.1201C238.39 16.5401 235.08 14.5801 231.51 13.4501C227.93 12.3301 224.11 12.0601 220.42 12.6201C216.74 13.1901 213.17 14.5601 210.13 16.6901C207.09 18.8301 204.53 21.6201 202.67 24.8201C200.78 28.0201 199.8 31.6901 199.51 35.3701C199.28 39.0601 199.88 42.8001 201.26 46.2301L201.35 46.4501L201.23 46.6501L194.95 57.4101L194.5 56.7501L207 55.0001L207.17 54.9801L207.29 55.1001C210.59 58.2001 214.76 60.3601 219.22 61.2501C220.33 61.4701 221.46 61.6201 222.6 61.6601C223.74 61.7801 224.87 61.7001 226.01 61.6501C228.27 61.4201 230.54 61.0401 232.67 60.1801C234.8 59.3801 236.87 58.3301 238.68 56.9401C239.64 56.3001 240.44 55.4901 241.31 54.7401C242.08 53.8901 242.92 53.1101 243.58 52.1701C246.45 48.5701 248.14 44.1301 248.69 39.5901Z" fill="#263238"/>
<path d="M211.721 48.6104C211.721 47.1204 212.751 46.0504 214.161 46.0504C215.651 46.0504 216.601 47.1204 216.601 48.6104C216.601 50.0604 215.651 51.1703 214.161 51.1703C212.711 51.1803 211.721 50.0604 211.721 48.6104ZM212.751 42.7004L212.171 22.8604H216.141L215.561 42.7004H212.751Z" fill="#FFC727"/>
<path d="M221.221 48.6104C221.221 47.1204 222.251 46.0504 223.661 46.0504C225.151 46.0504 226.101 47.1204 226.101 48.6104C226.101 50.0604 225.151 51.1703 223.661 51.1703C222.221 51.1803 221.221 50.0604 221.221 48.6104ZM222.261 42.7004L221.681 22.8604H225.651L225.071 42.7004H222.261Z" fill="#FFC727"/>
<path d="M230.73 48.6104C230.73 47.1204 231.76 46.0504 233.17 46.0504C234.66 46.0504 235.61 47.1204 235.61 48.6104C235.61 50.0604 234.66 51.1703 233.17 51.1703C231.72 51.1803 230.73 50.0604 230.73 48.6104ZM231.77 42.7004L231.19 22.8604H235.16L234.58 42.7004H231.77Z" fill="#FFC727"/>
</g>
<defs>
<clipPath id="clip0_1089_128">
<rect width="611.94" height="400.98" fill="white"/>
</clipPath>
</defs>
</svg>
