<svg width="23" height="16" viewBox="0 0 23 16" fill="none" xmlns="http://www.w3.org/2000/svg">
<path d="M0 1.04348C0 0.766731 0.109937 0.501318 0.305628 0.305628C0.501318 0.109937 0.766731 0 1.04348 0H21.2174C21.4941 0 21.7596 0.109937 21.9552 0.305628C22.1509 0.501318 22.2609 0.766731 22.2609 1.04348C22.2609 1.32023 22.1509 1.58564 21.9552 1.78133C21.7596 1.97702 21.4941 2.08696 21.2174 2.08696H1.04348C0.766731 2.08696 0.501318 1.97702 0.305628 1.78133C0.109937 1.58564 0 1.32023 0 1.04348Z" fill="black"/>
<path d="M0 8.00002C0 7.72327 0.109937 7.45786 0.305628 7.26217C0.501318 7.06648 0.766731 6.95654 1.04348 6.95654H21.2174C21.4941 6.95654 21.7596 7.06648 21.9552 7.26217C22.1509 7.45786 22.2609 7.72327 22.2609 8.00002C22.2609 8.27677 22.1509 8.54218 21.9552 8.73787C21.7596 8.93356 21.4941 9.0435 21.2174 9.0435H1.04348C0.766731 9.0435 0.501318 8.93356 0.305628 8.73787C0.109937 8.54218 0 8.27677 0 8.00002Z" fill="black"/>
<path d="M1.04348 13.913C0.766731 13.913 0.501318 14.023 0.305628 14.2187C0.109937 14.4143 0 14.6798 0 14.9565C0 15.2333 0.109937 15.4987 0.305628 15.6944C0.501318 15.89 0.766731 16 1.04348 16H21.2174C21.4941 16 21.7596 15.89 21.9552 15.6944C22.1509 15.4987 22.2609 15.2333 22.2609 14.9565C22.2609 14.6798 22.1509 14.4143 21.9552 14.2187C21.7596 14.023 21.4941 13.913 21.2174 13.913H1.04348Z" fill="black"/>
</svg>
