<svg width="46" height="41" viewBox="0 0 46 41" fill="none" xmlns="http://www.w3.org/2000/svg">
<path d="M29.5733 29.75H12.3968L12.7803 31.625H28.5079C29.4103 31.625 30.0792 32.4629 29.8792 33.3429L29.5559 34.7653C30.6511 35.2969 31.4062 36.4196 31.4062 37.7187C31.4062 39.547 29.911 41.026 28.0767 40.9996C26.3293 40.9745 24.8921 39.5564 24.845 37.8094C24.8192 36.8551 25.2015 35.9901 25.8295 35.3749H13.5455C14.1535 35.9706 14.5312 36.8003 14.5312 37.7187C14.5312 39.5828 12.9769 41.0838 11.0936 40.9964C9.42129 40.9187 8.06127 39.5676 7.97338 37.8958C7.90553 36.6047 8.58486 35.4668 9.61699 34.8731L5.50096 14.75H1.40625C0.62959 14.75 0 14.1204 0 13.3437V12.4062C0 11.6296 0.62959 11 1.40625 11H7.41381C8.08183 11 8.65763 11.47 8.79152 12.1244L9.32859 14.75H32.3432C33.2456 14.75 33.9144 15.5879 33.7144 16.4679L30.9445 28.6554C30.799 29.2957 30.2299 29.75 29.5733 29.75ZM23.9062 20.8437H21.0937V18.5C21.0937 17.9822 20.674 17.5625 20.1562 17.5625H19.2187C18.701 17.5625 18.2812 17.9822 18.2812 18.5V20.8437H15.4687C14.951 20.8437 14.5312 21.2635 14.5312 21.7812V22.7187C14.5312 23.2365 14.951 23.6562 15.4687 23.6562H18.2812V26C18.2812 26.5178 18.701 26.9375 19.2187 26.9375H20.1562C20.674 26.9375 21.0937 26.5178 21.0937 26V23.6562H23.9062C24.424 23.6562 24.8437 23.2365 24.8437 22.7187V21.7812C24.8437 21.2635 24.424 20.8437 23.9062 20.8437Z" fill="white"/>
<circle cx="33.5" cy="12.5" r="12.5" fill="#F54253"/>
<path d="M28.9111 18V16.488C29.6431 15.804 30.3091 15.168 30.9091 14.58C31.5211 13.98 32.0431 13.422 32.4751 12.906C32.9191 12.378 33.2611 11.892 33.5011 11.448C33.7531 10.992 33.8791 10.56 33.8791 10.152C33.8791 9.588 33.7351 9.162 33.4471 8.874C33.1591 8.574 32.7631 8.424 32.2591 8.424C31.8391 8.424 31.4671 8.544 31.1431 8.784C30.8191 9.012 30.5131 9.282 30.2251 9.594L28.7851 8.172C29.3491 7.572 29.9251 7.122 30.5131 6.822C31.1011 6.51 31.8031 6.354 32.6191 6.354C33.1831 6.354 33.6931 6.444 34.1491 6.624C34.6171 6.792 35.0191 7.038 35.3551 7.362C35.6911 7.674 35.9491 8.052 36.1291 8.496C36.3091 8.94 36.3991 9.438 36.3991 9.99C36.3991 10.47 36.2971 10.962 36.0931 11.466C35.8891 11.958 35.6131 12.456 35.2651 12.96C34.9291 13.452 34.5391 13.95 34.0951 14.454C33.6631 14.946 33.2131 15.432 32.7451 15.912C33.0331 15.876 33.3511 15.846 33.6991 15.822C34.0591 15.786 34.3771 15.768 34.6531 15.768H36.9571V18H28.9111Z" fill="white"/>
</svg>
