<svg width="17" height="15" viewBox="0 0 17 15" fill="none" xmlns="http://www.w3.org/2000/svg">
<path d="M14.8962 9.375H6.24431L6.43748 10.3125H14.3595C14.8141 10.3125 15.151 10.7315 15.0503 11.1715L14.8874 11.8827C15.4391 12.1485 15.8194 12.7098 15.8194 13.3594C15.8194 14.2735 15.0663 15.013 14.1424 14.9998C13.2622 14.9873 12.5383 14.2782 12.5145 13.4047C12.5015 12.9275 12.6941 12.4951 13.0104 12.1875H6.8229C7.12917 12.4853 7.31945 12.9002 7.31945 13.3594C7.31945 14.2914 6.5365 15.0419 5.58787 14.9982C4.74554 14.9594 4.06049 14.2838 4.01622 13.4479C3.98204 12.8024 4.32423 12.2334 4.84412 11.9366L2.77085 1.875H0.708333C0.317127 1.875 0 1.5602 0 1.17187V0.703125C0 0.314795 0.317127 0 0.708333 0H3.73436C4.07085 0 4.36088 0.23499 4.42832 0.562207L4.69885 1.875H16.2914C16.7459 1.875 17.0828 2.29397 16.9821 2.73395L15.5869 8.8277C15.5136 9.14783 15.2269 9.375 14.8962 9.375ZM12.0417 4.92187H10.625V3.75C10.625 3.4911 10.4136 3.28125 10.1528 3.28125H9.68056C9.41974 3.28125 9.20834 3.4911 9.20834 3.75V4.92187H7.79167C7.53085 4.92187 7.31945 5.13173 7.31945 5.39062V5.85937C7.31945 6.11827 7.53085 6.32812 7.79167 6.32812H9.20834V7.5C9.20834 7.75889 9.41974 7.96875 9.68056 7.96875H10.1528C10.4136 7.96875 10.625 7.75889 10.625 7.5V6.32812H12.0417C12.3025 6.32812 12.5139 6.11827 12.5139 5.85937V5.39062C12.5139 5.13173 12.3025 4.92187 12.0417 4.92187Z" fill="black"/>
</svg>
