<svg width="35" height="32" viewBox="0 0 35 32" fill="none" xmlns="http://www.w3.org/2000/svg">
<path d="M11.75 29.75C12.4404 29.75 13 29.1904 13 28.5C13 27.8096 12.4404 27.25 11.75 27.25C11.0596 27.25 10.5 27.8096 10.5 28.5C10.5 29.1904 11.0596 29.75 11.75 29.75Z" stroke="white" stroke-width="3.125" stroke-linecap="round" stroke-linejoin="round"/>
<path d="M29.25 29.75C29.9404 29.75 30.5 29.1904 30.5 28.5C30.5 27.8096 29.9404 27.25 29.25 27.25C28.5596 27.25 28 27.8096 28 28.5C28 29.1904 28.5596 29.75 29.25 29.75Z" stroke="white" stroke-width="3.125" stroke-linecap="round" stroke-linejoin="round"/>
<path d="M1.75 2.25H6.75L10.5 23.5H30.5" stroke="white" stroke-width="3.125" stroke-linecap="round" stroke-linejoin="round"/>
<path d="M10.5 18.5H29.9875C30.132 18.5001 30.2722 18.4501 30.384 18.3585C30.4958 18.2669 30.5724 18.1394 30.6008 17.9977L32.8508 6.74766C32.8689 6.65694 32.8667 6.56333 32.8443 6.47357C32.8219 6.38381 32.7798 6.30015 32.7212 6.22862C32.6625 6.15709 32.5887 6.09948 32.505 6.05995C32.4214 6.02041 32.33 5.99994 32.2375 6H8" stroke="white" stroke-width="3.125" stroke-linecap="round" stroke-linejoin="round"/>
</svg>
