<svg width="28" height="20" viewBox="0 0 28 20" fill="none" xmlns="http://www.w3.org/2000/svg">
<path d="M1.7041 1.66667C1.7041 1.22464 1.88369 0.800716 2.20335 0.488155C2.52302 0.175595 2.95657 0 3.40865 0H23.8632C24.3153 0 24.7488 0.175595 25.0685 0.488155C25.3882 0.800716 25.5677 1.22464 25.5677 1.66667H1.7041ZM13.6359 15C14.5401 15 15.4072 14.6488 16.0465 14.0237C16.6858 13.3986 17.045 12.5507 17.045 11.6667C17.045 10.7826 16.6858 9.93476 16.0465 9.30964C15.4072 8.68452 14.5401 8.33333 13.6359 8.33333C12.7318 8.33333 11.8647 8.68452 11.2253 9.30964C10.586 9.93476 10.2268 10.7826 10.2268 11.6667C10.2268 12.5507 10.586 13.3986 11.2253 14.0237C11.8647 14.6488 12.7318 15 13.6359 15Z" fill="#242A37"/>
<path d="M0 5.00004C0 4.55801 0.179586 4.13409 0.49925 3.82153C0.818914 3.50897 1.25247 3.33337 1.70455 3.33337H25.5682C26.0203 3.33337 26.4538 3.50897 26.7735 3.82153C27.0931 4.13409 27.2727 4.55801 27.2727 5.00004V18.3334C27.2727 18.7754 27.0931 19.1993 26.7735 19.5119C26.4538 19.8244 26.0203 20 25.5682 20H1.70455C1.25247 20 0.818914 19.8244 0.49925 19.5119C0.179586 19.1993 0 18.7754 0 18.3334V5.00004ZM5.11364 5.00004C5.11364 5.8841 4.75447 6.73194 4.11514 7.35706C3.47581 7.98218 2.60869 8.33337 1.70455 8.33337V15C2.60869 15 3.47581 15.3512 4.11514 15.9764C4.75447 16.6015 5.11364 17.4493 5.11364 18.3334H22.1591C22.1591 17.4493 22.5183 16.6015 23.1576 15.9764C23.7969 15.3512 24.664 15 25.5682 15V8.33337C24.664 8.33337 23.7969 7.98218 23.1576 7.35706C22.5183 6.73194 22.1591 5.8841 22.1591 5.00004H5.11364Z" fill="#242A37"/>
</svg>
