<svg width="16" height="15" viewBox="0 0 16 15" fill="none" xmlns="http://www.w3.org/2000/svg">
<path d="M15.6129 3.07395C15.3646 2.47242 15.0067 1.92731 14.5591 1.46915C14.1111 1.00962 13.583 0.644437 13.0033 0.393462C12.4023 0.132183 11.7577 -0.001554 11.1068 1.36232e-05C10.1938 1.36232e-05 9.30292 0.261667 8.52876 0.7559C8.34355 0.874129 8.1676 1.00399 8.00092 1.14547C7.83423 1.00399 7.65828 0.874129 7.47308 0.7559C6.69892 0.261667 5.80807 1.36232e-05 4.895 1.36232e-05C4.23752 1.36232e-05 3.60041 0.131809 2.99849 0.393462C2.41694 0.645424 1.89281 1.00786 1.44276 1.46915C0.994552 1.92679 0.636513 2.47203 0.388933 3.07395C0.131497 3.69998 0 4.36477 0 5.04895C0 5.69436 0.12594 6.3669 0.375969 7.05108C0.585252 7.62284 0.885287 8.21592 1.26866 8.81481C1.87614 9.76258 2.71142 10.751 3.74858 11.7531C5.46729 13.4141 7.16934 14.5615 7.24157 14.608L7.68051 14.9026C7.87498 15.0325 8.125 15.0325 8.31947 14.9026L8.75841 14.608C8.83064 14.5596 10.5308 13.4141 12.2514 11.7531C13.2886 10.751 14.1238 9.76258 14.7313 8.81481C15.1147 8.21592 15.4166 7.62284 15.624 7.05108C15.874 6.3669 16 5.69436 16 5.04895C16.0018 4.36477 15.8703 3.69998 15.6129 3.07395ZM8.00092 13.3695C8.00092 13.3695 1.40757 8.94855 1.40757 5.04895C1.40757 3.07395 2.96886 1.47302 4.895 1.47302C6.24886 1.47302 7.42307 2.2638 8.00092 3.41895C8.57876 2.2638 9.75297 1.47302 11.1068 1.47302C13.033 1.47302 14.5943 3.07395 14.5943 5.04895C14.5943 8.94855 8.00092 13.3695 8.00092 13.3695Z" fill="#242A37"/>
</svg>
