<svg width="56" height="48" viewBox="0 0 56 48" fill="none" xmlns="http://www.w3.org/2000/svg">
<path d="M50.5 10C52.9853 10 55 7.98528 55 5.5C55 3.01472 52.9853 1 50.5 1C48.0147 1 46 3.01472 46 5.5C46 7.98528 48.0147 10 50.5 10Z" fill="#F54253" stroke="#F54253" stroke-width="2" stroke-linecap="round" stroke-linejoin="round"/>
<path d="M39.1673 24.5V44.0833H7.83398V24.5" stroke="black" stroke-width="2" stroke-linecap="round" stroke-linejoin="round"/>
<path d="M43.0827 14.709H3.91602V24.5007H43.0827V14.709Z" stroke="black" stroke-width="2" stroke-linecap="round" stroke-linejoin="round"/>
<path d="M23.5 44.084V14.709" stroke="black" stroke-width="2" stroke-linecap="round" stroke-linejoin="round"/>
<path d="M23.4993 14.7077H14.6868C13.3884 14.7077 12.1431 14.1919 11.225 13.2737C10.3068 12.3556 9.79102 11.1103 9.79102 9.81185C9.79102 8.51339 10.3068 7.26812 11.225 6.34997C12.1431 5.43183 13.3884 4.91602 14.6868 4.91602C21.541 4.91602 23.4993 14.7077 23.4993 14.7077Z" stroke="black" stroke-width="2" stroke-linecap="round" stroke-linejoin="round"/>
<path d="M23.5 14.7077H32.3125C33.611 14.7077 34.8562 14.1919 35.7744 13.2737C36.6925 12.3556 37.2083 11.1103 37.2083 9.81185C37.2083 8.51339 36.6925 7.26812 35.7744 6.34997C34.8562 5.43183 33.611 4.91602 32.3125 4.91602C25.4583 4.91602 23.5 14.7077 23.5 14.7077Z" stroke="black" stroke-width="2" stroke-linecap="round" stroke-linejoin="round"/>
</svg>
