<svg width="47" height="47" viewBox="0 0 47 47" fill="none" xmlns="http://www.w3.org/2000/svg">
<path d="M23.4993 25.4577C24.5809 25.4577 25.4577 24.5809 25.4577 23.4993C25.4577 22.4178 24.5809 21.541 23.4993 21.541C22.4178 21.541 21.541 22.4178 21.541 23.4993C21.541 24.5809 22.4178 25.4577 23.4993 25.4577Z" stroke="black" stroke-width="2" stroke-linecap="round" stroke-linejoin="round"/>
<path d="M23.4993 11.7507C24.5809 11.7507 25.4577 10.8739 25.4577 9.79232C25.4577 8.71076 24.5809 7.83398 23.4993 7.83398C22.4178 7.83398 21.541 8.71076 21.541 9.79232C21.541 10.8739 22.4178 11.7507 23.4993 11.7507Z" stroke="black" stroke-width="2" stroke-linecap="round" stroke-linejoin="round"/>
<path d="M23.4993 39.1667C24.5809 39.1667 25.4577 38.2899 25.4577 37.2083C25.4577 36.1268 24.5809 35.25 23.4993 35.25C22.4178 35.25 21.541 36.1268 21.541 37.2083C21.541 38.2899 22.4178 39.1667 23.4993 39.1667Z" stroke="black" stroke-width="2" stroke-linecap="round" stroke-linejoin="round"/>
</svg>
