<svg width="69" height="69" viewBox="0 0 69 69" fill="none" xmlns="http://www.w3.org/2000/svg">
<circle cx="34.5" cy="34.5" r="34.5" fill="#F5A79E"/>
<path d="M18.8327 16.875H50.166C51.2048 16.875 52.201 17.2876 52.9355 18.0222C53.67 18.7567 54.0827 19.7529 54.0827 20.7917V32.5417C54.0827 37.7355 52.0194 42.7166 48.3469 46.3892C44.6743 50.0618 39.6932 52.125 34.4993 52.125C31.9276 52.125 29.3811 51.6185 27.0051 50.6343C24.6292 49.6502 22.4703 48.2077 20.6518 46.3892C16.9793 42.7166 14.916 37.7355 14.916 32.5417V20.7917C14.916 19.7529 15.3287 18.7567 16.0632 18.0222C16.7977 17.2876 17.7939 16.875 18.8327 16.875V16.875Z" stroke="black" stroke-width="2" stroke-linecap="round" stroke-linejoin="round"/>
<path d="M26.666 30.584L34.4993 38.4173L42.3327 30.584" stroke="black" stroke-width="2" stroke-linecap="round" stroke-linejoin="round"/>
</svg>
