<svg width="10" height="16" viewBox="0 0 10 16" fill="none" xmlns="http://www.w3.org/2000/svg">
<path d="M0.419058 0.420946C0.286218 0.553514 0.180828 0.710979 0.108921 0.884327C0.0370134 1.05768 0 1.2435 0 1.43118C0 1.61885 0.0370134 1.80468 0.108921 1.97802C0.180828 2.15137 0.286218 2.30884 0.419058 2.4414L5.9789 8.00125L0.419058 13.5611C0.151128 13.829 0.000606756 14.1924 0.000606756 14.5713C0.000606756 14.9502 0.151128 15.3136 0.419058 15.5816C0.686987 15.8495 1.05038 16 1.42929 16C1.8082 16 2.17159 15.8495 2.43952 15.5816L9.01675 9.00431C9.14959 8.87175 9.25498 8.71428 9.32689 8.54093C9.3988 8.36758 9.43581 8.18175 9.43581 7.99408C9.43581 7.80641 9.3988 7.62058 9.32689 7.44724C9.25498 7.27389 9.14959 7.11642 9.01675 6.98385L2.43952 0.406617C1.895 -0.137904 0.977908 -0.137904 0.419058 0.420946Z" fill="white"/>
</svg>
