<svg width="59" height="48" viewBox="0 0 59 48" fill="none" xmlns="http://www.w3.org/2000/svg">
<path d="M53.5 10C55.9853 10 58 7.98528 58 5.5C58 3.01472 55.9853 1 53.5 1C51.0147 1 49 3.01472 49 5.5C49 7.98528 51.0147 10 53.5 10Z" fill="#F54253" stroke="#F54253" stroke-width="2" stroke-linecap="round" stroke-linejoin="round"/>
<path d="M7.83268 6.875H39.166C40.2048 6.875 41.201 7.28765 41.9355 8.02216C42.67 8.75668 43.0827 9.7529 43.0827 10.7917V22.5417C43.0827 27.7355 41.0194 32.7166 37.3469 36.3892C33.6743 40.0618 28.6932 42.125 23.4993 42.125C20.9276 42.125 18.3811 41.6185 16.0051 40.6343C13.6292 39.6502 11.4703 38.2077 9.65184 36.3892C5.97925 32.7166 3.91602 27.7355 3.91602 22.5417V10.7917C3.91602 9.7529 4.32866 8.75668 5.06318 8.02216C5.7977 7.28765 6.79392 6.875 7.83268 6.875V6.875Z" stroke="black" stroke-width="2" stroke-linecap="round" stroke-linejoin="round"/>
<path d="M15.666 20.584L23.4993 28.4173L31.3327 20.584" stroke="black" stroke-width="2" stroke-linecap="round" stroke-linejoin="round"/>
</svg>
