<svg width="19" height="15" viewBox="0 0 19 15" fill="none" xmlns="http://www.w3.org/2000/svg">
<path d="M18.7188 1.77927C18.0568 2.07995 17.3457 2.28311 16.5982 2.37493C17.3695 1.90181 17.9466 1.15718 18.2217 0.279967C17.497 0.721218 16.7039 1.03181 15.8768 1.19824C15.3206 0.58947 14.5839 0.185967 13.781 0.050377C12.9782 -0.0852125 12.1541 0.0546982 11.4368 0.448387C10.7195 0.842076 10.149 1.46752 9.814 2.22761C9.47897 2.9877 9.39811 3.83991 9.58398 4.65193C8.11558 4.57635 6.67908 4.18511 5.36773 3.5036C4.05637 2.82209 2.89946 1.86554 1.97207 0.696035C1.65498 1.25675 1.47265 1.90686 1.47265 2.59922C1.47229 3.22251 1.62203 3.83624 1.90856 4.38598C2.19509 4.93572 2.60957 5.40446 3.11521 5.75061C2.5288 5.73148 1.95533 5.56905 1.44252 5.27684V5.3256C1.44246 6.19978 1.73745 7.04707 2.27743 7.72368C2.8174 8.40029 3.56911 8.86456 4.405 9.03771C3.86101 9.18863 3.29067 9.21086 2.73707 9.10272C2.97291 9.8549 3.4323 10.5127 4.05094 10.9839C4.66957 11.4551 5.41647 11.7163 6.18708 11.7308C4.87893 12.7835 3.26336 13.3545 1.60028 13.352C1.30568 13.3521 1.01133 13.3344 0.71875 13.2992C2.40688 14.4118 4.37197 15.0023 6.37893 15C13.1727 15 16.8867 9.23193 16.8867 4.22936C16.8867 4.06683 16.8828 3.90268 16.8756 3.74016C17.598 3.20461 18.2216 2.54144 18.7172 1.78171L18.7188 1.77927Z" fill="#242A37"/>
</svg>
