<svg width="16" height="15" viewBox="0 0 16 15" fill="none" xmlns="http://www.w3.org/2000/svg">
<path d="M8.22352 1.50957e-06C6.4748 -0.00110752 4.78066 0.608885 3.43403 1.72451C2.0874 2.84013 1.17294 4.39125 0.84876 6.10966C0.524584 7.82807 0.811073 9.60574 1.65869 11.1353C2.50631 12.6649 3.86177 13.8502 5.49071 14.4863C5.42508 13.8928 5.36508 12.9806 5.51602 12.3328C5.65289 11.7469 6.3954 8.60438 6.3954 8.60438C6.3954 8.60438 6.17133 8.15531 6.17133 7.49156C6.17133 6.44813 6.77602 5.67 7.52883 5.67C8.16821 5.67 8.47758 6.15 8.47758 6.72656C8.47758 7.36969 8.06789 8.33156 7.85602 9.22313C7.67977 9.96938 8.23102 10.5788 8.96696 10.5788C10.3001 10.5788 11.3248 9.1725 11.3248 7.14375C11.3248 5.34844 10.0338 4.09313 8.19165 4.09313C6.05789 4.09313 4.8054 5.69344 4.8054 7.34719C4.8054 7.99219 5.05383 8.68313 5.36321 9.05906C5.38985 9.0874 5.40869 9.12216 5.41789 9.15995C5.42709 9.19775 5.42634 9.23728 5.41571 9.27469C5.35852 9.51094 5.23196 10.0209 5.20758 10.125C5.17477 10.2619 5.09883 10.2909 4.95633 10.2253C4.01883 9.78938 3.43383 8.41969 3.43383 7.31906C3.43383 4.95375 5.15321 2.78156 8.38946 2.78156C10.991 2.78156 13.0132 4.635 13.0132 7.11281C13.0132 9.6975 11.3829 11.7778 9.12164 11.7778C8.36133 11.7778 7.64696 11.3831 7.40227 10.9163L6.93539 12.6994C6.76571 13.3509 6.30821 14.1675 6.00258 14.6653C7.03381 14.9842 8.1217 15.0767 9.19196 14.9365C10.2622 14.7963 11.2896 14.4268 12.2039 13.8532C13.1183 13.2795 13.898 12.5153 14.4899 11.6126C15.0818 10.71 15.4719 9.69023 15.6335 8.62301C15.7951 7.55578 15.7245 6.46625 15.4264 5.42883C15.1283 4.39141 14.6098 3.43056 13.9063 2.61191C13.2028 1.79326 12.3309 1.1361 11.3502 0.685327C10.3694 0.234555 9.30291 0.000789659 8.22352 1.50957e-06Z" fill="#242A37"/>
</svg>
