<svg width="28" height="30" viewBox="0 0 28 30" fill="none" xmlns="http://www.w3.org/2000/svg">
<path d="M2.30436 16.9015L12.0069 28.5446C12.8559 29.5149 13.8464 30 14.9783 30C15.989 30 16.8582 29.6968 17.5859 29.0904L26.015 21.9954C26.8236 21.2677 27.2885 20.3581 27.4098 19.2665C27.531 18.2558 27.2278 17.2654 26.5001 16.2951L16.7976 4.65204C15.7465 3.27751 14.3719 2.40832 12.674 2.04447L4.24487 0.103956C3.43633 -0.138608 2.66821 0.0433151 1.94051 0.649726L0.909616 1.55934C0.303205 2.00404 0 2.73174 0 3.74242L0.485128 12.4141C0.687265 14.1525 1.29368 15.6483 2.30436 16.9015ZM3.75975 2.59024L12.3101 4.65204C13.1995 4.85417 14.0889 5.39994 14.9783 6.28934L24.6809 17.9324C25.0043 18.2558 25.1054 18.6197 24.9841 19.024C24.9841 19.2665 24.8022 19.6102 24.4383 20.0549L16.0092 27.1499C15.7262 27.3924 15.3826 27.5036 14.9783 27.4834C14.5741 27.4632 14.2709 27.3116 14.0687 27.0286L4.36616 15.3855C3.59804 14.4152 3.21398 13.4248 3.21398 12.4141L2.60757 3.49986L3.75975 2.59024ZM7.21629 6.83511C7.21629 7.19896 7.095 7.50217 6.85244 7.74473C6.60988 7.98729 6.30667 8.10858 5.94282 8.10858C5.57898 8.10858 5.27577 7.98729 5.03321 7.74473C4.79064 7.50217 4.66936 7.19896 4.66936 6.83511C4.66936 6.47127 4.79064 6.16806 5.03321 5.9255C5.27577 5.68293 5.57898 5.56165 5.94282 5.56165C6.30667 5.56165 6.60988 5.68293 6.85244 5.9255C7.095 6.16806 7.21629 6.47127 7.21629 6.83511ZM7.88334 15.8706L19.769 19.6304H20.1935C20.7595 19.6304 21.1839 19.3272 21.4669 18.7208C21.5882 18.3973 21.568 18.0739 21.4063 17.7505C21.2446 17.4271 21.002 17.2047 20.6786 17.0835L8.79295 13.3237C8.46953 13.162 8.13601 13.162 7.79238 13.3237C7.44874 13.4854 7.21629 13.728 7.095 14.0514C6.85244 14.9812 7.11522 15.5876 7.88334 15.8706ZM17.5859 21.6922C17.5859 22.2177 17.404 22.6725 17.0401 23.0566C16.6763 23.4407 16.2114 23.6327 15.6454 23.6327C15.0794 23.6327 14.6145 23.4407 14.2506 23.0566C13.8868 22.6725 13.7049 22.2177 13.7049 21.6922C13.7049 21.1666 13.8969 20.7118 14.281 20.3278C14.665 19.9437 15.1198 19.7517 15.6454 19.7517C16.1709 19.7517 16.6258 19.9437 17.0098 20.3278C17.3939 20.7118 17.5859 21.1666 17.5859 21.6922ZM13.7049 11.3832C13.7049 11.9087 13.5128 12.3636 13.1288 12.7476C12.7447 13.1317 12.2899 13.3237 11.7644 13.3237C11.2388 13.3237 10.784 13.1317 10.3999 12.7476C10.0159 12.3636 9.82385 11.9087 9.82385 11.3832C9.82385 10.8576 10.0058 10.4028 10.3696 10.0188C10.7335 9.63471 11.1984 9.44268 11.7644 9.44268C12.3303 9.44268 12.7953 9.63471 13.1591 10.0188C13.523 10.4028 13.7049 10.8576 13.7049 11.3832Z" fill="#F54253"/>
</svg>
