<svg width="42" height="30" viewBox="0 0 42 30" fill="none" xmlns="http://www.w3.org/2000/svg">
<path d="M35.625 7.5H30V0H3.75C1.6875 0 0 1.6875 0 3.75V24.375H3.75C3.75 27.4875 6.2625 30 9.375 30C12.4875 30 15 27.4875 15 24.375H26.25C26.25 27.4875 28.7625 30 31.875 30C34.9875 30 37.5 27.4875 37.5 24.375H41.25V15L35.625 7.5ZM34.6875 10.3125L38.3625 15H30V10.3125H34.6875ZM9.375 26.25C8.34375 26.25 7.5 25.4062 7.5 24.375C7.5 23.3438 8.34375 22.5 9.375 22.5C10.4062 22.5 11.25 23.3438 11.25 24.375C11.25 25.4062 10.4062 26.25 9.375 26.25ZM13.5375 20.625C12.5063 19.4813 11.0437 18.75 9.375 18.75C7.70625 18.75 6.24375 19.4813 5.2125 20.625H3.75V3.75H26.25V20.625H13.5375ZM31.875 26.25C30.8438 26.25 30 25.4062 30 24.375C30 23.3438 30.8438 22.5 31.875 22.5C32.9062 22.5 33.75 23.3438 33.75 24.375C33.75 25.4062 32.9062 26.25 31.875 26.25Z" fill="#F54253"/>
</svg>
