<svg width="28" height="30" viewBox="0 0 28 30" fill="none" xmlns="http://www.w3.org/2000/svg">
<path d="M27.8571 17.1427C27.8593 16.0699 27.5929 15.0135 27.0823 14.07C26.5716 13.1264 25.8329 12.3257 24.9335 11.7407C24.0342 11.1558 23.0027 10.8052 21.9331 10.721C20.8635 10.6368 19.7899 10.8216 18.8101 11.2586C17.8302 11.6956 16.9753 12.3709 16.3233 13.223C15.6713 14.075 15.2429 15.0766 15.0772 16.1366C14.9114 17.1966 15.0136 18.2813 15.3744 19.2916C15.7352 20.302 16.3432 21.2061 17.1428 21.9213V29.9999L21.4286 27.9717L25.7143 29.9999V21.9213C26.3879 21.3206 26.927 20.5845 27.2962 19.761C27.6655 18.9375 27.8567 18.0452 27.8571 17.1427ZM23.5714 26.6142L21.4286 25.5995L19.2857 26.6142V23.1963C20.6705 23.6964 22.1866 23.6964 23.5714 23.1963V26.6142ZM21.4286 21.4285C20.5809 21.4285 19.7523 21.1771 19.0475 20.7062C18.3428 20.2353 17.7935 19.5659 17.4691 18.7828C17.1447 17.9997 17.0598 17.138 17.2252 16.3066C17.3906 15.4753 17.7987 14.7116 18.3981 14.1123C18.9975 13.5129 19.7611 13.1047 20.5925 12.9394C21.4238 12.774 22.2855 12.8589 23.0686 13.1833C23.8517 13.5076 24.5211 14.0569 24.992 14.7617C25.4629 15.4665 25.7143 16.2951 25.7143 17.1427C25.7129 18.2789 25.2609 19.3682 24.4575 20.1716C23.654 20.975 22.5648 21.427 21.4286 21.4285Z" fill="#F54253"/>
<path d="M5.35718 12.8572H12.8572V15H5.35718V12.8572Z" fill="#F54253"/>
<path d="M5.35718 6.42847H16.0715V8.57132H5.35718V6.42847Z" fill="#F54253"/>
<path d="M2.14286 30C1.57471 29.9994 1.03 29.7735 0.628255 29.3717C0.226514 28.97 0.000567296 28.4253 0 27.8571V2.14286C0.000567296 1.57471 0.226514 1.03 0.628255 0.628255C1.03 0.226514 1.57471 0.000567296 2.14286 0H19.2857C19.8539 0.000567296 20.3986 0.226514 20.8003 0.628255C21.2021 1.03 21.428 1.57471 21.4286 2.14286V6.42857H19.2857V2.14286H2.14286V27.8571H12.8571V30H2.14286Z" fill="#F54253"/>
</svg>
