<svg width="69" height="69" viewBox="0 0 69 69" fill="none" xmlns="http://www.w3.org/2000/svg">
<circle cx="34.5" cy="34.5" r="34.5" fill="#FFC727"/>
<path d="M50.1673 34.5V54.0833H18.834V34.5" stroke="black" stroke-width="2" stroke-linecap="round" stroke-linejoin="round"/>
<path d="M54.0827 24.709H14.916V34.5007H54.0827V24.709Z" stroke="black" stroke-width="2" stroke-linecap="round" stroke-linejoin="round"/>
<path d="M34.5 54.084V24.709" stroke="black" stroke-width="2" stroke-linecap="round" stroke-linejoin="round"/>
<path d="M34.4993 24.7077H25.6868C24.3884 24.7077 23.1431 24.1919 22.225 23.2737C21.3068 22.3556 20.791 21.1103 20.791 19.8118C20.791 18.5134 21.3068 17.2681 22.225 16.35C23.1431 15.4318 24.3884 14.916 25.6868 14.916C32.541 14.916 34.4993 24.7077 34.4993 24.7077Z" stroke="black" stroke-width="2" stroke-linecap="round" stroke-linejoin="round"/>
<path d="M34.5 24.7077H43.3125C44.611 24.7077 45.8562 24.1919 46.7744 23.2737C47.6925 22.3556 48.2083 21.1103 48.2083 19.8118C48.2083 18.5134 47.6925 17.2681 46.7744 16.35C45.8562 15.4318 44.611 14.916 43.3125 14.916C36.4583 14.916 34.5 24.7077 34.5 24.7077Z" stroke="black" stroke-width="2" stroke-linecap="round" stroke-linejoin="round"/>
</svg>
