<svg width="38" height="34" viewBox="0 0 38 34" fill="none" xmlns="http://www.w3.org/2000/svg">
<path d="M12.928 31.9997C13.6824 31.9997 14.294 31.3892 14.294 30.6361C14.294 29.883 13.6824 29.2725 12.928 29.2725C12.1736 29.2725 11.562 29.883 11.562 30.6361C11.562 31.3892 12.1736 31.9997 12.928 31.9997Z" stroke="white" stroke-width="3.125" stroke-linecap="round" stroke-linejoin="round"/>
<path d="M32.0518 31.9997C32.8062 31.9997 33.4178 31.3892 33.4178 30.6361C33.4178 29.883 32.8062 29.2725 32.0518 29.2725C31.2974 29.2725 30.6858 29.883 30.6858 30.6361C30.6858 31.3892 31.2974 31.9997 32.0518 31.9997Z" stroke="white" stroke-width="3.125" stroke-linecap="round" stroke-linejoin="round"/>
<path d="M2 2H7.46397L11.5619 25.1818H33.4178" stroke="white" stroke-width="3.125" stroke-linecap="round" stroke-linejoin="round"/>
<path d="M11.5618 19.7272H32.8576C33.0156 19.7273 33.1687 19.6727 33.2909 19.5728C33.4131 19.4729 33.4968 19.3338 33.5278 19.1792L35.9866 6.90645C36.0064 6.80748 36.004 6.70536 35.9795 6.60744C35.955 6.50952 35.9091 6.41826 35.8449 6.34023C35.7808 6.2622 35.7002 6.19935 35.6088 6.15622C35.5174 6.11309 35.4175 6.09075 35.3164 6.09082H8.82983" stroke="white" stroke-width="3.125" stroke-linecap="round" stroke-linejoin="round"/>
</svg>
