<svg width="10" height="17" viewBox="0 0 10 17" fill="none" xmlns="http://www.w3.org/2000/svg">
<path d="M9.45191 15.7366C9.5808 15.608 9.68306 15.4552 9.75283 15.287C9.82261 15.1188 9.85852 14.9386 9.85852 14.7565C9.85852 14.5744 9.82261 14.3941 9.75283 14.2259C9.68306 14.0577 9.5808 13.905 9.45191 13.7763L4.05721 8.38211L9.45191 2.98787C9.71188 2.72793 9.85793 2.37536 9.85793 2.00774C9.85793 1.64012 9.71188 1.28755 9.45191 1.0276C9.19194 0.767651 8.83934 0.621615 8.47169 0.621615C8.10403 0.621615 7.75144 0.767651 7.49147 1.0276L1.10959 7.40892C0.980698 7.53754 0.878438 7.69031 0.808666 7.8585C0.738894 8.02668 0.702982 8.20698 0.702982 8.38906C0.702982 8.57114 0.738894 8.75143 0.808666 8.91962C0.878438 9.0878 0.980698 9.24058 1.10959 9.36919L7.49147 15.7505C8.01981 16.2788 8.90966 16.2788 9.45191 15.7366Z" fill="black"/>
</svg>
