<svg width="448" height="500" viewBox="0 0 448 500" fill="none" xmlns="http://www.w3.org/2000/svg">
<path d="M413.038 140.923L289.161 140.923C286.807 140.923 284.549 139.988 282.884 138.323C281.219 136.658 280.284 134.4 280.284 132.045V41.8652C280.284 39.5117 281.218 37.2547 282.883 35.5905C284.547 33.9264 286.804 32.9915 289.157 32.9915L413.042 32.9915C415.396 32.9915 417.653 33.9264 419.317 35.5905C420.981 37.2547 421.916 39.5117 421.916 41.8652V132.045C421.916 134.4 420.981 136.658 419.316 138.323C417.651 139.988 415.393 140.923 413.038 140.923Z" fill="white"/>
<path d="M279.912 132.045V41.8646C279.912 39.4127 280.886 37.0613 282.62 35.3276C284.354 33.5939 286.705 32.6199 289.157 32.6199H413.042C415.494 32.6199 417.845 33.5939 419.579 35.3276C421.312 37.0613 422.286 39.4127 422.286 41.8646V132.045C422.286 133.259 422.047 134.462 421.582 135.584C421.118 136.706 420.436 137.726 419.578 138.585C418.719 139.444 417.699 140.125 416.577 140.59C415.455 141.054 414.252 141.294 413.038 141.294H289.161C287.946 141.294 286.744 141.054 285.622 140.59C284.499 140.125 283.48 139.444 282.621 138.585C281.762 137.726 281.081 136.706 280.616 135.584C280.151 134.462 279.912 133.259 279.912 132.045ZM289.157 33.3618C286.902 33.3624 284.74 34.2585 283.146 35.853C281.552 37.4475 280.656 39.6099 280.656 41.8646V132.045C280.656 134.301 281.553 136.465 283.148 138.06C284.743 139.655 286.907 140.552 289.163 140.552H413.038C415.294 140.552 417.458 139.655 419.053 138.06C420.648 136.465 421.545 134.301 421.545 132.045V41.8646C421.545 39.6095 420.649 37.4468 419.054 35.8522C417.46 34.2576 415.297 33.3618 413.042 33.3618H289.157Z" fill="#292A2E"/>
<path d="M280.283 41.8634V49.3774H421.914V41.8634C421.914 39.5099 420.979 37.2529 419.315 35.5887C417.651 33.9246 415.394 32.9897 413.04 32.9897H289.156C287.991 32.9897 286.837 33.2192 285.761 33.6652C284.684 34.1111 283.706 34.7648 282.882 35.5888C282.058 36.4128 281.404 37.391 280.958 38.4676C280.513 39.5442 280.283 40.6981 280.283 41.8634Z" fill="#292A2E"/>
<path d="M328.652 61.5235H321.969C321.89 61.5235 321.814 61.4923 321.759 61.4366C321.703 61.381 321.672 61.3055 321.672 61.2268C321.672 61.1481 321.703 61.0726 321.759 61.017C321.814 60.9613 321.89 60.9301 321.969 60.9301H328.652C328.73 60.9301 328.806 60.9613 328.862 61.017C328.917 61.0726 328.949 61.1481 328.949 61.2268C328.949 61.3055 328.917 61.381 328.862 61.4366C328.806 61.4923 328.73 61.5235 328.652 61.5235Z" fill="#292A2E"/>
<path d="M317.15 61.5237H314.621C314.542 61.5237 314.467 61.4924 314.411 61.4367C314.355 61.3811 314.324 61.3056 314.324 61.2269C314.324 61.1482 314.355 61.0727 314.411 61.0171C314.467 60.9614 314.542 60.9302 314.621 60.9302H317.15C317.228 60.9302 317.304 60.9614 317.36 61.0171C317.415 61.0727 317.447 61.1482 317.447 61.2269C317.447 61.3056 317.415 61.3811 317.36 61.4367C317.304 61.4924 317.228 61.5237 317.15 61.5237Z" fill="#F54253"/>
<path d="M317.15 66.8769H314.621C314.542 66.8769 314.467 66.8456 314.411 66.79C314.355 66.7343 314.324 66.6588 314.324 66.5801C314.324 66.5014 314.355 66.4259 314.411 66.3703C314.467 66.3146 314.542 66.2834 314.621 66.2834H317.15C317.228 66.2834 317.304 66.3146 317.36 66.3703C317.415 66.4259 317.447 66.5014 317.447 66.5801C317.447 66.6588 317.415 66.7343 317.36 66.79C317.304 66.8456 317.228 66.8769 317.15 66.8769Z" fill="#F54253"/>
<path d="M317.15 72.23H314.621C314.542 72.23 314.467 72.1988 314.411 72.1431C314.355 72.0875 314.324 72.012 314.324 71.9333C314.324 71.8546 314.355 71.7791 314.411 71.7234C314.467 71.6678 314.542 71.6365 314.621 71.6365H317.15C317.228 71.6365 317.304 71.6678 317.36 71.7234C317.415 71.7791 317.447 71.8546 317.447 71.9333C317.447 72.012 317.415 72.0875 317.36 72.1431C317.304 72.1988 317.228 72.23 317.15 72.23Z" fill="#F54253"/>
<path d="M317.15 77.5832H314.621C314.542 77.5832 314.467 77.5519 314.411 77.4963C314.355 77.4406 314.324 77.3651 314.324 77.2864C314.324 77.2077 314.355 77.1323 314.411 77.0766C314.467 77.021 314.542 76.9897 314.621 76.9897H317.15C317.228 76.9897 317.304 77.021 317.36 77.0766C317.415 77.1323 317.447 77.2077 317.447 77.2864C317.447 77.3651 317.415 77.4406 317.36 77.4963C317.304 77.5519 317.228 77.5832 317.15 77.5832Z" fill="#F54253"/>
<path d="M317.15 82.9364H314.621C314.542 82.9364 314.467 82.9051 314.411 82.8495C314.355 82.7938 314.324 82.7183 314.324 82.6396C314.324 82.5609 314.355 82.4855 314.411 82.4298C314.467 82.3742 314.542 82.3429 314.621 82.3429H317.15C317.228 82.3429 317.304 82.3742 317.36 82.4298C317.415 82.4855 317.447 82.5609 317.447 82.6396C317.447 82.7183 317.415 82.7938 317.36 82.8495C317.304 82.9051 317.228 82.9364 317.15 82.9364Z" fill="#F54253"/>
<path d="M317.15 88.2895H314.621C314.542 88.2895 314.467 88.2582 314.411 88.2026C314.355 88.1469 314.324 88.0715 314.324 87.9928C314.324 87.9141 314.355 87.8386 314.411 87.7829C314.467 87.7273 314.542 87.696 314.621 87.696H317.15C317.228 87.696 317.304 87.7273 317.36 87.7829C317.415 87.8386 317.447 87.9141 317.447 87.9928C317.447 88.0715 317.415 88.1469 317.36 88.2026C317.304 88.2582 317.228 88.2895 317.15 88.2895Z" fill="#F54253"/>
<path d="M317.15 93.6427H314.621C314.542 93.6427 314.467 93.6115 314.411 93.5558C314.355 93.5002 314.324 93.4247 314.324 93.346C314.324 93.2673 314.355 93.1918 314.411 93.1362C314.467 93.0805 314.542 93.0493 314.621 93.0493H317.15C317.228 93.0493 317.304 93.0805 317.36 93.1362C317.415 93.1918 317.447 93.2673 317.447 93.346C317.447 93.4247 317.415 93.5002 317.36 93.5558C317.304 93.6115 317.228 93.6427 317.15 93.6427Z" fill="#F54253"/>
<path d="M317.15 98.9959H314.621C314.542 98.9959 314.467 98.9646 314.411 98.909C314.355 98.8533 314.324 98.7778 314.324 98.6991C314.324 98.6204 314.355 98.545 314.411 98.4893C314.467 98.4337 314.542 98.4024 314.621 98.4024H317.15C317.228 98.4024 317.304 98.4337 317.36 98.4893C317.415 98.545 317.447 98.6204 317.447 98.6991C317.447 98.7778 317.415 98.8533 317.36 98.909C317.304 98.9646 317.228 98.9959 317.15 98.9959Z" fill="#F54253"/>
<path d="M317.15 104.349H314.621C314.542 104.349 314.467 104.318 314.411 104.262C314.355 104.207 314.324 104.131 314.324 104.052C314.324 103.974 314.355 103.898 314.411 103.843C314.467 103.787 314.542 103.756 314.621 103.756H317.15C317.228 103.756 317.304 103.787 317.36 103.843C317.415 103.898 317.447 103.974 317.447 104.052C317.447 104.131 317.415 104.207 317.36 104.262C317.304 104.318 317.228 104.349 317.15 104.349Z" fill="#F54253"/>
<path d="M317.15 109.702H314.621C314.542 109.702 314.467 109.671 314.411 109.615C314.355 109.56 314.324 109.484 314.324 109.406C314.324 109.327 314.355 109.251 314.411 109.196C314.467 109.14 314.542 109.109 314.621 109.109H317.15C317.228 109.109 317.304 109.14 317.36 109.196C317.415 109.251 317.447 109.327 317.447 109.406C317.447 109.484 317.415 109.56 317.36 109.615C317.304 109.671 317.228 109.702 317.15 109.702Z" fill="#F54253"/>
<path d="M317.15 115.055H314.621C314.542 115.055 314.467 115.024 314.411 114.969C314.355 114.913 314.324 114.837 314.324 114.759C314.324 114.68 314.355 114.605 314.411 114.549C314.467 114.493 314.542 114.462 314.621 114.462H317.15C317.228 114.462 317.304 114.493 317.36 114.549C317.415 114.605 317.447 114.68 317.447 114.759C317.447 114.837 317.415 114.913 317.36 114.969C317.304 115.024 317.228 115.055 317.15 115.055Z" fill="#F54253"/>
<path d="M317.15 120.409H314.621C314.542 120.409 314.467 120.377 314.411 120.322C314.355 120.266 314.324 120.191 314.324 120.112C314.324 120.033 314.355 119.958 314.411 119.902C314.467 119.846 314.542 119.815 314.621 119.815H317.15C317.228 119.815 317.304 119.846 317.36 119.902C317.415 119.958 317.447 120.033 317.447 120.112C317.447 120.191 317.415 120.266 317.36 120.322C317.304 120.377 317.228 120.409 317.15 120.409Z" fill="#F54253"/>
<path d="M317.15 125.762H314.621C314.542 125.762 314.467 125.731 314.411 125.675C314.355 125.619 314.324 125.544 314.324 125.465C314.324 125.386 314.355 125.311 314.411 125.255C314.467 125.2 314.542 125.168 314.621 125.168H317.15C317.228 125.168 317.304 125.2 317.36 125.255C317.415 125.311 317.447 125.386 317.447 125.465C317.447 125.544 317.415 125.619 317.36 125.675C317.304 125.731 317.228 125.762 317.15 125.762Z" fill="#F54253"/>
<path d="M317.15 131.116H314.621C314.542 131.116 314.467 131.084 314.411 131.029C314.355 130.973 314.324 130.898 314.324 130.819C314.324 130.74 314.355 130.665 314.411 130.609C314.467 130.553 314.542 130.522 314.621 130.522H317.15C317.228 130.522 317.304 130.553 317.36 130.609C317.415 130.665 317.447 130.74 317.447 130.819C317.447 130.898 317.415 130.973 317.36 131.029C317.304 131.084 317.228 131.116 317.15 131.116Z" fill="#F54253"/>
<path d="M333.994 66.8767H327.904C327.825 66.8767 327.75 66.8454 327.694 66.7898C327.639 66.7341 327.607 66.6586 327.607 66.5799C327.607 66.5012 327.639 66.4258 327.694 66.3701C327.75 66.3145 327.825 66.2832 327.904 66.2832H333.994C334.073 66.2832 334.148 66.3145 334.204 66.3701C334.259 66.4258 334.291 66.5012 334.291 66.5799C334.291 66.6586 334.259 66.7341 334.204 66.7898C334.148 66.8454 334.073 66.8767 333.994 66.8767Z" fill="#292A2E"/>
<path d="M328.652 98.9958H321.969C321.89 98.9958 321.814 98.9645 321.759 98.9089C321.703 98.8532 321.672 98.7778 321.672 98.6991C321.672 98.6204 321.703 98.5449 321.759 98.4892C321.814 98.4336 321.89 98.4023 321.969 98.4023H328.652C328.73 98.4023 328.806 98.4336 328.862 98.4892C328.917 98.5449 328.949 98.6204 328.949 98.6991C328.949 98.7778 328.917 98.8532 328.862 98.9089C328.806 98.9645 328.73 98.9958 328.652 98.9958Z" fill="#292A2E"/>
<path d="M333.994 104.349H327.904C327.825 104.349 327.75 104.318 327.694 104.262C327.639 104.206 327.607 104.131 327.607 104.052C327.607 103.974 327.639 103.898 327.694 103.842C327.75 103.787 327.825 103.755 327.904 103.755H333.994C334.073 103.755 334.148 103.787 334.204 103.842C334.259 103.898 334.291 103.974 334.291 104.052C334.291 104.131 334.259 104.206 334.204 104.262C334.148 104.318 334.073 104.349 333.994 104.349Z" fill="#292A2E"/>
<path d="M368.416 72.2299H332.058C331.98 72.2299 331.904 72.1986 331.849 72.143C331.793 72.0873 331.762 72.0119 331.762 71.9332C331.762 71.8545 331.793 71.779 331.849 71.7233C331.904 71.6677 331.98 71.6364 332.058 71.6364H368.416C368.494 71.6364 368.57 71.6677 368.625 71.7233C368.681 71.779 368.712 71.8545 368.712 71.9332C368.712 72.0119 368.681 72.0873 368.625 72.143C368.57 72.1986 368.494 72.2299 368.416 72.2299Z" fill="#292A2E"/>
<path d="M400.516 72.2299H374.842C374.763 72.2299 374.688 72.1986 374.632 72.143C374.576 72.0873 374.545 72.0119 374.545 71.9332C374.545 71.8545 374.576 71.779 374.632 71.7233C374.688 71.6677 374.763 71.6364 374.842 71.6364H400.516C400.594 71.6364 400.67 71.6677 400.725 71.7233C400.781 71.779 400.812 71.8545 400.812 71.9332C400.812 72.0119 400.781 72.0873 400.725 72.143C400.67 72.1986 400.594 72.2299 400.516 72.2299Z" fill="#F54253"/>
<path d="M414.293 72.2299H406.424C406.345 72.2299 406.27 72.1986 406.214 72.143C406.158 72.0873 406.127 72.0119 406.127 71.9332C406.127 71.8545 406.158 71.779 406.214 71.7233C406.27 71.6677 406.345 71.6364 406.424 71.6364H414.293C414.372 71.6364 414.447 71.6677 414.503 71.7233C414.559 71.779 414.59 71.8545 414.59 71.9332C414.59 72.0119 414.559 72.0873 414.503 72.143C414.447 72.1986 414.372 72.2299 414.293 72.2299Z" fill="#292A2E"/>
<path d="M386.22 82.9363H332.058C331.98 82.9363 331.904 82.905 331.849 82.8494C331.793 82.7937 331.762 82.7182 331.762 82.6395C331.762 82.5608 331.793 82.4854 331.849 82.4297C331.904 82.3741 331.98 82.3428 332.058 82.3428H386.22C386.299 82.3428 386.374 82.3741 386.43 82.4297C386.485 82.4854 386.517 82.5608 386.517 82.6395C386.517 82.7182 386.485 82.7937 386.43 82.8494C386.374 82.905 386.299 82.9363 386.22 82.9363Z" fill="#292A2E"/>
<path d="M400.516 82.9363H392.646C392.568 82.9363 392.492 82.905 392.437 82.8494C392.381 82.7937 392.35 82.7182 392.35 82.6395C392.35 82.5608 392.381 82.4854 392.437 82.4297C392.492 82.3741 392.568 82.3428 392.646 82.3428H400.516C400.595 82.3428 400.67 82.3741 400.726 82.4297C400.781 82.4854 400.813 82.5608 400.813 82.6395C400.813 82.7182 400.781 82.7937 400.726 82.8494C400.67 82.905 400.595 82.9363 400.516 82.9363Z" fill="#F54253"/>
<path d="M338.742 77.583H332.058C331.98 77.583 331.904 77.5518 331.849 77.4961C331.793 77.4405 331.762 77.365 331.762 77.2863C331.762 77.2076 331.793 77.1321 331.849 77.0765C331.904 77.0208 331.98 76.9896 332.058 76.9896H338.742C338.82 76.9896 338.896 77.0208 338.951 77.0765C339.007 77.1321 339.038 77.2076 339.038 77.2863C339.038 77.365 339.007 77.4405 338.951 77.4961C338.896 77.5518 338.82 77.583 338.742 77.583Z" fill="#F54253"/>
<path d="M382.711 77.583H345.168C345.089 77.583 345.014 77.5518 344.958 77.4961C344.902 77.4405 344.871 77.365 344.871 77.2863C344.871 77.2076 344.902 77.1321 344.958 77.0765C345.014 77.0208 345.089 76.9896 345.168 76.9896H382.711C382.79 76.9896 382.865 77.0208 382.921 77.0765C382.977 77.1321 383.008 77.2076 383.008 77.2863C383.008 77.365 382.977 77.4405 382.921 77.4961C382.865 77.5518 382.79 77.583 382.711 77.583Z" fill="#F54253"/>
<path d="M414.346 77.583H389.857C389.779 77.583 389.703 77.5518 389.647 77.4961C389.592 77.4405 389.561 77.365 389.561 77.2863C389.561 77.2076 389.592 77.1321 389.647 77.0765C389.703 77.0208 389.779 76.9896 389.857 76.9896H414.345C414.424 76.9896 414.499 77.0208 414.555 77.0765C414.61 77.1321 414.642 77.2076 414.642 77.2863C414.642 77.365 414.61 77.4405 414.555 77.4961C414.499 77.5518 414.424 77.583 414.345 77.583H414.346Z" fill="#292A2E"/>
<path d="M368.416 88.2895H332.058C331.98 88.2895 331.904 88.2582 331.849 88.2026C331.793 88.1469 331.762 88.0715 331.762 87.9928C331.762 87.9141 331.793 87.8386 331.849 87.7829C331.904 87.7273 331.98 87.696 332.058 87.696H368.416C368.494 87.696 368.57 87.7273 368.625 87.7829C368.681 87.8386 368.712 87.9141 368.712 87.9928C368.712 88.0715 368.681 88.1469 368.625 88.2026C368.57 88.2582 368.494 88.2895 368.416 88.2895Z" fill="#292A2E"/>
<path d="M388.646 88.2895H374.842C374.763 88.2895 374.688 88.2582 374.632 88.2026C374.576 88.1469 374.545 88.0715 374.545 87.9928C374.545 87.9141 374.576 87.8386 374.632 87.7829C374.688 87.7273 374.763 87.696 374.842 87.696H388.646C388.725 87.696 388.8 87.7273 388.856 87.7829C388.911 87.8386 388.943 87.9141 388.943 87.9928C388.943 88.0715 388.911 88.1469 388.856 88.2026C388.8 88.2582 388.725 88.2895 388.646 88.2895Z" fill="#F54253"/>
<path d="M414.294 88.2895H394.555C394.476 88.2895 394.4 88.2582 394.345 88.2026C394.289 88.1469 394.258 88.0715 394.258 87.9928C394.258 87.9141 394.289 87.8386 394.345 87.7829C394.4 87.7273 394.476 87.696 394.555 87.696H414.294C414.372 87.696 414.448 87.7273 414.503 87.7829C414.559 87.8386 414.59 87.9141 414.59 87.9928C414.59 88.0715 414.559 88.1469 414.503 88.2026C414.448 88.2582 414.372 88.2895 414.294 88.2895Z" fill="#292A2E"/>
<path d="M338.742 93.6426H332.058C331.98 93.6426 331.904 93.6114 331.849 93.5557C331.793 93.5001 331.762 93.4246 331.762 93.3459C331.762 93.2672 331.793 93.1917 331.849 93.1361C331.904 93.0804 331.98 93.0491 332.058 93.0491H338.742C338.82 93.0491 338.896 93.0804 338.951 93.1361C339.007 93.1917 339.038 93.2672 339.038 93.3459C339.038 93.4246 339.007 93.5001 338.951 93.5557C338.896 93.6114 338.82 93.6426 338.742 93.6426Z" fill="#F54253"/>
<path d="M382.711 93.6426H345.168C345.089 93.6426 345.014 93.6114 344.958 93.5557C344.902 93.5001 344.871 93.4246 344.871 93.3459C344.871 93.2672 344.902 93.1917 344.958 93.1361C345.014 93.0804 345.089 93.0491 345.168 93.0491H382.711C382.79 93.0491 382.865 93.0804 382.921 93.1361C382.977 93.1917 383.008 93.2672 383.008 93.3459C383.008 93.4246 382.977 93.5001 382.921 93.5557C382.865 93.6114 382.79 93.6426 382.711 93.6426Z" fill="#F54253"/>
<path d="M367.228 115.055H330.871C330.792 115.055 330.717 115.024 330.661 114.968C330.605 114.913 330.574 114.837 330.574 114.759C330.574 114.68 330.605 114.604 330.661 114.549C330.717 114.493 330.792 114.462 330.871 114.462H367.228C367.307 114.462 367.382 114.493 367.438 114.549C367.493 114.604 367.525 114.68 367.525 114.759C367.525 114.837 367.493 114.913 367.438 114.968C367.382 115.024 367.307 115.055 367.228 115.055Z" fill="#292A2E"/>
<path d="M399.328 115.055H373.654C373.575 115.055 373.5 115.024 373.444 114.968C373.389 114.913 373.357 114.837 373.357 114.759C373.357 114.68 373.389 114.604 373.444 114.549C373.5 114.493 373.575 114.462 373.654 114.462H399.328C399.407 114.462 399.482 114.493 399.538 114.549C399.594 114.604 399.625 114.68 399.625 114.759C399.625 114.837 399.594 114.913 399.538 114.968C399.482 115.024 399.407 115.055 399.328 115.055Z" fill="#F54253"/>
<path d="M349.424 109.702H330.871C330.792 109.702 330.717 109.671 330.661 109.615C330.605 109.56 330.574 109.484 330.574 109.405C330.574 109.327 330.605 109.251 330.661 109.196C330.717 109.14 330.792 109.109 330.871 109.109H349.424C349.502 109.109 349.578 109.14 349.633 109.196C349.689 109.251 349.72 109.327 349.72 109.405C349.72 109.484 349.689 109.56 349.633 109.615C349.578 109.671 349.502 109.702 349.424 109.702Z" fill="#F54253"/>
<path d="M381.523 109.702H355.849C355.771 109.702 355.695 109.671 355.64 109.615C355.584 109.56 355.553 109.484 355.553 109.405C355.553 109.327 355.584 109.251 355.64 109.196C355.695 109.14 355.771 109.109 355.849 109.109H381.523C381.602 109.109 381.678 109.14 381.733 109.196C381.789 109.251 381.82 109.327 381.82 109.405C381.82 109.484 381.789 109.56 381.733 109.615C381.678 109.671 381.602 109.702 381.523 109.702Z" fill="#F54253"/>
<path d="M413.158 109.702H388.67C388.591 109.702 388.516 109.671 388.46 109.615C388.404 109.56 388.373 109.484 388.373 109.405C388.373 109.327 388.404 109.251 388.46 109.196C388.516 109.14 388.591 109.109 388.67 109.109H413.157C413.236 109.109 413.311 109.14 413.367 109.196C413.423 109.251 413.454 109.327 413.454 109.405C413.454 109.484 413.423 109.56 413.367 109.615C413.311 109.671 413.236 109.702 413.157 109.702H413.158Z" fill="#292A2E"/>
<path d="M385.032 125.762H330.871C330.792 125.762 330.717 125.731 330.661 125.675C330.605 125.62 330.574 125.544 330.574 125.466C330.574 125.387 330.605 125.311 330.661 125.256C330.717 125.2 330.792 125.169 330.871 125.169H385.032C385.111 125.169 385.187 125.2 385.242 125.256C385.298 125.311 385.329 125.387 385.329 125.466C385.329 125.544 385.298 125.62 385.242 125.675C385.187 125.731 385.111 125.762 385.032 125.762Z" fill="#F54253"/>
<path d="M399.328 125.762H391.459C391.38 125.762 391.305 125.731 391.249 125.675C391.193 125.62 391.162 125.544 391.162 125.466C391.162 125.387 391.193 125.311 391.249 125.256C391.305 125.2 391.38 125.169 391.459 125.169H399.328C399.407 125.169 399.483 125.2 399.538 125.256C399.594 125.311 399.625 125.387 399.625 125.466C399.625 125.544 399.594 125.62 399.538 125.675C399.483 125.731 399.407 125.762 399.328 125.762Z" fill="#292A2E"/>
<path d="M337.554 120.409H330.871C330.792 120.409 330.717 120.378 330.661 120.322C330.605 120.267 330.574 120.191 330.574 120.112C330.574 120.034 330.605 119.958 330.661 119.903C330.717 119.847 330.792 119.816 330.871 119.816H337.554C337.633 119.816 337.708 119.847 337.764 119.903C337.82 119.958 337.851 120.034 337.851 120.112C337.851 120.191 337.82 120.267 337.764 120.322C337.708 120.378 337.633 120.409 337.554 120.409Z" fill="#F54253"/>
<path d="M381.524 120.409H343.98C343.902 120.409 343.826 120.378 343.771 120.322C343.715 120.267 343.684 120.191 343.684 120.112C343.684 120.034 343.715 119.958 343.771 119.903C343.826 119.847 343.902 119.816 343.98 119.816H381.524C381.602 119.816 381.678 119.847 381.734 119.903C381.789 119.958 381.821 120.034 381.821 120.112C381.821 120.191 381.789 120.267 381.734 120.322C381.678 120.378 381.602 120.409 381.524 120.409Z" fill="#292A2E"/>
<path d="M413.119 120.594H388.631C388.552 120.594 388.477 120.562 388.421 120.507C388.365 120.451 388.334 120.375 388.334 120.297C388.334 120.218 388.365 120.143 388.421 120.087C388.477 120.031 388.552 120 388.631 120H413.118C413.197 120 413.272 120.031 413.328 120.087C413.384 120.143 413.415 120.218 413.415 120.297C413.415 120.375 413.384 120.451 413.328 120.507C413.272 120.562 413.197 120.594 413.118 120.594H413.119Z" fill="#F54253"/>
<path d="M367.228 131.115H330.871C330.792 131.115 330.717 131.084 330.661 131.029C330.605 130.973 330.574 130.897 330.574 130.819C330.574 130.74 330.605 130.665 330.661 130.609C330.717 130.553 330.792 130.522 330.871 130.522H367.228C367.307 130.522 367.382 130.553 367.438 130.609C367.493 130.665 367.525 130.74 367.525 130.819C367.525 130.897 367.493 130.973 367.438 131.029C367.382 131.084 367.307 131.115 367.228 131.115Z" fill="#F54253"/>
<path d="M387.458 131.115H373.654C373.575 131.115 373.5 131.084 373.444 131.029C373.389 130.973 373.357 130.897 373.357 130.819C373.357 130.74 373.389 130.665 373.444 130.609C373.5 130.553 373.575 130.522 373.654 130.522H387.458C387.537 130.522 387.613 130.553 387.668 130.609C387.724 130.665 387.755 130.74 387.755 130.819C387.755 130.897 387.724 130.973 387.668 131.029C387.613 131.084 387.537 131.115 387.458 131.115Z" fill="#292A2E"/>
<path d="M413.106 131.115H393.367C393.288 131.115 393.213 131.084 393.157 131.029C393.102 130.973 393.07 130.897 393.07 130.819C393.07 130.74 393.102 130.665 393.157 130.609C393.213 130.553 393.288 130.522 393.367 130.522H413.106C413.185 130.522 413.26 130.553 413.316 130.609C413.372 130.665 413.403 130.74 413.403 130.819C413.403 130.897 413.372 130.973 413.316 131.029C413.26 131.084 413.185 131.115 413.106 131.115Z" fill="#F54253"/>
<path d="M311.803 136.844C311.724 136.844 311.648 136.812 311.593 136.757C311.537 136.701 311.506 136.626 311.506 136.547V52.1786C311.506 52.0999 311.537 52.0245 311.593 51.9688C311.648 51.9132 311.724 51.8819 311.803 51.8819C311.881 51.8819 311.957 51.9132 312.012 51.9688C312.068 52.0245 312.099 52.0999 312.099 52.1786V136.547C312.099 136.626 312.068 136.701 312.012 136.757C311.957 136.812 311.881 136.844 311.803 136.844Z" fill="#292A2E"/>
<path d="M411.185 46.5388C413.814 46.5388 415.946 44.4073 415.946 41.7779C415.946 39.1485 413.814 37.017 411.185 37.017C408.555 37.017 406.424 39.1485 406.424 41.7779C406.424 44.4073 408.555 46.5388 411.185 46.5388Z" fill="white"/>
<path d="M298.229 55.8855H285.379C285.3 55.8855 285.225 55.8542 285.169 55.7986C285.113 55.7429 285.082 55.6674 285.082 55.5887C285.082 55.51 285.113 55.4346 285.169 55.3789C285.225 55.3233 285.3 55.292 285.379 55.292H298.229C298.307 55.292 298.383 55.3233 298.439 55.3789C298.494 55.4346 298.526 55.51 298.526 55.5887C298.526 55.6674 298.494 55.7429 298.439 55.7986C298.383 55.8542 298.307 55.8855 298.229 55.8855Z" fill="#292A2E"/>
<path d="M294.358 61.7384H285.379C285.3 61.7384 285.225 61.7071 285.169 61.6515C285.113 61.5958 285.082 61.5203 285.082 61.4416C285.082 61.3629 285.113 61.2875 285.169 61.2318C285.225 61.1762 285.3 61.1449 285.379 61.1449H294.358C294.436 61.1449 294.512 61.1762 294.567 61.2318C294.623 61.2875 294.654 61.3629 294.654 61.4416C294.654 61.5203 294.623 61.5958 294.567 61.6515C294.512 61.7071 294.436 61.7384 294.358 61.7384Z" fill="#292A2E"/>
<path d="M302.254 67.5912H285.379C285.3 67.5912 285.225 67.56 285.169 67.5043C285.113 67.4487 285.082 67.3732 285.082 67.2945C285.082 67.2158 285.113 67.1403 285.169 67.0847C285.225 67.029 285.3 66.9977 285.379 66.9977H302.254C302.332 66.9977 302.408 67.029 302.464 67.0847C302.519 67.1403 302.55 67.2158 302.55 67.2945C302.55 67.3732 302.519 67.4487 302.464 67.5043C302.408 67.56 302.332 67.5912 302.254 67.5912Z" fill="#292A2E"/>
<path d="M305.403 73.4441H291.314C291.236 73.4441 291.16 73.4129 291.104 73.3572C291.049 73.3016 291.018 73.2261 291.018 73.1474C291.018 73.0687 291.049 72.9932 291.104 72.9376C291.16 72.8819 291.236 72.8506 291.314 72.8506H305.403C305.482 72.8506 305.558 72.8819 305.613 72.9376C305.669 72.9932 305.7 73.0687 305.7 73.1474C305.7 73.2261 305.669 73.3016 305.613 73.3572C305.558 73.4129 305.482 73.4441 305.403 73.4441Z" fill="#292A2E"/>
<path d="M298.59 79.2976H291.314C291.236 79.2976 291.16 79.2663 291.104 79.2107C291.049 79.155 291.018 79.0795 291.018 79.0008C291.018 78.9221 291.049 78.8467 291.104 78.791C291.16 78.7354 291.236 78.7041 291.314 78.7041H298.59C298.669 78.7041 298.745 78.7354 298.8 78.791C298.856 78.8467 298.887 78.9221 298.887 79.0008C298.887 79.0795 298.856 79.155 298.8 79.2107C298.745 79.2663 298.669 79.2976 298.59 79.2976Z" fill="#292A2E"/>
<path d="M304.164 85.1505H291.314C291.236 85.1505 291.16 85.1192 291.104 85.0636C291.049 85.0079 291.018 84.9325 291.018 84.8538C291.018 84.7751 291.049 84.6996 291.104 84.6439C291.16 84.5883 291.236 84.557 291.314 84.557H304.164C304.243 84.557 304.318 84.5883 304.374 84.6439C304.43 84.6996 304.461 84.7751 304.461 84.8538C304.461 84.9325 304.43 85.0079 304.374 85.0636C304.318 85.1192 304.243 85.1505 304.164 85.1505Z" fill="#292A2E"/>
<path d="M295.287 91.0034H285.379C285.3 91.0034 285.225 90.9721 285.169 90.9165C285.113 90.8608 285.082 90.7854 285.082 90.7067C285.082 90.628 285.113 90.5525 285.169 90.4968C285.225 90.4412 285.3 90.4099 285.379 90.4099H295.287C295.366 90.4099 295.441 90.4412 295.497 90.4968C295.552 90.5525 295.584 90.628 295.584 90.7067C295.584 90.7854 295.552 90.8608 295.497 90.9165C295.441 90.9721 295.366 91.0034 295.287 91.0034Z" fill="#292A2E"/>
<path d="M291.881 96.8557H285.379C285.3 96.8557 285.225 96.8244 285.169 96.7688C285.113 96.7131 285.082 96.6376 285.082 96.5589C285.082 96.4802 285.113 96.4048 285.169 96.3491C285.225 96.2935 285.3 96.2622 285.379 96.2622H291.881C291.96 96.2622 292.035 96.2935 292.091 96.3491C292.146 96.4048 292.178 96.4802 292.178 96.5589C292.178 96.6376 292.146 96.7131 292.091 96.7688C292.035 96.8244 291.96 96.8557 291.881 96.8557Z" fill="#292A2E"/>
<path d="M245.642 0H36.6035V209.038H245.642V0Z" fill="#F4F4F4"/>
<path d="M36.6029 0H34.207V209.038H36.6029V0Z" fill="#F4F4F4"/>
<path opacity="0.05" d="M36.6029 0H34.207V209.038H36.6029V0Z" fill="#292A2E"/>
<path opacity="0.05" d="M87.2446 144.044V89.353H132.045V121.128H201.441V177.388H230.935V209.038H201.441H195.759H46.6602V144.044H87.2446Z" fill="#292A2E"/>
<path opacity="0.34" d="M126.294 95.2913H93.6699V101.23H126.294V95.2913Z" fill="#FFFFFA"/>
<path opacity="0.34" d="M126.294 107.596H93.6699V113.535H126.294V107.596Z" fill="#FFFFFA"/>
<path opacity="0.34" d="M126.294 119.902H93.6699V125.84H126.294V119.902Z" fill="#FFFFFA"/>
<path opacity="0.34" d="M58.4565 149.808H52.4434V155.747H58.4565V149.808Z" fill="#FFFFFA"/>
<path opacity="0.34" d="M58.4565 162.113H52.4434V168.052H58.4565V162.113Z" fill="#FFFFFA"/>
<path opacity="0.34" d="M58.4565 174.419H52.4434V180.358H58.4565V174.419Z" fill="#FFFFFA"/>
<path opacity="0.34" d="M69.5815 149.808H63.5684V155.747H69.5815V149.808Z" fill="#FFFFFA"/>
<path opacity="0.34" d="M69.5815 162.113H63.5684V168.052H69.5815V162.113Z" fill="#FFFFFA"/>
<path opacity="0.34" d="M69.5815 174.419H63.5684V180.358H69.5815V174.419Z" fill="#FFFFFA"/>
<path opacity="0.34" d="M80.4057 149.808H74.3926V155.747H80.4057V149.808Z" fill="#FFFFFA"/>
<path opacity="0.34" d="M80.4057 162.113H74.3926V168.052H80.4057V162.113Z" fill="#FFFFFA"/>
<path opacity="0.34" d="M80.4057 174.419H74.3926V180.358H80.4057V174.419Z" fill="#FFFFFA"/>
<path d="M36.6035 103.347H78.6657V0H82.1441V103.347H195.758V0H199.236V103.347H245.642V106.825H199.236V209.038H195.758V106.825H82.1441V209.038H78.6657V106.825H36.6035V103.347Z" fill="white"/>
<path d="M253.968 208.786H28.2754V215.738H253.968V208.786Z" fill="#F4F4F4"/>
<path opacity="0.1" d="M253.968 208.786H28.2754V215.738H253.968V208.786Z" fill="#292A2E"/>
<path opacity="0.1" d="M28.2764 208.786H25.0176V215.738H28.2764V208.786Z" fill="#292A2E"/>
<path opacity="0.1" d="M28.2764 208.786H25.0176V215.738H28.2764V208.786Z" fill="#292A2E"/>
<path d="M34.2067 8.89978L245.641 8.89978V3.73118L34.2067 3.73118V8.89978Z" fill="white"/>
<path d="M34.2067 18.5545L245.641 18.5545V13.3859L34.2067 13.3859V18.5545Z" fill="white"/>
<path d="M34.2067 28.2087L245.641 28.2087V23.0401L34.2067 23.0401V28.2087Z" fill="white"/>
<path d="M34.2067 37.8628L245.641 37.8628V32.6942L34.2067 32.6942V37.8628Z" fill="white"/>
<path d="M34.2067 47.5162L245.641 47.5162V42.3476L34.2067 42.3476V47.5162Z" fill="white"/>
<path d="M56.6634 53.346H59.832L59.832 -3.8147e-06H56.6634L56.6634 53.346Z" fill="white"/>
<path d="M57.9801 61.0073C60.3843 61.0073 62.3333 59.0583 62.3333 56.6541C62.3333 54.2499 60.3843 52.301 57.9801 52.301C55.5759 52.301 53.627 54.2499 53.627 56.6541C53.627 59.0583 55.5759 61.0073 57.9801 61.0073Z" fill="white"/>
<path d="M36.0543 499.6L34.8887 499.375L53.1061 318.346L54.2717 318.57L36.0543 499.6Z" fill="#494949"/>
<path d="M103.886 499.6L102.721 499.375L120.938 318.346L122.103 318.57L103.886 499.6Z" fill="#494949"/>
<path d="M253.831 499.6L254.996 499.375L236.779 318.346L235.613 318.57L253.831 499.6Z" fill="#494949"/>
<path d="M185.998 499.6L187.164 499.375L168.947 318.346L167.781 318.57L185.998 499.6Z" fill="#494949"/>
<path d="M161.837 238.675L160.66 238.832L171.302 318.538L172.479 318.381L161.837 238.675Z" fill="#494949"/>
<path d="M39.6843 238.674L38.5078 238.831L49.15 318.537L50.3265 318.38L39.6843 238.674Z" fill="#494949"/>
<path d="M172.377 312.621H52.8974C49.6738 312.621 47.0605 315.235 47.0605 318.458V318.459C47.0605 321.682 49.6738 324.296 52.8974 324.296H172.377C175.6 324.296 178.213 321.682 178.213 318.459V318.458C178.213 315.235 175.6 312.621 172.377 312.621Z" fill="#292A2E"/>
<path opacity="0.8" d="M172.377 312.621H52.8974C49.6738 312.621 47.0605 315.235 47.0605 318.458V318.459C47.0605 321.682 49.6738 324.296 52.8974 324.296H172.377C175.6 324.296 178.213 321.682 178.213 318.459V318.458C178.213 315.235 175.6 312.621 172.377 312.621Z" fill="white"/>
<path d="M172.378 324.889H52.8991C52.0546 324.889 51.2185 324.722 50.4383 324.399C49.6581 324.076 48.9493 323.602 48.3522 323.005C47.755 322.408 47.2814 321.699 46.9582 320.919C46.6351 320.139 46.4688 319.303 46.4688 318.458C46.4688 317.614 46.6351 316.778 46.9582 315.997C47.2814 315.217 47.755 314.508 48.3522 313.911C48.9493 313.314 49.6581 312.84 50.4383 312.517C51.2185 312.194 52.0546 312.028 52.8991 312.028H172.378C173.222 312.028 174.058 312.194 174.838 312.517C175.619 312.84 176.327 313.314 176.925 313.911C177.522 314.508 177.995 315.217 178.318 315.997C178.642 316.778 178.808 317.614 178.808 318.458C178.808 319.303 178.642 320.139 178.318 320.919C177.995 321.699 177.522 322.408 176.925 323.005C176.327 323.602 175.619 324.076 174.838 324.399C174.058 324.722 173.222 324.889 172.378 324.889ZM52.8991 313.215C52.2105 313.215 51.5287 313.35 50.8925 313.614C50.2564 313.877 49.6784 314.264 49.1915 314.751C48.7046 315.237 48.3183 315.815 48.0548 316.452C47.7913 317.088 47.6557 317.77 47.6557 318.458C47.6557 319.147 47.7913 319.829 48.0548 320.465C48.3183 321.101 48.7046 321.679 49.1915 322.166C49.6784 322.653 50.2564 323.039 50.8925 323.302C51.5287 323.566 52.2105 323.702 52.8991 323.702H172.378C173.066 323.702 173.748 323.566 174.384 323.302C175.02 323.039 175.598 322.653 176.085 322.166C176.572 321.679 176.958 321.101 177.222 320.465C177.485 319.829 177.621 319.147 177.621 318.458C177.621 317.77 177.485 317.088 177.222 316.452C176.958 315.815 176.572 315.237 176.085 314.751C175.598 314.264 175.02 313.877 174.384 313.614C173.748 313.35 173.066 313.215 172.378 313.215H52.8991Z" fill="#292A2E"/>
<path d="M237.953 312.621H118.474C115.25 312.621 112.637 315.235 112.637 318.458V318.459C112.637 321.682 115.25 324.296 118.474 324.296H237.953C241.176 324.296 243.79 321.682 243.79 318.459V318.458C243.79 315.235 241.176 312.621 237.953 312.621Z" fill="white"/>
<path d="M237.952 324.889H118.473C117.629 324.889 116.793 324.722 116.013 324.399C115.232 324.076 114.523 323.602 113.926 323.005C113.329 322.408 112.856 321.699 112.532 320.919C112.209 320.139 112.043 319.303 112.043 318.458C112.043 317.614 112.209 316.778 112.532 315.997C112.856 315.217 113.329 314.508 113.926 313.911C114.523 313.314 115.232 312.84 116.013 312.517C116.793 312.194 117.629 312.028 118.473 312.028H237.952C238.797 312.028 239.633 312.194 240.413 312.517C241.193 312.84 241.902 313.314 242.499 313.911C243.096 314.508 243.57 315.217 243.893 315.997C244.216 316.778 244.383 317.614 244.383 318.458C244.383 319.303 244.216 320.139 243.893 320.919C243.57 321.699 243.096 322.408 242.499 323.005C241.902 323.602 241.193 324.076 240.413 324.399C239.633 324.722 238.797 324.889 237.952 324.889ZM118.473 313.215C117.785 313.215 117.103 313.35 116.467 313.614C115.831 313.877 115.253 314.264 114.766 314.751C114.279 315.237 113.893 315.815 113.629 316.452C113.366 317.088 113.23 317.77 113.23 318.458C113.23 319.147 113.366 319.829 113.629 320.465C113.893 321.101 114.279 321.679 114.766 322.166C115.253 322.653 115.831 323.039 116.467 323.302C117.103 323.566 117.785 323.702 118.473 323.702H237.952C238.641 323.702 239.323 323.566 239.959 323.302C240.595 323.039 241.173 322.653 241.66 322.166C242.147 321.679 242.533 321.101 242.797 320.465C243.06 319.829 243.196 319.147 243.196 318.458C243.196 317.77 243.06 317.088 242.797 316.452C242.533 315.815 242.147 315.237 241.66 314.751C241.173 314.264 240.595 313.877 239.959 313.614C239.323 313.35 238.641 313.215 237.952 313.215H118.473Z" fill="#292A2E"/>
<path d="M155.292 238.752H39.4172C37.5227 238.751 35.6929 238.062 34.2694 236.812C32.8459 235.562 31.9259 233.836 31.6812 231.957L24.0165 173.097C23.8732 171.997 23.9663 170.878 24.2896 169.817C24.6129 168.755 25.1589 167.775 25.8912 166.941C26.6235 166.108 27.5252 165.44 28.5362 164.982C29.5471 164.525 30.644 164.288 31.7536 164.288H147.627C149.522 164.288 151.352 164.978 152.775 166.228C154.199 167.478 155.119 169.203 155.363 171.082L163.028 229.943C163.171 231.043 163.078 232.162 162.755 233.223C162.432 234.284 161.886 235.265 161.154 236.098C160.421 236.932 159.52 237.6 158.509 238.057C157.498 238.515 156.402 238.752 155.292 238.752Z" fill="#292A2E"/>
<path opacity="0.8" d="M155.292 238.752H39.4172C37.5227 238.751 35.6929 238.062 34.2694 236.812C32.8459 235.562 31.9259 233.836 31.6812 231.957L24.0165 173.097C23.8732 171.997 23.9663 170.878 24.2896 169.817C24.6129 168.755 25.1589 167.775 25.8912 166.941C26.6235 166.108 27.5252 165.44 28.5362 164.982C29.5471 164.525 30.644 164.288 31.7536 164.288H147.627C149.522 164.288 151.352 164.978 152.775 166.228C154.199 167.478 155.119 169.203 155.363 171.082L163.028 229.943C163.171 231.043 163.078 232.162 162.755 233.223C162.432 234.284 161.886 235.265 161.154 236.098C160.421 236.932 159.52 237.6 158.509 238.057C157.498 238.515 156.402 238.752 155.292 238.752Z" fill="white"/>
<path d="M155.292 239.345H39.4167C37.3793 239.341 35.4127 238.597 33.8818 237.253C32.3509 235.908 31.3597 234.054 31.092 232.034L23.4278 173.173C23.2735 171.989 23.3736 170.786 23.7214 169.644C24.0691 168.501 24.6566 167.446 25.4446 166.549C26.2326 165.652 27.2029 164.933 28.2908 164.441C29.3787 163.949 30.5591 163.694 31.7531 163.694H147.627C149.664 163.699 151.631 164.442 153.162 165.787C154.693 167.131 155.684 168.986 155.951 171.005L163.616 229.867C163.77 231.051 163.67 232.254 163.322 233.396C162.974 234.538 162.387 235.593 161.599 236.49C160.811 237.387 159.841 238.106 158.753 238.598C157.666 239.091 156.486 239.345 155.292 239.345ZM31.7531 164.881C30.728 164.881 29.7147 165.1 28.7808 165.523C27.847 165.946 27.014 166.563 26.3376 167.333C25.6611 168.103 25.1568 169.009 24.8582 169.989C24.5595 170.97 24.4735 172.003 24.6059 173.02L32.2707 231.881C32.5003 233.615 33.3512 235.207 34.6656 236.362C35.98 237.516 37.6686 238.154 39.4179 238.158H155.292C156.317 238.158 157.33 237.939 158.263 237.516C159.197 237.093 160.03 236.476 160.706 235.706C161.382 234.936 161.886 234.03 162.185 233.05C162.484 232.069 162.569 231.036 162.437 230.02L154.774 171.159C154.544 169.425 153.693 167.833 152.379 166.679C151.065 165.524 149.376 164.886 147.627 164.882L31.7531 164.881Z" fill="#292A2E"/>
<path d="M161.845 238.752H45.9698C44.0753 238.751 42.2456 238.062 40.8222 236.812C39.3988 235.562 38.479 233.836 38.2344 231.957L30.5672 173.097C30.424 171.997 30.5171 170.878 30.8403 169.817C31.1635 168.756 31.7095 167.775 32.4416 166.942C33.1738 166.108 34.0754 165.44 35.0861 164.983C36.0969 164.525 37.1937 164.288 38.3032 164.288H154.181C156.075 164.288 157.905 164.978 159.328 166.228C160.751 167.478 161.671 169.203 161.916 171.082L169.581 229.943C169.724 231.043 169.631 232.162 169.308 233.223C168.984 234.284 168.438 235.265 167.706 236.098C166.974 236.932 166.073 237.6 165.062 238.057C164.051 238.515 162.954 238.752 161.845 238.752Z" fill="white"/>
<path d="M161.844 239.345H45.9693C43.9319 239.34 41.9654 238.597 40.4346 237.252C38.9038 235.908 37.9127 234.054 37.6452 232.034L29.9804 173.173C29.8263 171.989 29.9265 170.786 30.2743 169.644C30.6221 168.502 31.2096 167.447 31.9975 166.55C32.7853 165.653 33.7555 164.934 34.8432 164.442C35.9309 163.949 37.1111 163.694 38.3051 163.694H154.179C156.217 163.699 158.184 164.443 159.714 165.787C161.245 167.132 162.237 168.986 162.504 171.005L170.169 229.867C170.323 231.051 170.223 232.254 169.875 233.396C169.527 234.538 168.94 235.593 168.152 236.49C167.364 237.387 166.394 238.106 165.306 238.598C164.218 239.09 163.038 239.345 161.844 239.345ZM38.3051 164.881C37.2802 164.882 36.2671 165.101 35.3335 165.524C34.4 165.947 33.5673 166.564 32.8911 167.334C32.215 168.104 31.7108 169.01 31.4123 169.991C31.1139 170.971 31.0279 172.004 31.1602 173.02L38.822 231.881C39.0519 233.615 39.9029 235.207 41.2173 236.361C42.5316 237.516 44.22 238.154 45.9693 238.158H161.844C162.869 238.158 163.883 237.939 164.817 237.517C165.75 237.094 166.583 236.477 167.26 235.707C167.936 234.936 168.441 234.031 168.739 233.05C169.038 232.069 169.124 231.036 168.992 230.02L161.327 171.159C161.097 169.425 160.246 167.833 158.932 166.679C157.617 165.524 155.929 164.886 154.179 164.882L38.3051 164.881Z" fill="#292A2E"/>
<path d="M251.917 252.191L250.736 252.31L275.756 499.998L276.937 499.879L251.917 252.191Z" fill="#494949"/>
<path d="M149.357 73.9254C149.357 73.9254 157.057 68.1135 158.965 54.7353C160.442 44.3773 150.887 51.0878 150.887 51.0878C150.887 51.0878 151.878 43.6188 146.436 44.3601C140.994 45.1013 137.949 52.9471 137.949 52.9471" fill="#0C0C0C"/>
<path d="M118.31 45.2343C118.31 45.2343 91.3094 48.1311 101.07 84.7155L103.46 84.8757L108.31 85.2009" fill="#0C0C0C"/>
<path d="M144.834 122.925C144.715 122.909 143.398 144.765 118.005 142.862C100.427 141.545 94.1588 122.894 93.7559 122.894C95.6514 122.492 97.9933 121.88 98.9245 121.67C100.953 121.199 102.79 120.122 104.192 118.581C105.593 117.041 106.492 115.11 106.769 113.046C107.284 109.948 106.413 94.0972 106.679 90.9624L133.663 96.9851C133.286 103.606 130.647 118.954 139.895 121.67C141.436 122.119 143.094 122.533 144.834 122.925Z" fill="#E98862"/>
<path opacity="0.52" d="M134.042 115.398C133.619 114.035 133.347 112.631 133.23 111.21C132.934 107.966 132.994 104.699 133.408 101.469C127.924 100.729 122.757 98.4651 118.495 94.9352C117.994 96.7856 115.238 104.871 116.002 106.63C117.441 109.954 124.217 115.398 134.042 115.398Z" fill="#0C0C0C"/>
<path d="M128.472 111.072C117.827 110.117 105.085 103.391 104.902 88.9404L104.736 75.9017C104.552 61.4517 111.993 49.6408 125.599 49.4675C139.204 49.2948 149.523 60.8795 149.707 75.3302L149.78 81.1023C149.771 83.0848 149.626 85.0643 149.348 87.027C148.65 92.22 147.567 100.115 144.044 105.456C140.715 110.498 135.273 111.681 128.472 111.072Z" fill="#E98862"/>
<path d="M133.412 97.8645C135.609 97.9641 137.799 97.5459 139.804 96.6437C139.846 96.626 139.883 96.6003 139.915 96.5681C139.946 96.5359 139.971 96.4978 139.988 96.456C140.005 96.4142 140.013 96.3694 140.013 96.3244C140.012 96.2793 140.003 96.2347 139.985 96.1933C139.967 96.1518 139.942 96.1142 139.91 96.0827C139.877 96.0512 139.839 96.0263 139.797 96.0095C139.756 95.9927 139.711 95.9843 139.666 95.9847C139.621 95.9852 139.576 95.9946 139.535 96.0123C135.214 97.855 131.291 97.585 128.189 95.2318C128.127 95.1822 128.062 95.136 127.994 95.0936C127.916 95.0574 127.827 95.0518 127.745 95.0778C127.664 95.1038 127.594 95.1596 127.552 95.234C127.509 95.3085 127.495 95.3963 127.514 95.4802C127.533 95.564 127.582 95.6378 127.653 95.687C127.678 95.7025 127.717 95.7339 127.771 95.7772C129.402 97.0189 131.366 97.7457 133.412 97.8645Z" fill="#0C0C0C"/>
<path d="M133.31 101.119C133.707 101.143 134.106 101.134 134.501 101.09C134.591 101.081 134.674 101.035 134.732 100.965C134.789 100.894 134.815 100.803 134.806 100.713C134.796 100.622 134.751 100.539 134.68 100.482C134.61 100.425 134.519 100.398 134.428 100.408C132.05 100.66 130.916 99.5708 130.868 99.5239C130.803 99.4595 130.716 99.4232 130.625 99.4231C130.534 99.423 130.447 99.459 130.382 99.5233C130.318 99.5876 130.281 99.6749 130.281 99.7659C130.281 99.857 130.317 99.9443 130.381 100.009C131.2 100.706 132.235 101.098 133.31 101.119Z" fill="#0C0C0C"/>
<path d="M145.215 83.881C146.141 83.881 146.891 83.1307 146.891 82.205C146.891 81.2794 146.141 80.5291 145.215 80.5291C144.289 80.5291 143.539 81.2794 143.539 82.205C143.539 83.1307 144.289 83.881 145.215 83.881Z" fill="#0C0C0C"/>
<path d="M128.842 82.8537C129.768 82.8537 130.518 82.1033 130.518 81.1777C130.518 80.2521 129.768 79.5017 128.842 79.5017C127.916 79.5017 127.166 80.2521 127.166 81.1777C127.166 82.1033 127.916 82.8537 128.842 82.8537Z" fill="#0C0C0C"/>
<path d="M105.802 93.3322C101.667 93.385 98.2597 89.004 98.2057 84.8692C98.1517 80.7344 101.476 78.4115 105.611 78.3593L107.776 81.1024L109.356 93.2871L105.802 93.3322Z" fill="#E98862"/>
<path d="M109.913 86.6881C109.913 86.6881 111.31 66.241 117.51 64.9781C121.639 64.1371 131.653 69.9948 140.928 68.2256C144.986 67.4541 148.838 68.4559 149.23 70.3728C149.385 71.1319 151.913 60.2243 145.559 51.9489C140.499 45.3583 123.943 43.4977 116.41 45.658C95.5535 51.6414 104.757 79.259 104.757 79.259L105.687 86.3083L109.913 86.6881Z" fill="#0C0C0C"/>
<path d="M135.908 93.0378H135.934C137.267 93.0241 139.5 92.8532 139.491 91.8562C139.482 91.03 137.132 82.1379 136.863 81.1267C136.838 81.0427 136.78 80.9719 136.704 80.9293C136.627 80.8866 136.537 80.8753 136.452 80.8978C136.367 80.9204 136.294 80.9749 136.248 81.05C136.203 81.1251 136.188 81.2149 136.207 81.3005C137.251 85.2389 138.806 91.3018 138.813 91.8645C138.684 92.1018 137.308 92.3464 135.928 92.3606C135.841 92.3625 135.758 92.3977 135.696 92.459C135.634 92.5202 135.598 92.6029 135.596 92.6899C135.593 92.7769 135.624 92.8616 135.682 92.9264C135.74 92.9912 135.821 93.0313 135.908 93.0384V93.0378Z" fill="#0C0C0C"/>
<path d="M140.455 73.1164C141.855 72.731 143.334 72.731 144.734 73.1164C145.422 73.3013 146.078 73.5886 146.681 73.9686C147.276 74.3407 147.823 74.7866 148.306 75.2957C148.399 75.3855 148.453 75.508 148.456 75.6371C148.46 75.7661 148.413 75.8913 148.325 75.986C148.237 76.0807 148.116 76.1372 147.987 76.1435C147.858 76.1498 147.732 76.1054 147.635 76.0197L147.605 75.9936C147.157 75.5789 146.658 75.2222 146.121 74.9319C145.594 74.6432 145.026 74.4359 144.437 74.317C143.278 74.0739 142.075 74.1412 140.95 74.5123L140.902 74.5289C140.716 74.5945 140.512 74.5837 140.335 74.4989C140.157 74.414 140.02 74.262 139.955 74.0764C139.889 73.8907 139.9 73.6866 139.985 73.5089C140.069 73.3312 140.221 73.1945 140.407 73.1289L140.455 73.1164Z" fill="#0C0C0C"/>
<path d="M130.541 73.9586C129.475 73.4408 128.292 73.2137 127.111 73.3004C126.511 73.3394 125.921 73.4691 125.36 73.685C124.79 73.9015 124.249 74.1886 123.75 74.5396L123.718 74.561C123.611 74.6296 123.482 74.6543 123.357 74.63C123.232 74.6057 123.121 74.5343 123.048 74.4305C122.974 74.3268 122.944 74.1987 122.962 74.0729C122.981 73.9471 123.047 73.8332 123.147 73.755C123.695 73.3148 124.295 72.9455 124.935 72.6559C125.583 72.36 126.272 72.1628 126.978 72.0707C128.417 71.8745 129.883 72.0709 131.22 72.6393C131.401 72.718 131.543 72.8654 131.615 73.049C131.688 73.2326 131.684 73.4375 131.606 73.6185C131.527 73.7995 131.379 73.9419 131.196 74.0142C131.012 74.0865 130.807 74.083 130.626 74.0043L130.585 73.9847L130.541 73.9586Z" fill="#0C0C0C"/>
<path d="M138.463 59.0415C141.524 58.4021 143.242 54.232 142.301 49.7274C141.36 45.2228 138.116 42.0894 135.055 42.7289C131.995 43.3683 130.277 47.5384 131.218 52.043C132.159 56.5476 135.403 59.6809 138.463 59.0415Z" fill="#0C0C0C"/>
<path d="M309.16 468.693C309.16 468.693 312.343 485.188 327.786 486.107C343.23 487.026 339.881 499.33 339.881 499.33H280.863V469.843L309.16 468.693Z" fill="#F54253"/>
<path d="M196.879 458.279C196.879 458.279 192.454 474.484 205.906 482.126C219.358 489.768 210.922 499.33 210.922 499.33L157.965 473.276L170.98 446.818L196.879 458.279Z" fill="#F54253"/>
<path d="M164.082 453.701L208.741 312.815H127.79C111.529 312.815 104.75 299.026 104.75 282.766C104.75 266.506 120.736 252.252 136.996 252.252H246.25C256.167 252.252 267.288 258.317 272.731 266.608C278.175 274.899 276.703 287.746 272.759 296.846L201.245 470.537" fill="#262626"/>
<path opacity="0.8" d="M164.082 453.701L208.741 312.815H127.79C111.529 312.815 104.75 299.026 104.75 282.766C104.75 266.506 120.736 252.252 136.996 252.252H246.25C256.167 252.252 267.288 258.317 272.731 266.608C278.175 274.899 276.703 287.746 272.759 296.846L201.245 470.537" fill="#0A0A0A"/>
<path d="M277.47 484.011L202.797 312.815L104.749 312.809C81.7749 311.008 71.2531 298.417 71.5878 282.16C71.9178 266.11 80.0449 250.256 96.0231 250.256H228.174C239.996 250.499 249.297 263.564 253.683 274.544L315.761 473.531" fill="#262626"/>
<path d="M64.9 250.453C64.9 250.453 60.5457 278.848 67.4478 294.635C76.0646 314.345 108.366 312.809 108.366 312.809L106.546 250.256L64.9 250.453Z" fill="#262626"/>
<path d="M256.491 249.894L187.232 235.543C184.346 234.945 181.657 233.628 179.415 231.716C177.173 229.803 175.449 227.356 174.403 224.6L147.163 152.817C146.333 150.663 145.937 148.366 145.998 146.058C146.059 143.75 146.575 141.477 147.517 139.37C148.459 137.262 149.808 135.362 151.487 133.777C153.166 132.192 155.141 130.955 157.299 130.136C159.457 129.317 161.756 128.932 164.064 129.004C166.371 129.076 168.641 129.603 170.744 130.555C172.847 131.507 174.742 132.865 176.318 134.552C177.895 136.238 179.123 138.219 179.931 140.381L203.761 203.171L263.604 215.572C263.604 215.572 257.692 250.143 256.491 249.894Z" fill="#F54253"/>
<path d="M176.385 171.046C175.585 180.442 169.916 239.064 169.144 250.638H64.9438C64.345 240.2 62.4013 195.881 60.1307 175.468C57.9639 155.989 57.1775 144.873 59.6737 138.82C64.0761 128.143 75.0929 124.302 84.5826 123.017C90.3767 122.233 99.092 121.67 99.092 121.67C99.092 121.67 99.8302 136.598 117.426 137.429C141.378 138.556 139.778 121.67 139.897 121.67C143.777 121.67 164.899 124.492 170.181 127.934C177.641 132.797 179.845 139.422 179.932 145.51C180.032 152.519 177.292 160.389 176.385 171.046Z" fill="#F54253"/>
<path d="M172.289 218.947H172.264C172.226 218.943 172.188 218.933 172.153 218.915C172.118 218.897 172.088 218.872 172.062 218.843C172.037 218.813 172.018 218.778 172.006 218.741C171.994 218.704 171.99 218.665 171.993 218.626L174.698 186.131C174.7 186.092 174.711 186.053 174.728 186.018C174.746 185.983 174.77 185.952 174.8 185.927C174.83 185.901 174.865 185.882 174.902 185.871C174.94 185.859 174.979 185.855 175.018 185.86C175.057 185.863 175.095 185.874 175.13 185.892C175.164 185.909 175.195 185.934 175.22 185.964C175.245 185.993 175.264 186.028 175.276 186.065C175.288 186.102 175.293 186.141 175.289 186.18L172.584 218.675C172.578 218.749 172.544 218.818 172.49 218.868C172.435 218.919 172.364 218.946 172.289 218.947Z" fill="#0C0C0C"/>
<path d="M221.916 238.45L244.779 168.168C245.181 166.932 245.963 165.856 247.014 165.093C248.065 164.33 249.33 163.919 250.629 163.919H349.711C350.682 163.919 351.64 164.149 352.505 164.589C353.37 165.03 354.118 165.67 354.689 166.455C355.26 167.241 355.636 168.151 355.788 169.11C355.939 170.069 355.862 171.05 355.561 171.974L326.763 242.258C326.362 243.493 325.579 244.569 324.528 245.332C323.478 246.096 322.212 246.507 320.914 246.507H227.766C226.795 246.507 225.837 246.277 224.972 245.836C224.106 245.395 223.358 244.755 222.787 243.969C222.216 243.183 221.84 242.274 221.688 241.314C221.537 240.355 221.615 239.373 221.916 238.45Z" fill="#292A2E"/>
<path d="M221.916 238.45L244.779 168.168C245.181 166.932 245.963 165.856 247.014 165.093C248.065 164.33 249.33 163.919 250.629 163.919H349.711C350.682 163.919 351.64 164.149 352.505 164.589C353.37 165.03 354.118 165.67 354.689 166.455C355.26 167.241 355.636 168.151 355.788 169.11C355.939 170.069 355.862 171.05 355.561 171.974L326.763 242.258C326.362 243.493 325.579 244.569 324.528 245.332C323.478 246.096 322.212 246.507 320.914 246.507H227.766C226.795 246.507 225.837 246.277 224.972 245.836C224.106 245.395 223.358 244.755 222.787 243.969C222.216 243.183 221.84 242.274 221.688 241.314C221.537 240.355 221.615 239.373 221.916 238.45Z" fill="#292A2E"/>
<path d="M240.567 240.805H178.213C176.66 240.805 175.4 242.065 175.4 243.618V243.691C175.4 245.244 176.66 246.504 178.213 246.504H240.567C242.12 246.504 243.38 245.244 243.38 243.691V243.618C243.38 242.065 242.12 240.805 240.567 240.805Z" fill="#292A2E"/>
<path d="M240.567 240.805H178.213C176.66 240.805 175.4 242.065 175.4 243.618V243.691C175.4 245.244 176.66 246.504 178.213 246.504H240.567C242.12 246.504 243.38 245.244 243.38 243.691V243.618C243.38 242.065 242.12 240.805 240.567 240.805Z" fill="#292A2E"/>
<path d="M285.771 218.41C291.167 218.41 295.54 214.036 295.54 208.64C295.54 203.245 291.167 198.871 285.771 198.871C280.376 198.871 276.002 203.245 276.002 208.64C276.002 214.036 280.376 218.41 285.771 218.41Z" fill="white"/>
<path d="M216.704 221.986L201.143 216.531L203.376 216.377C204.097 216.313 204.766 215.978 205.248 215.439C205.731 214.901 205.991 214.199 205.976 213.476C205.955 213.103 205.859 212.739 205.692 212.404C205.526 212.07 205.294 211.773 205.009 211.532C204.724 211.29 204.393 211.109 204.036 211C203.679 210.891 203.304 210.855 202.932 210.896L175.4 213.822L176.113 222.67C176.335 225.418 177.373 228.036 179.093 230.191C180.813 232.345 183.138 233.937 185.768 234.761L197.691 238.475C198.307 238.68 198.975 238.666 199.582 238.436C200.188 238.205 200.696 237.772 201.02 237.209C201.302 236.695 201.412 236.105 201.334 235.524C201.256 234.943 200.995 234.402 200.588 233.98C200.615 233.961 200.637 233.937 200.654 233.91C200.67 233.882 200.681 233.852 200.686 233.82C200.69 233.788 200.688 233.755 200.68 233.724C200.671 233.693 200.656 233.663 200.636 233.638L202.832 234.327C203.518 234.557 204.265 234.519 204.923 234.219C205.581 233.92 206.1 233.381 206.376 232.713C206.602 232.107 206.607 231.441 206.39 230.832C206.173 230.222 205.748 229.71 205.189 229.383C205.215 229.369 205.238 229.351 205.257 229.328L206.16 229.611C206.776 229.817 207.444 229.803 208.051 229.572C208.657 229.341 209.166 228.908 209.489 228.345C209.831 227.722 209.917 226.99 209.731 226.304C209.546 225.619 209.101 225.031 208.492 224.665C208.497 224.647 208.5 224.629 208.5 224.61L214.981 226.881C215.303 226.997 215.646 227.049 215.988 227.033C216.33 227.016 216.666 226.932 216.975 226.785C217.285 226.638 217.562 226.431 217.791 226.176C218.02 225.922 218.196 225.624 218.31 225.301C218.423 224.977 218.471 224.635 218.451 224.293C218.431 223.95 218.344 223.616 218.194 223.308C218.044 223 217.834 222.725 217.577 222.498C217.32 222.272 217.02 222.098 216.696 221.988L216.704 221.986Z" fill="#E98862"/>
<path opacity="0.2" d="M208.255 224.861C208.225 224.86 208.195 224.855 208.166 224.845L201.898 222.566C201.834 222.542 201.781 222.494 201.752 222.432C201.724 222.369 201.721 222.298 201.744 222.234C201.768 222.17 201.816 222.117 201.878 222.088C201.941 222.06 202.012 222.057 202.076 222.08L208.345 224.36C208.402 224.38 208.45 224.421 208.481 224.473C208.511 224.526 208.522 224.588 208.511 224.647C208.501 224.707 208.469 224.761 208.423 224.8C208.376 224.839 208.317 224.861 208.257 224.861H208.255Z" fill="#0A0A0A"/>
<path opacity="0.2" d="M205.086 229.418C205.056 229.418 205.027 229.413 204.999 229.403L200.059 227.65C200.026 227.639 199.996 227.622 199.97 227.6C199.944 227.577 199.923 227.55 199.907 227.519C199.892 227.488 199.883 227.454 199.881 227.42C199.879 227.385 199.884 227.351 199.896 227.319C199.907 227.286 199.925 227.256 199.948 227.231C199.971 227.206 199.999 227.185 200.03 227.171C200.062 227.156 200.095 227.148 200.13 227.147C200.164 227.146 200.199 227.151 200.231 227.163L205.172 228.917C205.229 228.937 205.278 228.977 205.308 229.029C205.339 229.082 205.35 229.144 205.34 229.204C205.33 229.264 205.299 229.318 205.252 229.357C205.206 229.396 205.147 229.418 205.086 229.418Z" fill="#0A0A0A"/>
<path opacity="0.2" d="M200.432 234.043C200.4 234.043 200.369 234.037 200.34 234.026L198.025 233.143C197.961 233.119 197.91 233.07 197.882 233.007C197.854 232.945 197.852 232.874 197.876 232.81C197.901 232.746 197.95 232.694 198.012 232.666C198.075 232.638 198.146 232.636 198.21 232.661L200.525 233.543C200.581 233.565 200.628 233.605 200.658 233.658C200.688 233.711 200.698 233.772 200.687 233.832C200.676 233.891 200.645 233.945 200.598 233.983C200.552 234.022 200.493 234.043 200.433 234.043H200.432Z" fill="#0A0A0A"/>
<path d="M187.587 208.586L122.305 208.542L97.6076 148.297L60.7656 163.786L91.5778 235.288L91.8787 236C93.3863 239.476 95.9255 242.404 99.1527 244.388C102.38 246.372 106.139 247.316 109.92 247.093L188.573 242.447L187.587 208.586Z" fill="#F54253"/>
<path d="M108.837 247.421C105.177 247.415 101.599 246.342 98.5386 244.335C95.4784 242.328 93.0693 239.472 91.6056 236.118L91.3042 235.406L65.0469 174.483L65.5917 174.245L92.1499 235.885C93.6402 239.299 96.1401 242.174 99.3135 244.125C102.487 246.076 106.182 247.008 109.901 246.797L188.266 242.168L187.295 208.884L122.102 208.84L103.111 162.517L103.66 162.293L122.499 208.246L187.871 208.291L188.876 242.726L188.588 242.743L109.938 247.389C109.57 247.41 109.202 247.421 108.837 247.421Z" fill="#0C0C0C"/>
<path d="M36.2262 252.195L11.1895 499.881L12.3704 500L37.4071 252.314L36.2262 252.195Z" fill="#494949"/>
<path d="M139.67 252.194L114.633 499.881L115.814 500L140.851 252.314L139.67 252.194Z" fill="#494949"/>
<path d="M355.359 252.191L354.178 252.31L379.197 499.998L380.378 499.879L355.359 252.191Z" fill="#494949"/>
<path d="M377.922 247.389H15.3044C12.6186 247.389 10.4414 249.566 10.4414 252.251C10.4414 254.937 12.6186 257.114 15.3044 257.114H377.922C380.607 257.114 382.785 254.937 382.785 252.251C382.785 249.566 380.607 247.389 377.922 247.389Z" fill="#292A2E"/>
<path opacity="0.8" d="M377.922 247.389H15.3044C12.6186 247.389 10.4414 249.566 10.4414 252.251C10.4414 254.937 12.6186 257.114 15.3044 257.114H377.922C380.607 257.114 382.785 254.937 382.785 252.251C382.785 249.566 380.607 247.389 377.922 247.389Z" fill="white"/>
<path d="M377.922 257.707H15.3063C14.585 257.715 13.8694 257.579 13.2008 257.309C12.5322 257.038 11.924 256.637 11.4113 256.13C10.8986 255.622 10.4916 255.018 10.2138 254.353C9.936 253.687 9.79297 252.973 9.79297 252.251C9.79297 251.53 9.936 250.816 10.2138 250.15C10.4916 249.484 10.8986 248.88 11.4113 248.373C11.924 247.866 12.5322 247.465 13.2008 247.194C13.8694 246.923 14.585 246.788 15.3063 246.795H377.922C378.643 246.788 379.359 246.923 380.027 247.194C380.696 247.465 381.304 247.866 381.817 248.373C382.329 248.88 382.737 249.484 383.014 250.15C383.292 250.816 383.435 251.53 383.435 252.251C383.435 252.973 383.292 253.687 383.014 254.353C382.737 255.018 382.329 255.622 381.817 256.13C381.304 256.637 380.696 257.038 380.027 257.309C379.359 257.579 378.643 257.715 377.922 257.707ZM15.3063 247.982C14.7414 247.975 14.1809 248.081 13.6571 248.292C13.1333 248.504 12.6566 248.817 12.2548 249.215C11.853 249.612 11.534 250.085 11.3163 250.606C11.0986 251.127 10.9865 251.686 10.9865 252.251C10.9865 252.816 11.0986 253.375 11.3163 253.897C11.534 254.418 11.853 254.891 12.2548 255.288C12.6566 255.685 13.1333 255.999 13.6571 256.21C14.1809 256.422 14.7414 256.527 15.3063 256.52H377.922C378.487 256.527 379.047 256.422 379.571 256.21C380.095 255.999 380.571 255.685 380.973 255.288C381.375 254.891 381.694 254.418 381.912 253.897C382.129 253.375 382.242 252.816 382.242 252.251C382.242 251.686 382.129 251.127 381.912 250.606C381.694 250.085 381.375 249.612 380.973 249.215C380.571 248.817 380.095 248.504 379.571 248.292C379.047 248.081 378.487 247.975 377.922 247.982H15.3063Z" fill="#292A2E"/>
<path d="M377.92 247.389H122.699C120.013 247.389 117.836 249.566 117.836 252.251C117.836 254.937 120.013 257.114 122.699 257.114H377.92C380.605 257.114 382.783 254.937 382.783 252.251C382.783 249.566 380.605 247.389 377.92 247.389Z" fill="white"/>
<path d="M377.92 257.707H122.698C121.261 257.692 119.888 257.111 118.877 256.089C117.866 255.068 117.299 253.689 117.299 252.251C117.299 250.814 117.866 249.435 118.877 248.413C119.888 247.392 121.261 246.81 122.698 246.795H377.92C378.641 246.788 379.357 246.923 380.025 247.194C380.694 247.465 381.302 247.866 381.815 248.373C382.327 248.88 382.734 249.484 383.012 250.15C383.29 250.816 383.433 251.53 383.433 252.251C383.433 252.973 383.29 253.687 383.012 254.353C382.734 255.018 382.327 255.622 381.815 256.13C381.302 256.637 380.694 257.038 380.025 257.309C379.357 257.579 378.641 257.715 377.92 257.707ZM122.698 247.982C121.575 247.995 120.502 248.451 119.712 249.25C118.922 250.049 118.479 251.128 118.479 252.251C118.479 253.375 118.922 254.453 119.712 255.252C120.502 256.052 121.575 256.507 122.698 256.52H377.92C378.485 256.527 379.045 256.422 379.569 256.21C380.093 255.999 380.569 255.685 380.971 255.288C381.373 254.891 381.692 254.418 381.91 253.897C382.127 253.375 382.24 252.816 382.24 252.251C382.24 251.686 382.127 251.127 381.91 250.606C381.692 250.085 381.373 249.612 380.971 249.215C380.569 248.817 380.093 248.504 379.569 248.292C379.045 248.081 378.485 247.975 377.92 247.982H122.698Z" fill="#292A2E"/>
<path d="M387.699 421.037C387.621 421.038 387.543 421.022 387.471 420.993C387.399 420.963 387.334 420.919 387.279 420.864C386.443 420.028 385.08 404.687 381.408 359.009C379.906 340.32 378.487 322.666 377.452 311.938C377.378 311.172 377.081 311.083 376.983 311.053C375.565 310.626 371.255 314.024 368.848 317.001C368.749 317.124 368.606 317.202 368.449 317.218C368.293 317.235 368.136 317.189 368.013 317.09C367.891 316.991 367.813 316.847 367.796 316.691C367.78 316.534 367.826 316.377 367.925 316.255C369.517 314.287 374.704 309.128 377.324 309.916C377.853 310.075 378.511 310.535 378.633 311.824C379.67 322.562 381.089 340.22 382.592 358.914C384.823 386.671 387.35 418.118 388.18 420.098C388.244 420.187 388.282 420.291 388.29 420.4C388.298 420.509 388.276 420.618 388.226 420.715C388.176 420.812 388.101 420.893 388.008 420.95C387.915 421.007 387.808 421.037 387.699 421.037Z" fill="#494949"/>
<path d="M375.927 331.624C385.775 323.73 389.039 311.443 383.218 304.181C377.396 296.918 364.693 297.43 354.845 305.324C344.997 313.218 341.733 325.505 347.555 332.768C353.376 340.03 366.079 339.518 375.927 331.624Z" fill="#0CBC8B"/>
<path opacity="0.2" d="M375.927 331.624C385.775 323.73 389.039 311.443 383.218 304.181C377.396 296.918 364.693 297.43 354.845 305.324C344.997 313.218 341.733 325.505 347.555 332.768C353.376 340.03 366.079 339.518 375.927 331.624Z" fill="white"/>
<path d="M350.316 334.614C350.26 334.614 350.205 334.598 350.157 334.568C350.11 334.538 350.072 334.495 350.048 334.444C350.024 334.393 350.015 334.336 350.022 334.28C350.029 334.225 350.052 334.172 350.088 334.128L378.154 300.283C378.204 300.222 378.277 300.184 378.355 300.177C378.433 300.17 378.511 300.194 378.572 300.244C378.633 300.294 378.671 300.367 378.678 300.445C378.685 300.523 378.661 300.602 378.611 300.662L350.545 334.508C350.517 334.541 350.482 334.568 350.442 334.587C350.403 334.605 350.36 334.615 350.316 334.614Z" fill="white"/>
<path d="M393.82 413.782C393.725 413.782 393.632 413.759 393.548 413.716C393.464 413.673 393.391 413.61 393.336 413.532C393.281 413.455 393.246 413.366 393.232 413.272C393.219 413.178 393.228 413.083 393.26 412.993L403.803 382.675C404.113 381.784 404.642 380.986 405.341 380.352C406.04 379.719 406.887 379.271 407.804 379.05C408.721 378.828 409.679 378.841 410.59 379.085C411.501 379.33 412.336 379.8 413.018 380.451L418.592 385.775C418.706 385.884 418.772 386.033 418.776 386.19C418.779 386.348 418.72 386.5 418.612 386.614C418.503 386.728 418.353 386.794 418.196 386.798C418.038 386.801 417.886 386.742 417.772 386.633L412.199 381.309C411.66 380.795 411.001 380.424 410.281 380.231C409.562 380.038 408.806 380.028 408.082 380.203C407.358 380.378 406.69 380.731 406.138 381.231C405.586 381.731 405.168 382.362 404.923 383.065L394.381 413.384C394.341 413.5 394.265 413.601 394.164 413.673C394.064 413.744 393.943 413.782 393.82 413.782Z" fill="#494949"/>
<path d="M434.164 402.561C441.462 396.784 441.029 384.078 433.195 374.182C425.362 364.285 413.095 360.946 405.797 366.723C398.499 372.5 398.932 385.205 406.766 395.102C414.599 404.998 426.866 408.338 434.164 402.561Z" fill="#0CBC8B"/>
<path d="M382.913 419.104C382.78 419.104 382.651 419.059 382.546 418.976C382.441 418.894 382.367 418.778 382.336 418.649L364.641 344.675C364.52 344.171 364.263 343.71 363.897 343.342C363.531 342.975 363.07 342.716 362.567 342.593C362.063 342.471 361.535 342.489 361.041 342.647C360.548 342.805 360.107 343.096 359.768 343.488L354.314 349.79C354.263 349.85 354.201 349.899 354.131 349.935C354.061 349.971 353.985 349.992 353.907 349.998C353.828 350.004 353.75 349.995 353.675 349.97C353.601 349.945 353.532 349.906 353.473 349.855C353.413 349.804 353.365 349.741 353.33 349.671C353.295 349.601 353.274 349.524 353.269 349.446C353.264 349.368 353.274 349.289 353.299 349.215C353.325 349.141 353.364 349.072 353.416 349.014L358.87 342.711C359.352 342.154 359.979 341.741 360.681 341.516C361.383 341.292 362.133 341.266 362.849 341.441C363.565 341.616 364.219 341.984 364.739 342.507C365.259 343.029 365.625 343.685 365.796 344.402L383.488 418.375C383.523 418.528 383.497 418.688 383.415 418.822C383.333 418.955 383.201 419.051 383.049 419.087C383.004 419.098 382.959 419.104 382.913 419.104Z" fill="#494949"/>
<path d="M376.384 366.224C378.534 353.787 372.843 342.419 363.671 340.833C354.499 339.247 345.32 348.043 343.17 360.48C341.019 372.917 346.711 384.285 355.883 385.871C365.054 387.457 374.233 378.661 376.384 366.224Z" fill="#0CBC8B"/>
<path d="M387.7 421.038C387.675 421.038 387.651 421.036 387.627 421.033C387.549 421.024 387.475 420.999 387.407 420.961C387.339 420.922 387.279 420.871 387.231 420.81C387.183 420.748 387.148 420.678 387.127 420.603C387.106 420.528 387.1 420.449 387.11 420.372L398.407 328.645C398.531 327.646 398.94 326.704 399.585 325.931C400.231 325.159 401.087 324.59 402.048 324.292C403.01 323.994 404.037 323.98 405.007 324.252C405.976 324.524 406.846 325.07 407.513 325.825L420.425 340.45C420.53 340.568 420.583 340.722 420.573 340.879C420.563 341.037 420.491 341.183 420.373 341.288C420.255 341.392 420.101 341.445 419.943 341.435C419.786 341.425 419.639 341.353 419.535 341.235L406.622 326.61C406.107 326.027 405.435 325.605 404.686 325.395C403.936 325.184 403.142 325.195 402.399 325.425C401.656 325.656 400.995 326.096 400.496 326.693C399.997 327.289 399.681 328.018 399.585 328.79L388.289 420.516C388.271 420.66 388.201 420.792 388.093 420.888C387.984 420.984 387.845 421.037 387.7 421.038Z" fill="#494949"/>
<path d="M433.67 348.577C438.176 340.432 432.875 328.877 421.831 322.768C410.786 316.659 398.181 318.309 393.675 326.454C389.17 334.599 394.471 346.154 405.515 352.263C416.56 358.373 429.165 356.722 433.67 348.577Z" fill="#0CBC8B"/>
<path opacity="0.2" d="M434.164 402.561C441.462 396.784 441.029 384.078 433.195 374.182C425.362 364.285 413.095 360.946 405.797 366.723C398.499 372.5 398.932 385.205 406.766 395.102C414.599 404.998 426.866 408.338 434.164 402.561Z" fill="white"/>
<path opacity="0.5" d="M376.384 366.224C378.534 353.787 372.843 342.419 363.671 340.833C354.499 339.247 345.32 348.043 343.17 360.48C341.019 372.917 346.711 384.285 355.883 385.871C365.054 387.457 374.233 378.661 376.384 366.224Z" fill="white"/>
<path opacity="0.5" d="M433.67 348.577C438.176 340.432 432.875 328.877 421.831 322.768C410.786 316.659 398.181 318.309 393.675 326.454C389.17 334.599 394.471 346.154 405.515 352.263C416.56 358.373 429.165 356.722 433.67 348.577Z" fill="white"/>
<path d="M402.148 498.867H373.248L368.459 406.401H406.937L402.148 498.867Z" fill="#292A2E"/>
<path opacity="0.3" d="M402.148 498.867H373.248L368.459 406.401H406.937L402.148 498.867Z" fill="white"/>
<path d="M434.163 402.853C434.118 402.853 434.074 402.843 434.034 402.824C433.994 402.804 433.958 402.776 433.93 402.741L405.562 366.903C405.513 366.841 405.491 366.762 405.5 366.684C405.509 366.606 405.549 366.535 405.611 366.486C405.672 366.437 405.751 366.415 405.829 366.424C405.907 366.433 405.979 366.472 406.028 366.534L434.396 402.372C434.431 402.416 434.452 402.468 434.458 402.524C434.464 402.579 434.455 402.635 434.431 402.686C434.406 402.736 434.368 402.778 434.321 402.808C434.274 402.838 434.219 402.853 434.163 402.853Z" fill="white"/>
<path d="M431.783 351.449C431.72 351.448 431.659 351.427 431.608 351.389L395.307 324.883C395.244 324.837 395.201 324.767 395.189 324.689C395.177 324.611 395.196 324.532 395.243 324.468C395.289 324.405 395.359 324.362 395.437 324.35C395.515 324.338 395.594 324.357 395.658 324.404L431.958 350.91C432.008 350.948 432.045 351 432.063 351.059C432.082 351.119 432.081 351.182 432.062 351.241C432.042 351.301 432.004 351.352 431.954 351.388C431.903 351.425 431.842 351.444 431.78 351.444L431.783 351.449Z" fill="white"/>
<path d="M354.408 385.484C354.382 385.484 354.356 385.48 354.331 385.473C354.255 385.453 354.191 385.403 354.151 385.335C354.112 385.267 354.101 385.187 354.121 385.111L365.677 341.815C365.699 341.741 365.749 341.678 365.816 341.64C365.883 341.602 365.963 341.592 366.038 341.612C366.112 341.632 366.176 341.68 366.216 341.747C366.256 341.813 366.268 341.892 366.25 341.967L354.695 385.263C354.678 385.326 354.641 385.382 354.589 385.422C354.537 385.462 354.473 385.484 354.408 385.484Z" fill="white"/>
<path d="M416.101 499.701H0.415435C0.305255 499.701 0.199587 499.657 0.121678 499.579C0.0437689 499.501 0 499.395 0 499.285C0 499.175 0.0437689 499.069 0.121678 498.992C0.199587 498.914 0.305255 498.87 0.415435 498.87H416.1C416.21 498.87 416.316 498.914 416.394 498.992C416.471 499.069 416.515 499.175 416.515 499.285C416.515 499.395 416.471 499.501 416.394 499.579C416.316 499.657 416.21 499.701 416.1 499.701H416.101Z" fill="#292A2E"/>
<g opacity="0.65">
<path opacity="0.65" d="M416.101 499.701H0.415435C0.305255 499.701 0.199587 499.657 0.121678 499.579C0.0437689 499.501 0 499.395 0 499.285C0 499.175 0.0437689 499.069 0.121678 498.992C0.199587 498.914 0.305255 498.87 0.415435 498.87H416.1C416.21 498.87 416.316 498.914 416.394 498.992C416.471 499.069 416.515 499.175 416.515 499.285C416.515 499.395 416.471 499.501 416.394 499.579C416.316 499.657 416.21 499.701 416.1 499.701H416.101Z" fill="#292A2E"/>
</g>
</svg>
