<svg width="701" height="390" viewBox="0 0 701 390" fill="none" xmlns="http://www.w3.org/2000/svg">
<path d="M682.167 151.013L674.746 169.983L680.007 172.037L687.428 153.067L682.167 151.013Z" fill="#367CFF"/>
<path d="M218.604 104.495L214.396 108.261L227.996 123.433L232.204 119.667L218.604 104.495Z" fill="#0CBC8B"/>
<path d="M280.954 172.404L264.639 184.614L268.026 189.132L284.341 176.922L280.954 172.404Z" fill="#367CFF"/>
<path d="M469.652 32.2812L465.781 36.3917L480.627 50.3501L484.498 46.2397L469.652 32.2812Z" fill="#367CFF"/>
<path d="M361.705 36.8201L351.545 54.4786L356.442 57.2916L366.602 39.6332L361.705 36.8201Z" fill="#0CBC8B"/>
<path d="M509.24 187.829L504.463 190.841L515.342 208.066L520.119 205.054L509.24 187.829Z" fill="#0CBC8B"/>
<path d="M287.727 271.705L282.674 274.228L291.784 292.448L296.837 289.926L287.727 271.705Z" fill="#0CBC8B"/>
<path d="M213.797 223.764L207.943 243.274L213.354 244.894L219.207 225.384L213.797 223.764Z" fill="#367CFF"/>
<path d="M567.412 284.559L550.482 295.903L553.629 300.591L570.559 289.247L567.412 284.559Z" fill="#367CFF"/>
<path d="M569.948 -3.41475e-05L559.789 17.658L564.686 20.4709L574.846 2.81293L569.948 -3.41475e-05Z" fill="#0CBC8B"/>
<path d="M5.26121 144.462L0 146.517L7.42094 165.487L12.6821 163.432L5.26121 144.462Z" fill="#0CBC8B"/>
<path d="M551.408 121.026L548.021 125.544L564.337 137.755L567.723 133.237L551.408 121.026Z" fill="#0CBC8B"/>
<path d="M93.1212 37.8047L78.2754 51.7632L82.1465 55.8736L96.9923 41.9152L93.1212 37.8047Z" fill="#367CFF"/>
<path d="M257.554 21.1824L252.656 23.9954L262.816 41.6539L267.713 38.8408L257.554 21.1824Z" fill="#367CFF"/>
<path d="M57.8084 242.893L46.9297 260.118L51.7068 263.13L62.5855 245.905L57.8084 242.893Z" fill="#0CBC8B"/>
<path d="M9.62492 290.078L6.47852 294.768L23.4181 306.113L26.5645 301.423L9.62492 290.078Z" fill="#367CFF"/>
<path d="M663.163 65.1422L658.266 67.9552L668.425 85.6132L673.322 82.8003L663.163 65.1422Z" fill="#367CFF"/>
<path d="M450.922 113.264L437.322 128.437L441.53 132.202L455.13 117.03L450.922 113.264Z" fill="#367CFF"/>
<path d="M331.534 284.282L322.424 302.502L327.477 305.025L336.587 286.804L331.534 284.282Z" fill="#0CBC8B"/>
<path d="M405.469 236.342L400.059 237.962L405.912 257.472L411.322 255.852L405.469 236.342Z" fill="#367CFF"/>
<path d="M407.291 247.475L388.037 232.852C387.614 232.531 387.129 232.301 386.612 232.178C386.095 232.054 385.558 232.04 385.036 232.135C384.513 232.23 384.016 232.433 383.576 232.73C383.136 233.028 382.762 233.414 382.48 233.864C381.984 234.71 381.82 235.71 382.021 236.67C382.221 237.63 382.771 238.482 383.564 239.06L387.692 242.195L370.181 238.289C368.242 237.821 365.561 238.486 365.179 240.695C364.977 241.535 365.065 242.419 365.43 243.202C365.795 243.986 366.415 244.623 367.188 245.01C367.179 245.027 367.172 245.045 367.167 245.063C367.166 245.078 367.166 245.092 367.167 245.107L364.176 244.385C363.622 244.252 363.045 244.243 362.487 244.361C361.93 244.479 361.405 244.719 360.953 245.065C360.5 245.411 360.13 245.853 359.87 246.36C359.61 246.866 359.466 247.425 359.449 247.994C359.441 248.891 359.741 249.763 360.3 250.465C360.858 251.168 361.641 251.657 362.517 251.852L363.788 252.159C363.796 252.199 363.811 252.239 363.833 252.274C362.925 252.266 362.044 252.581 361.347 253.163C360.65 253.745 360.182 254.555 360.028 255.449C359.889 256.432 360.125 257.432 360.69 258.249C361.256 259.066 362.109 259.64 363.079 259.856L366.241 260.619C366.189 260.64 366.142 260.673 366.105 260.715C366.069 260.757 366.042 260.808 366.029 260.862C366.016 260.928 366.023 260.995 366.048 261.057C365.237 261.275 364.52 261.752 364.007 262.416C363.494 263.08 363.214 263.894 363.209 264.733C363.222 265.613 363.533 266.464 364.09 267.147C364.647 267.83 365.419 268.305 366.28 268.495L392.952 274.934C396.683 275.834 400.599 275.6 404.197 274.263C407.795 272.926 410.911 270.546 413.146 267.428C415.074 264.739 415.876 261.405 415.382 258.135C414.889 254.865 413.138 251.916 410.503 249.914L407.291 247.475Z" fill="#E98862"/>
<g opacity="0.2">
<path opacity="0.2" d="M384.502 248.962C384.48 249.051 384.423 249.128 384.345 249.177C384.266 249.225 384.172 249.241 384.082 249.221L367.432 245.481C367.387 245.471 367.344 245.452 367.306 245.426C367.268 245.399 367.236 245.365 367.211 245.326C367.186 245.287 367.169 245.243 367.161 245.197C367.154 245.152 367.155 245.105 367.165 245.06C367.175 245.014 367.194 244.972 367.221 244.934C367.248 244.896 367.282 244.864 367.321 244.839C367.36 244.814 367.404 244.797 367.449 244.789C367.495 244.782 367.542 244.783 367.587 244.793L384.236 248.532C384.282 248.542 384.325 248.561 384.363 248.588C384.401 248.615 384.433 248.649 384.458 248.688C384.483 248.728 384.5 248.772 384.507 248.817C384.515 248.863 384.514 248.91 384.503 248.956L384.502 248.962Z" fill="#0C0C0C"/>
</g>
<g opacity="0.2">
<path opacity="0.2" d="M383.054 256.345C383.032 256.435 382.975 256.513 382.896 256.561C382.816 256.61 382.721 256.625 382.63 256.604L364.049 252.434C364.004 252.424 363.961 252.405 363.923 252.378C363.885 252.351 363.853 252.317 363.828 252.278C363.803 252.238 363.786 252.194 363.778 252.149C363.771 252.103 363.772 252.056 363.782 252.011C363.806 251.921 363.863 251.843 363.941 251.793C364.02 251.744 364.115 251.726 364.206 251.744L382.787 255.914C382.833 255.924 382.876 255.943 382.914 255.97C382.952 255.996 382.984 256.03 383.009 256.07C383.034 256.109 383.05 256.153 383.058 256.199C383.066 256.245 383.065 256.292 383.054 256.337V256.345Z" fill="#0C0C0C"/>
</g>
<g opacity="0.2">
<path opacity="0.2" d="M381.535 264.349C381.513 264.439 381.457 264.516 381.378 264.564C381.3 264.613 381.205 264.629 381.115 264.608L366.293 261.283C366.202 261.262 366.123 261.206 366.072 261.127C366.022 261.048 366.006 260.952 366.026 260.861C366.047 260.77 366.103 260.69 366.182 260.64C366.261 260.59 366.357 260.573 366.448 260.594L381.27 263.92C381.315 263.93 381.358 263.949 381.396 263.976C381.435 264.002 381.467 264.036 381.492 264.076C381.517 264.115 381.534 264.159 381.541 264.205C381.549 264.251 381.548 264.298 381.537 264.343L381.535 264.349Z" fill="#0C0C0C"/>
</g>
<path d="M315.884 146.893L326.633 125.247C326.869 124.771 327.202 124.35 327.61 124.01C328.018 123.67 328.493 123.418 329.003 123.271C329.514 123.125 330.05 123.086 330.576 123.157C331.103 123.229 331.609 123.409 332.062 123.686C332.883 124.224 333.475 125.047 333.722 125.997C333.97 126.946 333.857 127.953 333.403 128.823L331.098 133.465L345.05 122.195C346.579 120.915 349.276 120.322 350.6 122.131C351.155 122.793 351.469 123.625 351.49 124.489C351.512 125.353 351.239 126.198 350.718 126.888C350.733 126.899 350.748 126.912 350.761 126.927C350.769 126.939 350.775 126.952 350.781 126.965L353.14 124.99C353.577 124.625 354.091 124.361 354.642 124.219C355.194 124.077 355.771 124.06 356.33 124.168C356.89 124.277 357.418 124.509 357.876 124.848C358.334 125.186 358.711 125.623 358.979 126.125C359.385 126.925 359.504 127.84 359.316 128.717C359.128 129.594 358.645 130.38 357.946 130.943L356.942 131.784C356.953 131.824 356.957 131.866 356.953 131.907C357.763 131.497 358.692 131.387 359.575 131.599C360.458 131.811 361.237 132.329 361.773 133.062C362.335 133.881 362.567 134.882 362.423 135.865C362.279 136.848 361.769 137.74 360.996 138.364L358.503 140.45C358.559 140.445 358.615 140.454 358.667 140.475C358.719 140.497 358.765 140.53 358.802 140.573C358.843 140.626 358.867 140.69 358.873 140.757C359.695 140.592 360.55 140.701 361.305 141.068C362.059 141.435 362.672 142.04 363.049 142.79C363.429 143.585 363.529 144.485 363.334 145.344C363.138 146.203 362.658 146.971 361.971 147.523L340.936 165.129C337.994 167.592 334.382 169.121 330.564 169.519C326.746 169.918 322.896 169.168 319.507 167.366C316.586 165.812 314.386 163.182 313.374 160.033C312.363 156.885 312.619 153.466 314.09 150.504L315.884 146.893Z" fill="#E98862"/>
<g opacity="0.2">
<path opacity="0.2" d="M336.963 138.111C337.023 138.182 337.108 138.226 337.201 138.235C337.293 138.244 337.386 138.215 337.457 138.157L350.714 127.42C350.787 127.361 350.833 127.276 350.843 127.182C350.852 127.089 350.825 126.996 350.766 126.924C350.707 126.851 350.621 126.805 350.528 126.795C350.435 126.785 350.342 126.813 350.269 126.872L337.013 137.608C336.941 137.667 336.895 137.752 336.885 137.845C336.875 137.937 336.902 138.03 336.96 138.102L336.963 138.111Z" fill="#0C0C0C"/>
</g>
<g opacity="0.2">
<path opacity="0.2" d="M341.54 144.084C341.6 144.155 341.686 144.199 341.778 144.208C341.871 144.216 341.963 144.188 342.035 144.129L356.829 132.147C356.901 132.088 356.947 132.003 356.956 131.911C356.966 131.818 356.939 131.726 356.88 131.653C356.82 131.584 356.735 131.54 356.643 131.53C356.552 131.52 356.46 131.546 356.386 131.601L341.587 143.581C341.515 143.64 341.469 143.724 341.459 143.817C341.449 143.909 341.476 144.002 341.535 144.075L341.54 144.084Z" fill="#0C0C0C"/>
</g>
<g opacity="0.2">
<path opacity="0.2" d="M346.462 150.58C346.522 150.651 346.607 150.696 346.7 150.705C346.792 150.713 346.885 150.685 346.956 150.626L358.757 141.068C358.83 141.009 358.877 140.924 358.886 140.831C358.896 140.738 358.868 140.645 358.809 140.572C358.75 140.499 358.665 140.453 358.572 140.443C358.479 140.433 358.385 140.461 358.313 140.52L346.509 150.078C346.437 150.137 346.391 150.222 346.381 150.314C346.371 150.407 346.398 150.499 346.456 150.572L346.462 150.58Z" fill="#0C0C0C"/>
</g>
<path d="M74.6342 128.333C74.6342 128.333 73.1182 151.062 68.0011 159.306C53.2675 183.045 48.9991 209.751 63.7532 223.704C78.5072 237.657 172.613 237.851 179.743 205.759C185.745 178.741 172.865 175.836 169.73 153.55C168.312 143.465 164.411 122.319 164.411 122.319" fill="#0A0A0A"/>
<path d="M155.387 201.054C155.224 201.033 153.422 230.919 118.674 228.314C94.618 226.513 86.041 201.01 85.4902 201.01C88.0838 200.459 92.451 199.658 93.6027 199.044C97.3909 197.011 102.076 194.894 103.299 187.544C104.005 183.311 102.808 161.636 103.176 157.347L140.101 165.585C139.585 174.638 135.974 195.623 148.631 199.337C150.736 199.953 153.005 200.518 155.387 201.054Z" fill="#E98862"/>
<path opacity="0.5" d="M140.62 190.762C140.041 188.899 139.669 186.979 139.509 185.036C139.103 180.601 139.184 176.135 139.751 171.718C132.246 170.705 125.176 167.61 119.344 162.784C118.659 165.314 114.887 176.369 115.932 178.774C117.904 183.319 127.177 190.762 140.62 190.762Z" fill="#0C0C0C"/>
<path d="M135.845 181.451C121.287 182.862 102.451 177.04 98.5488 157.668L95.0281 140.19C91.1262 120.819 98.1456 103.068 116.399 99.397C134.653 95.7282 151.46 108.685 155.362 128.057L156.921 135.795C158.418 143.228 161.819 178.939 135.845 181.451Z" fill="#E98862"/>
<path opacity="0.1" d="M126.589 156.066C128.985 155.781 130.757 154.126 130.548 152.37C130.338 150.614 128.226 149.423 125.83 149.708C123.434 149.994 121.662 151.649 121.872 153.404C122.081 155.16 124.194 156.352 126.589 156.066Z" fill="#0C0C0C"/>
<path opacity="0.1" d="M151.905 149.047C152.117 150.8 154.232 151.99 156.628 151.708C157.042 151.658 157.449 151.566 157.844 151.432C157.956 149.342 157.962 147.331 157.901 145.469C157.236 145.303 156.545 145.262 155.865 145.35C153.469 145.632 151.698 147.287 151.905 149.047Z" fill="#0C0C0C"/>
<path opacity="0.5" d="M141.321 154.466C141.333 154.465 141.344 154.463 141.356 154.46C142.096 154.306 142.827 154.112 143.545 153.877C144.617 153.519 146.016 152.93 145.824 151.961C145.603 150.858 140.175 139.558 139.56 138.274C139.534 138.216 139.498 138.164 139.452 138.121C139.406 138.077 139.352 138.043 139.293 138.021C139.233 137.999 139.17 137.989 139.107 137.992C139.044 137.995 138.982 138.011 138.925 138.038C138.868 138.065 138.817 138.104 138.775 138.151C138.734 138.199 138.702 138.254 138.682 138.314C138.662 138.374 138.655 138.438 138.66 138.501C138.665 138.564 138.683 138.625 138.712 138.681C141.026 143.493 144.753 151.406 144.903 152.148C144.786 152.495 143.008 153.171 141.172 153.541C141.112 153.551 141.053 153.573 141.001 153.605C140.948 153.637 140.903 153.68 140.867 153.73C140.83 153.78 140.805 153.836 140.79 153.896C140.776 153.956 140.774 154.018 140.784 154.079C140.794 154.14 140.815 154.198 140.848 154.251C140.88 154.303 140.922 154.349 140.972 154.385C141.022 154.421 141.079 154.447 141.139 154.461C141.199 154.475 141.261 154.477 141.322 154.468L141.321 154.466Z" fill="#0C0C0C"/>
<path d="M80.462 146.465L96.8267 143.271C109.188 138.106 112.696 116.58 112.696 116.58C112.696 116.58 127.952 131.098 164.414 122.319C164.414 122.319 156.493 71.4603 102.654 86.9014C85.2946 91.8789 72.9978 109.559 74.8266 132.977C76.1082 149.383 80.462 146.465 80.462 146.465Z" fill="#0A0A0A"/>
<path d="M100.87 163.342C95.3225 164.458 89.6313 159.432 88.5128 153.888C87.3944 148.344 91.2779 144.385 96.8251 143.269L100.432 146.408L105.638 162.382L100.87 163.342Z" fill="#E98862"/>
<path d="M143.49 129.263C144.878 128.282 146.501 127.686 148.194 127.535C149.045 127.454 149.903 127.501 150.739 127.676C151.583 127.848 152.402 128.125 153.176 128.501L153.2 128.512C153.286 128.55 153.383 128.552 153.471 128.52C153.559 128.487 153.631 128.421 153.671 128.336C153.711 128.251 153.716 128.154 153.685 128.066C153.654 127.977 153.59 127.904 153.506 127.862C152.685 127.429 151.813 127.101 150.91 126.886C150.001 126.665 149.064 126.582 148.13 126.639C146.239 126.744 144.41 127.353 142.835 128.403C142.776 128.443 142.726 128.494 142.687 128.553C142.648 128.612 142.621 128.679 142.607 128.748C142.594 128.818 142.594 128.89 142.609 128.959C142.623 129.028 142.651 129.094 142.691 129.153C142.731 129.211 142.782 129.262 142.842 129.3C142.901 129.339 142.967 129.366 143.037 129.379C143.107 129.392 143.179 129.392 143.248 129.377C143.317 129.362 143.383 129.334 143.442 129.294L143.455 129.286L143.49 129.263Z" fill="#0C0C0C"/>
<path d="M128.542 131.327C126.683 130.957 124.76 131.093 122.972 131.72C122.088 132.024 121.255 132.459 120.501 133.01C119.749 133.554 119.069 134.191 118.477 134.905C118.417 134.976 118.387 135.068 118.393 135.16C118.4 135.253 118.441 135.34 118.51 135.402C118.579 135.465 118.669 135.498 118.762 135.496C118.855 135.493 118.943 135.455 119.008 135.389L119.027 135.369C119.598 134.726 120.248 134.157 120.962 133.676C121.668 133.194 122.442 132.823 123.259 132.573C124.881 132.064 126.609 131.993 128.267 132.368L128.308 132.379C128.447 132.413 128.594 132.39 128.716 132.315C128.838 132.241 128.926 132.121 128.96 131.982C128.994 131.843 128.971 131.696 128.896 131.574C128.821 131.452 128.701 131.364 128.562 131.33L128.542 131.327Z" fill="#0C0C0C"/>
<path d="M96.8384 143.002C107.839 138.91 111.489 131.32 112.613 125.671C113.341 121.904 113.273 118.027 112.414 114.288L112.073 114.382C112.92 118.072 112.985 121.899 112.265 125.616C111.155 131.172 107.557 138.64 96.7148 142.672L96.8384 143.002Z" fill="#0C0C0C"/>
<path d="M183.688 204.609L288.139 239.495L257.473 253.115L309.556 146.355L352.122 166.176L303.798 274.686C301.354 280.173 297.016 284.599 291.576 287.154C286.135 289.709 279.957 290.222 274.169 288.601L273.13 288.307L167.098 258.562L183.688 204.609Z" fill="#F54253"/>
<path d="M118.025 220.843C93.9529 219.709 92.9397 199.294 92.9397 199.294C92.9397 199.294 81.0121 200.064 73.0833 201.136C60.1023 202.891 51.5387 207.289 44.7234 214.098C38.384 220.433 34.5244 227.286 38.6085 271.041C41.5657 302.724 39.4848 372.411 39.4848 372.411H186.178C186.178 372.411 196.421 271.732 197.636 257.473C199.953 230.247 206.501 224.237 193.235 210.212C183.614 200.042 158.777 199.294 148.78 199.295C148.617 199.295 150.808 222.387 118.025 220.843Z" fill="#F54253"/>
<path d="M146.2 158.284C141.47 160.688 136.073 161.447 130.862 160.444C130.682 160.41 130.496 160.428 130.325 160.496C130.155 160.565 130.007 160.68 129.9 160.828C129.792 160.977 129.73 161.153 129.719 161.336C129.708 161.519 129.749 161.702 129.838 161.862C131.391 164.597 135.076 169.27 141.397 167.365C145.478 166.135 147.021 161.94 147.593 159.344C147.632 159.165 147.619 158.978 147.555 158.805C147.492 158.633 147.38 158.482 147.234 158.371C147.088 158.26 146.913 158.192 146.729 158.177C146.546 158.162 146.362 158.199 146.2 158.284Z" fill="white"/>
<path d="M146.495 137.265C147.757 137.265 148.78 136.243 148.78 134.982C148.78 133.72 147.757 132.698 146.495 132.698C145.232 132.698 144.209 133.72 144.209 134.982C144.209 136.243 145.232 137.265 146.495 137.265Z" fill="#0C0C0C"/>
<path d="M124.534 141.107C125.796 141.107 126.819 140.084 126.819 138.823C126.819 137.562 125.796 136.539 124.534 136.539C123.271 136.539 122.248 137.562 122.248 138.823C122.248 140.084 123.271 141.107 124.534 141.107Z" fill="#0C0C0C"/>
<path d="M197.311 267.392C197.296 267.393 197.281 267.393 197.266 267.392C197.173 267.381 197.089 267.333 197.032 267.259C196.974 267.186 196.948 267.092 196.96 266.999L199.231 248.601C199.236 248.554 199.25 248.51 199.273 248.469C199.295 248.428 199.326 248.393 199.363 248.364C199.399 248.335 199.441 248.315 199.486 248.303C199.531 248.291 199.578 248.288 199.624 248.295C199.671 248.3 199.715 248.315 199.755 248.338C199.796 248.361 199.831 248.391 199.86 248.428C199.888 248.464 199.909 248.506 199.922 248.551C199.934 248.596 199.937 248.642 199.932 248.688L197.66 267.086C197.649 267.171 197.607 267.249 197.543 267.305C197.479 267.361 197.396 267.392 197.311 267.392Z" fill="#0C0C0C"/>
<path d="M568.626 125.425C568.626 125.425 559.876 115.607 560.89 97.2185C561.676 82.981 572.668 94.4951 572.668 94.4951C572.668 94.4951 573.333 84.2488 580.411 86.6885C587.489 89.1282 589.477 100.426 589.477 100.426" fill="#0C0C0C"/>
<path d="M617.805 95.3494C617.805 95.3494 653.148 106.411 630.338 152.709L627.1 152.285L620.526 151.428" fill="#0C0C0C"/>
<path d="M567.525 200.979C567.688 200.958 569.484 230.745 604.117 228.149C628.093 226.354 636.642 200.938 637.191 200.938C634.606 200.388 630.253 199.59 629.105 198.978C625.329 196.951 620.658 194.842 619.441 187.516C618.74 183.294 619.93 161.694 619.564 157.422L582.76 165.629C583.275 174.651 586.874 195.567 574.259 199.269C572.16 199.881 569.897 200.444 567.525 200.979Z" fill="#E98862"/>
<path opacity="0.52" d="M582.244 190.722C582.82 188.865 583.191 186.951 583.351 185.014C583.756 180.594 583.675 176.142 583.111 171.739C590.591 170.731 597.638 167.646 603.451 162.836C604.134 165.357 607.893 176.376 606.852 178.773C604.885 183.303 595.642 190.722 582.244 190.722Z" fill="#0C0C0C"/>
<path d="M586.66 180.634C601.153 182.194 619.988 176.598 624.088 157.335L627.786 139.953C631.881 120.692 625.081 102.922 606.928 99.0661C588.775 95.2104 571.884 107.945 567.786 127.209L566.149 134.904C565.633 137.556 565.298 140.24 565.147 142.937C564.696 150.063 564.038 160.903 567.329 168.98C570.435 176.605 577.4 179.637 586.66 180.634Z" fill="#E98862"/>
<path d="M575.143 136.255C576.405 136.255 577.429 135.233 577.429 133.971C577.429 132.71 576.405 131.688 575.143 131.688C573.881 131.688 572.857 132.71 572.857 133.971C572.857 135.233 573.881 136.255 575.143 136.255Z" fill="#0C0C0C"/>
<path d="M596.854 138.539C598.116 138.539 599.14 137.516 599.14 136.255C599.14 134.994 598.116 133.971 596.854 133.971C595.592 133.971 594.568 134.994 594.568 136.255C594.568 137.516 595.592 138.539 596.854 138.539Z" fill="#0C0C0C"/>
<path d="M621.71 162.964C627.227 164.136 632.953 159.189 634.126 153.677C635.299 148.164 631.473 144.175 625.957 143.003L622.328 146.093L616.967 161.957L621.71 162.964Z" fill="#E98862"/>
<path d="M617.98 152.989C617.98 152.989 621.564 125.289 613.607 121.95C608.311 119.726 593.352 124.886 581.417 120.051C576.196 117.935 570.775 118.252 569.74 120.71C569.33 121.683 568.857 106.433 579.563 97.0639C588.087 89.6037 610.729 91.5277 620.228 96.4226C646.531 109.975 626.857 144.434 626.857 144.434L623.734 153.606L617.98 152.989Z" fill="#0C0C0C"/>
<g opacity="0.52">
<path opacity="0.52" d="M581.087 154.971L581.051 154.965C579.272 154.592 576.331 153.766 576.608 152.438C576.84 151.337 582.355 140.078 582.984 138.799C583.038 138.688 583.134 138.604 583.25 138.565C583.366 138.525 583.493 138.533 583.604 138.587C583.714 138.641 583.798 138.736 583.838 138.852C583.877 138.968 583.869 139.096 583.815 139.206C581.369 144.191 577.672 151.88 577.514 152.628C577.624 152.981 579.399 153.673 581.24 154.059C581.356 154.085 581.457 154.154 581.523 154.252C581.589 154.351 581.615 154.471 581.596 154.587C581.576 154.704 581.512 154.809 581.418 154.88C581.323 154.952 581.205 154.984 581.087 154.971Z" fill="#0C0C0C"/>
</g>
<path d="M580.677 126.827C578.929 125.946 576.976 125.552 575.023 125.686C574.064 125.747 573.118 125.951 572.219 126.291C571.33 126.624 570.486 127.068 569.708 127.612C569.577 127.695 569.485 127.825 569.451 127.975C569.416 128.126 569.442 128.283 569.523 128.415C569.604 128.546 569.733 128.64 569.883 128.677C570.032 128.714 570.191 128.69 570.323 128.612L570.364 128.588C571.078 128.146 571.844 127.795 572.646 127.544C573.436 127.292 574.259 127.161 575.088 127.155C576.727 127.131 578.343 127.54 579.772 128.341L579.826 128.373C579.926 128.433 580.037 128.472 580.152 128.488C580.268 128.505 580.385 128.499 580.498 128.47C580.611 128.441 580.717 128.39 580.81 128.32C580.903 128.25 580.981 128.162 581.04 128.061C581.099 127.961 581.138 127.85 581.153 127.735C581.169 127.619 581.162 127.502 581.132 127.389C581.103 127.277 581.051 127.171 580.98 127.079C580.909 126.986 580.821 126.909 580.72 126.851L580.677 126.827Z" fill="#0C0C0C"/>
<path d="M593.747 130.357C595.334 129.95 597.002 129.969 598.579 130.413C599.379 130.631 600.141 130.969 600.839 131.415C601.549 131.864 602.199 132.4 602.775 133.01L602.807 133.042C602.916 133.148 603.061 133.207 603.213 133.208C603.364 133.209 603.51 133.151 603.621 133.047C603.731 132.943 603.796 132.8 603.804 132.649C603.811 132.498 603.76 132.349 603.661 132.235C603.048 131.509 602.347 130.864 601.573 130.314C600.792 129.754 599.93 129.315 599.019 129.01C597.166 128.378 595.178 128.256 593.262 128.657C593.148 128.682 593.041 128.729 592.946 128.795C592.85 128.861 592.769 128.945 592.706 129.043C592.58 129.24 592.537 129.479 592.587 129.708C592.637 129.937 592.775 130.136 592.973 130.263C593.17 130.389 593.409 130.432 593.638 130.382L593.683 130.371L593.747 130.357Z" fill="#0C0C0C"/>
<path d="M578.292 159.244C583.44 160.529 588.87 160.063 593.724 157.92C593.892 157.847 594.078 157.823 594.259 157.851C594.44 157.88 594.61 157.959 594.748 158.08C594.886 158.201 594.987 158.358 595.038 158.534C595.09 158.71 595.091 158.897 595.04 159.073C594.137 162.086 591.594 167.469 585.007 167.023C580.753 166.737 578.31 162.992 577.169 160.591C577.09 160.424 577.061 160.239 577.084 160.056C577.107 159.873 577.182 159.701 577.3 159.559C577.418 159.417 577.574 159.312 577.75 159.257C577.926 159.201 578.114 159.196 578.292 159.244Z" fill="white"/>
<path d="M598.724 101.01C601.184 95.2406 599.997 89.2096 596.074 87.5397C592.151 85.8698 586.976 89.1934 584.517 94.9631C582.057 100.733 583.243 106.764 587.166 108.434C591.089 110.104 596.264 106.78 598.724 101.01Z" fill="#0C0C0C"/>
<path d="M604.652 220.843C628.724 219.709 629.737 199.294 629.737 199.294C629.737 199.294 641.665 200.064 649.594 201.136C662.575 202.891 671.139 207.289 677.953 214.098C684.293 220.433 688.152 227.286 684.068 271.041C681.111 302.724 683.193 372.411 683.193 372.411H536.5C536.5 372.411 526.256 271.735 525.042 257.473C522.723 230.247 516.176 224.237 529.442 210.212C539.063 200.042 563.9 199.294 573.898 199.295C574.059 199.295 571.87 222.387 604.652 220.843Z" fill="#F54253"/>
<path d="M524.7 216.518L486.773 296.857L411.979 240.658L382.271 280.129L481.31 354.545C482.197 355.203 483.122 355.806 484.082 356.351C486.912 357.935 490.027 358.947 493.248 359.329C496.469 359.71 499.734 359.454 502.856 358.575C505.978 357.696 508.896 356.211 511.444 354.205C513.992 352.198 516.119 349.711 517.704 346.883L518.134 346.119L575.997 242.923L524.7 216.518Z" fill="#F54253"/>
<path d="M688.823 373.116H20.7901C20.6028 373.116 20.4232 373.042 20.2908 372.909C20.1584 372.777 20.084 372.597 20.084 372.41C20.084 372.223 20.1584 372.044 20.2908 371.911C20.4232 371.779 20.6028 371.705 20.7901 371.705H688.823C689.01 371.705 689.19 371.779 689.322 371.911C689.455 372.044 689.529 372.223 689.529 372.41C689.529 372.597 689.455 372.777 689.322 372.909C689.19 373.042 689.01 373.116 688.823 373.116Z" fill="#292A2E"/>
<path d="M543.521 267.47H185.795V389.646H543.521V267.47Z" fill="white"/>
<path d="M543.872 390H185.441V267.117H543.872V390ZM186.148 389.294H543.166V267.823H186.148V389.294Z" fill="#0C0C0C"/>
<path d="M168.128 304.809L190.21 294.955C190.696 294.739 191.221 294.626 191.752 294.623C192.284 294.621 192.81 294.729 193.297 294.94C193.784 295.152 194.222 295.463 194.583 295.853C194.943 296.243 195.219 296.704 195.391 297.206C195.681 298.143 195.612 299.154 195.198 300.043C194.784 300.932 194.055 301.636 193.151 302.018L188.416 304.135L206.358 304.32C208.354 304.305 210.811 305.563 210.68 307.8C210.685 308.664 210.398 309.505 209.864 310.185C209.33 310.865 208.581 311.344 207.739 311.544C207.744 311.563 207.747 311.582 207.748 311.602C207.746 311.616 207.743 311.63 207.739 311.645L210.816 311.623C211.385 311.619 211.949 311.742 212.464 311.984C212.98 312.225 213.436 312.578 213.798 313.017C214.16 313.456 214.419 313.971 214.557 314.523C214.695 315.075 214.708 315.651 214.595 316.209C214.399 317.084 213.908 317.865 213.204 318.422C212.5 318.979 211.626 319.277 210.728 319.267L209.419 319.276C209.402 319.314 209.378 319.349 209.349 319.378C210.235 319.577 211.021 320.085 211.567 320.809C212.113 321.534 212.383 322.429 212.329 323.335C212.242 324.325 211.784 325.245 211.047 325.912C210.31 326.579 209.349 326.944 208.354 326.933L205.102 326.957C205.148 326.988 205.185 327.031 205.212 327.08C205.238 327.129 205.253 327.183 205.255 327.239C205.252 327.305 205.23 327.37 205.191 327.424C205.931 327.82 206.52 328.448 206.868 329.212C207.216 329.975 207.303 330.831 207.117 331.649C206.903 332.503 206.407 333.261 205.709 333.799C205.011 334.336 204.151 334.623 203.27 334.612L175.831 334.808C171.992 334.835 168.233 333.716 165.035 331.595C161.837 329.474 159.346 326.447 157.881 322.903C156.617 319.846 156.597 316.417 157.823 313.346C159.049 310.274 161.426 307.801 164.448 306.452L168.128 304.809Z" fill="#E98862"/>
<g opacity="0.2">
<path opacity="0.2" d="M189.979 311.447C189.98 311.539 190.018 311.628 190.084 311.693C190.15 311.758 190.239 311.795 190.332 311.795L207.395 311.948C207.489 311.949 207.579 311.912 207.646 311.847C207.713 311.781 207.751 311.692 207.751 311.598C207.752 311.505 207.716 311.414 207.65 311.348C207.585 311.281 207.495 311.243 207.402 311.242L190.338 311.088C190.244 311.088 190.154 311.125 190.088 311.191C190.022 311.258 189.985 311.347 189.985 311.441L189.979 311.447Z" fill="#0C0C0C"/>
</g>
<g opacity="0.2">
<path opacity="0.2" d="M189.703 318.967C189.704 319.059 189.742 319.148 189.808 319.213C189.874 319.278 189.963 319.315 190.056 319.315L209.099 319.486C209.192 319.486 209.282 319.449 209.348 319.383C209.415 319.317 209.452 319.227 209.452 319.133C209.449 319.041 209.41 318.953 209.345 318.887C209.279 318.822 209.191 318.783 209.099 318.78L190.056 318.609C190.009 318.608 189.963 318.617 189.92 318.635C189.876 318.652 189.837 318.678 189.804 318.711C189.771 318.744 189.744 318.783 189.726 318.826C189.708 318.869 189.699 318.915 189.699 318.962L189.703 318.967Z" fill="#0C0C0C"/>
</g>
<g opacity="0.2">
<path opacity="0.2" d="M189.357 327.104C189.359 327.197 189.396 327.286 189.463 327.351C189.529 327.416 189.618 327.452 189.71 327.452L204.901 327.589C204.995 327.59 205.085 327.554 205.151 327.488C205.218 327.423 205.256 327.333 205.257 327.239C205.258 327.146 205.222 327.056 205.156 326.989C205.09 326.922 205.001 326.884 204.907 326.883L189.717 326.746C189.623 326.746 189.533 326.783 189.467 326.85C189.401 326.916 189.364 327.006 189.364 327.099L189.357 327.104Z" fill="#0C0C0C"/>
</g>
<path d="M174.453 344.095L52.0236 371.903C47.9564 372.345 43.842 371.84 40.0032 370.427C36.1644 369.013 32.7055 366.73 29.8981 363.757C27.0906 360.783 25.0109 357.2 23.8221 353.289C22.6334 349.377 22.3679 345.244 23.0465 341.213L37.057 228.611C38.2222 221.691 42.0908 215.518 47.8116 211.448C53.5325 207.378 60.6371 205.746 67.5625 206.91C74.4878 208.074 80.6666 211.94 84.7397 217.656C88.8127 223.372 90.4463 230.471 89.2812 237.391L82.5343 317.986L167.594 298.752L174.453 344.095Z" fill="#F54253"/>
<path d="M65.3208 321.154C65.2322 321.153 65.1471 321.119 65.0824 321.058C65.0177 320.998 64.9781 320.915 64.9717 320.827C64.9652 320.738 64.9922 320.651 65.0473 320.581C65.1025 320.512 65.1817 320.466 65.2693 320.452L82.3295 316.812C82.3754 316.805 82.4223 316.807 82.4675 316.818C82.5127 316.829 82.5552 316.848 82.5926 316.876C82.63 316.904 82.6614 316.938 82.6851 316.978C82.7088 317.018 82.7243 317.063 82.7305 317.109C82.7443 317.201 82.7208 317.295 82.6652 317.37C82.6096 317.446 82.5264 317.496 82.434 317.509L65.3738 321.149C65.3563 321.152 65.3386 321.154 65.3208 321.154Z" fill="#0C0C0C"/>
<path d="M55.6951 372.41C55.6015 372.416 55.5093 372.385 55.4387 372.323C55.3682 372.261 55.3252 372.174 55.3191 372.081C55.313 371.987 55.3444 371.895 55.4063 371.824C55.4682 371.754 55.5556 371.711 55.6492 371.705L173.683 343.928L166.995 299.268L82.4423 317.506C82.3876 317.513 82.3321 317.507 82.2801 317.489C82.228 317.47 82.1809 317.441 82.1422 317.401C82.1037 317.362 82.0751 317.313 82.0586 317.261C82.0422 317.208 82.0384 317.152 82.0476 317.097L86.7905 271.048C86.7976 271.002 86.8138 270.958 86.8382 270.918C86.8627 270.878 86.8948 270.844 86.9327 270.817C86.9706 270.79 87.0136 270.771 87.059 270.761C87.1044 270.751 87.1514 270.75 87.1972 270.758C87.2895 270.774 87.3719 270.825 87.4262 270.902C87.4805 270.978 87.5023 271.072 87.4867 271.165L82.8264 316.742L167.159 298.49C167.205 298.477 167.252 298.474 167.299 298.48C167.345 298.486 167.39 298.501 167.431 298.525C167.472 298.549 167.507 298.581 167.535 298.618C167.564 298.656 167.584 298.699 167.596 298.744L174.454 344.091C174.476 344.18 174.462 344.274 174.415 344.353C174.369 344.432 174.293 344.49 174.205 344.514L55.741 372.408C55.7258 372.41 55.7105 372.41 55.6951 372.41Z" fill="#0C0C0C"/>
<path d="M554.545 325.975L532.463 316.121C531.977 315.904 531.452 315.791 530.921 315.789C530.39 315.786 529.864 315.894 529.376 316.106C528.889 316.318 528.451 316.628 528.091 317.018C527.73 317.409 527.455 317.869 527.283 318.371C526.993 319.308 527.061 320.32 527.475 321.209C527.889 322.098 528.619 322.802 529.523 323.184L534.258 325.3L516.315 325.485C514.32 325.47 511.862 326.728 511.994 328.966C511.988 329.83 512.276 330.671 512.81 331.351C513.344 332.031 514.093 332.51 514.934 332.71C514.929 332.728 514.926 332.748 514.925 332.767C514.927 332.782 514.93 332.796 514.934 332.81L511.858 332.788C511.288 332.784 510.725 332.908 510.209 333.149C509.693 333.39 509.238 333.743 508.876 334.182C508.514 334.622 508.254 335.136 508.116 335.688C507.978 336.24 507.965 336.816 508.078 337.374C508.274 338.249 508.766 339.031 509.469 339.587C510.173 340.144 511.047 340.442 511.945 340.433L513.254 340.442C513.272 340.48 513.296 340.514 513.325 340.544C512.439 340.743 511.653 341.25 511.107 341.975C510.561 342.7 510.291 343.595 510.345 344.501C510.432 345.49 510.89 346.41 511.627 347.077C512.364 347.744 513.326 348.109 514.32 348.099L517.572 348.122C517.526 348.154 517.489 348.196 517.462 348.245C517.435 348.294 517.421 348.349 517.42 348.404C517.422 348.471 517.444 348.535 517.483 348.59C516.743 348.986 516.153 349.614 515.806 350.377C515.458 351.14 515.37 351.997 515.557 352.814C515.771 353.669 516.267 354.427 516.965 354.964C517.663 355.502 518.523 355.789 519.405 355.778L546.844 355.973C550.682 356 554.442 354.882 557.64 352.76C560.838 350.639 563.329 347.611 564.794 344.066C566.057 341.009 566.078 337.581 564.852 334.509C563.625 331.437 561.249 328.964 558.227 327.615L554.545 325.975Z" fill="#E98862"/>
<g opacity="0.2">
<path opacity="0.2" d="M532.693 332.612C532.692 332.705 532.654 332.794 532.588 332.859C532.522 332.924 532.433 332.96 532.34 332.96L515.276 333.114C515.23 333.114 515.184 333.105 515.141 333.088C515.098 333.071 515.059 333.045 515.026 333.012C514.992 332.98 514.966 332.941 514.948 332.899C514.93 332.856 514.92 332.81 514.92 332.764C514.92 332.717 514.928 332.671 514.946 332.628C514.963 332.585 514.989 332.546 515.021 332.513C515.054 332.48 515.092 332.454 515.135 332.436C515.178 332.417 515.223 332.408 515.27 332.407L532.333 332.254C532.427 332.254 532.517 332.291 532.583 332.357C532.649 332.423 532.687 332.513 532.687 332.607L532.693 332.612Z" fill="#0C0C0C"/>
</g>
<g opacity="0.2">
<path opacity="0.2" d="M532.969 340.132C532.968 340.225 532.93 340.313 532.865 340.378C532.8 340.443 532.712 340.48 532.619 340.481L513.576 340.652C513.482 340.652 513.392 340.615 513.326 340.549C513.26 340.482 513.223 340.393 513.223 340.299C513.226 340.206 513.264 340.118 513.329 340.053C513.395 339.987 513.483 339.949 513.576 339.946L532.619 339.774C532.712 339.774 532.802 339.812 532.868 339.878C532.934 339.944 532.972 340.034 532.972 340.127L532.969 340.132Z" fill="#0C0C0C"/>
</g>
<g opacity="0.2">
<path opacity="0.2" d="M533.32 348.27C533.318 348.363 533.281 348.451 533.215 348.516C533.148 348.581 533.059 348.618 532.967 348.618L517.776 348.755C517.73 348.755 517.684 348.747 517.641 348.729C517.598 348.712 517.559 348.686 517.526 348.654C517.493 348.621 517.466 348.583 517.448 348.54C517.43 348.497 517.42 348.451 517.42 348.405C517.42 348.359 517.428 348.313 517.446 348.27C517.463 348.227 517.489 348.188 517.521 348.155C517.554 348.121 517.592 348.095 517.635 348.077C517.678 348.059 517.723 348.049 517.77 348.049L532.96 347.912C533.054 347.912 533.144 347.949 533.21 348.015C533.276 348.081 533.313 348.171 533.313 348.265L533.32 348.27Z" fill="#0C0C0C"/>
</g>
<path d="M555.289 365.261L670.657 371.903C674.724 372.345 678.839 371.84 682.678 370.427C686.516 369.013 689.975 366.73 692.783 363.757C695.59 360.783 697.67 357.2 698.859 353.289C700.047 349.377 700.313 345.244 699.634 341.213L685.627 228.608C685.05 225.181 683.803 221.902 681.958 218.957C680.112 216.012 677.705 213.459 674.872 211.444C672.039 209.429 668.837 207.991 665.448 207.213C662.059 206.434 658.55 206.33 655.121 206.907C651.692 207.483 648.41 208.729 645.463 210.573C642.516 212.416 639.961 214.822 637.944 217.652C635.927 220.483 634.488 223.682 633.709 227.068C632.93 230.455 632.826 233.961 633.402 237.387L640.149 322.921L555.795 319.914L555.289 365.261Z" fill="#F54253"/>
<path d="M657.359 322.565C657.448 322.564 657.533 322.53 657.598 322.47C657.662 322.409 657.702 322.326 657.709 322.238C657.715 322.149 657.688 322.062 657.633 321.992C657.578 321.923 657.499 321.877 657.411 321.863L640.351 321.751C640.305 321.743 640.258 321.745 640.213 321.756C640.168 321.767 640.125 321.787 640.088 321.814C640.05 321.842 640.019 321.877 639.995 321.917C639.971 321.957 639.956 322.001 639.949 322.047C639.935 322.14 639.959 322.234 640.015 322.309C640.07 322.385 640.154 322.435 640.246 322.448L657.307 322.561C657.324 322.563 657.341 322.565 657.359 322.565Z" fill="#0C0C0C"/>
<path d="M666.979 372.41C667.073 372.416 667.165 372.385 667.236 372.323C667.306 372.261 667.349 372.174 667.355 372.08C667.361 371.987 667.329 371.895 667.268 371.824C667.206 371.754 667.118 371.711 667.024 371.705L556.05 365.096L556.383 320.436L640.229 322.447C640.284 322.454 640.339 322.448 640.392 322.43C640.444 322.412 640.491 322.382 640.529 322.343C640.568 322.303 640.597 322.255 640.613 322.202C640.629 322.149 640.633 322.093 640.624 322.039L635.882 271.05C635.875 271.005 635.858 270.96 635.834 270.921C635.809 270.881 635.777 270.847 635.739 270.82C635.702 270.793 635.659 270.774 635.613 270.764C635.568 270.754 635.521 270.753 635.475 270.761C635.429 270.769 635.385 270.785 635.346 270.81C635.307 270.834 635.273 270.867 635.246 270.904C635.219 270.942 635.199 270.985 635.189 271.03C635.179 271.075 635.177 271.122 635.185 271.168L639.849 321.683L556.222 319.658C556.177 319.646 556.129 319.642 556.083 319.649C556.036 319.655 555.991 319.67 555.95 319.694C555.91 319.717 555.874 319.749 555.846 319.787C555.818 319.825 555.797 319.867 555.786 319.913L555.281 365.259C555.26 365.348 555.274 365.442 555.32 365.521C555.367 365.6 555.442 365.658 555.531 365.683L666.931 372.403C666.947 372.407 666.963 372.409 666.979 372.41Z" fill="#0C0C0C"/>
<path d="M270.604 347.41H261.227L255.968 327.025C255.773 326.299 255.441 324.8 254.972 322.526C254.503 320.253 254.233 318.726 254.161 317.947C254.055 318.903 253.79 320.438 253.364 322.552C252.939 324.667 252.611 326.176 252.382 327.078L247.148 347.41H237.798L227.889 308.606H235.991L240.959 329.788C241.827 333.699 242.455 337.087 242.845 339.954C242.951 338.945 243.194 337.383 243.575 335.269C243.957 333.155 244.315 331.513 244.652 330.345L250.31 308.606H258.093L263.751 330.345C263.999 331.319 264.309 332.805 264.681 334.804C265.053 336.803 265.336 338.52 265.528 339.954C265.705 338.574 265.988 336.853 266.376 334.791C266.763 332.729 267.116 331.062 267.435 329.788L272.377 308.607H280.48L270.604 347.41Z" fill="#F54253"/>
<path d="M307.745 347.41H285.377V308.606H307.745V315.348H293.613V323.868H306.763V330.607H293.613V340.615H307.745V347.41Z" fill="#F54253"/>
<path d="M315.844 347.41V308.606H324.079V340.617H339.831V347.412L315.844 347.41Z" fill="#F54253"/>
<path d="M363.078 314.895C361.682 314.831 360.292 315.117 359.034 315.726C357.776 316.336 356.691 317.25 355.876 318.385C354.176 320.712 353.326 323.955 353.326 328.113C353.326 336.768 356.576 341.095 363.075 341.095C366.468 340.963 369.816 340.272 372.984 339.049V345.95C369.592 347.316 365.962 347.993 362.305 347.941C356.656 347.941 352.335 346.229 349.341 342.804C346.347 339.38 344.851 334.465 344.852 328.059C344.771 324.403 345.525 320.777 347.057 317.456C348.415 314.543 350.624 312.109 353.393 310.474C356.341 308.805 359.687 307.966 363.075 308.046C367.022 308.088 370.909 309.023 374.443 310.78L371.786 317.469C370.358 316.789 368.895 316.186 367.403 315.664C366.015 315.165 364.553 314.905 363.078 314.895Z" fill="#F54253"/>
<path d="M416.499 327.954C416.499 334.377 414.906 339.314 411.718 342.765C408.53 346.216 403.961 347.941 398.01 347.941C392.06 347.941 387.491 346.215 384.303 342.765C381.115 339.314 379.521 334.36 379.521 327.901C379.521 321.442 381.12 316.509 384.317 313.103C387.513 309.697 392.096 307.994 398.063 307.993C404.031 307.993 408.596 309.71 411.758 313.143C414.92 316.577 416.5 321.514 416.499 327.954ZM388.155 327.954C388.155 332.289 388.979 335.554 390.626 337.748C392.274 339.942 394.735 341.039 398.011 341.039C404.582 341.039 407.867 336.677 407.867 327.954C407.867 319.212 404.599 314.842 398.064 314.842C394.788 314.842 392.317 315.943 390.65 318.146C388.983 320.349 388.151 323.619 388.155 327.954Z" fill="#F54253"/>
<path d="M440.989 347.41L431.638 316.965H431.399C431.735 323.159 431.903 327.291 431.904 329.361V347.41H424.545V308.606H435.756L444.947 338.281H445.106L454.856 308.606H466.066V347.41H458.389V329.042C458.389 328.175 458.402 327.176 458.428 326.043C458.454 324.91 458.573 321.901 458.787 317.018H458.548L448.533 347.41H440.989Z" fill="#F54253"/>
<path d="M498.21 347.41H475.842V308.606H498.209V315.348H484.078V323.868H497.228V330.607H484.078V340.615H498.21V347.41Z" fill="#F54253"/>
</svg>
