<svg width="40" height="40" viewBox="0 0 40 40" fill="none" xmlns="http://www.w3.org/2000/svg">
<rect width="40" height="40" rx="2" fill="#FAFBFB"/>
<path d="M24.4533 27.6054C24.5779 27.4811 24.6767 27.3335 24.7441 27.1709C24.8115 27.0084 24.8462 26.8342 24.8462 26.6583C24.8462 26.4823 24.8115 26.3081 24.7441 26.1456C24.6767 25.9831 24.5779 25.8355 24.4533 25.7112L19.241 20.4988L24.4533 15.2865C24.7045 15.0353 24.8456 14.6946 24.8456 14.3394C24.8456 13.9842 24.7045 13.6435 24.4533 13.3923C24.2021 13.1411 23.8615 13 23.5062 13C23.151 13 22.8103 13.1411 22.5591 13.3923L16.393 19.5585C16.2684 19.6827 16.1696 19.8304 16.1022 19.9929C16.0348 20.1554 16.0001 20.3296 16.0001 20.5055C16.0001 20.6815 16.0348 20.8557 16.1022 21.0182C16.1696 21.1807 16.2684 21.3284 16.393 21.4526L22.5591 27.6188C23.0696 28.1293 23.9294 28.1293 24.4533 27.6054Z" fill="#242A37"/>
</svg>
