<svg width="40" height="40" viewBox="0 0 40 40" fill="none" xmlns="http://www.w3.org/2000/svg">
<rect width="40" height="40" rx="2" fill="#FAFBFB"/>
<path d="M16.3929 13.3946C16.2683 13.5189 16.1695 13.6665 16.1021 13.8291C16.0347 13.9916 16 14.1658 16 14.3417C16 14.5177 16.0347 14.6919 16.1021 14.8544C16.1695 15.0169 16.2683 15.1645 16.3929 15.2888L21.6052 20.5012L16.3929 25.7135C16.1417 25.9647 16.0006 26.3054 16.0006 26.6606C16.0006 27.0158 16.1417 27.3565 16.3929 27.6077C16.6441 27.8589 16.9847 28 17.34 28C17.6952 28 18.0359 27.8589 18.287 27.6077L24.4532 21.4415C24.5777 21.3173 24.6765 21.1696 24.744 21.0071C24.8114 20.8446 24.8461 20.6704 24.8461 20.4945C24.8461 20.3185 24.8114 20.1443 24.744 19.9818C24.6765 19.8193 24.5777 19.6716 24.4532 19.5474L18.287 13.3812C17.7766 12.8707 16.9168 12.8707 16.3929 13.3946Z" fill="#242A37"/>
</svg>
